<?xml version="1.0" standalone="no"?>
<!DOCTYPE svg PUBLIC "-//W3C//DTD SVG 20010904//EN"
 "http://www.w3.org/TR/2001/REC-SVG-20010904/DTD/svg10.dtd">
<svg version="1.0" xmlns="http://www.w3.org/2000/svg"
 width="918.000000pt" height="899.000000pt" viewBox="0 0 918.000000 899.000000"
 preserveAspectRatio="xMidYMid meet">

<g transform="translate(0.000000,899.000000) scale(0.100000,-0.100000)"
fill="#000000" stroke="none">
<path d="M4450 8433 c0 -115 -3 -218 -6 -231 -6 -22 -4 -23 32 -20 26 2 39 8
40 18 1 8 2 84 2 169 1 85 4 152 6 150 2 -2 16 -71 31 -154 35 -200 30 -187
73 -183 l37 3 35 162 c20 89 38 164 40 167 3 2 3 -72 1 -165 l-3 -169 36 0 36
0 2 195 c1 107 2 210 2 228 l1 32 -56 3 -56 3 -21 -88 c-11 -48 -26 -116 -33
-150 -7 -35 -16 -63 -19 -63 -3 0 -19 68 -35 150 l-29 150 -58 0 -58 0 0 -207z"/>
<path d="M4047 8613 c-15 -4 -17 -12 -13 -41 3 -21 10 -122 17 -225 7 -103 15
-189 18 -191 3 -2 20 -1 38 1 l31 5 -5 95 -6 94 34 -3 c30 -3 40 -12 93 -90
50 -73 64 -88 85 -87 64 1 64 9 12 90 -27 42 -58 83 -70 91 -22 15 -22 16 13
36 63 37 73 138 20 202 l-26 30 -111 -1 c-62 -1 -120 -3 -130 -6z m205 -80
c19 -17 24 -59 8 -83 -5 -8 -33 -17 -72 -21 -35 -3 -64 -5 -64 -5 -1 1 -4 27
-7 58 l-5 57 31 4 c68 8 91 6 109 -10z"/>
<path d="M5026 8559 c-13 -30 -58 -128 -100 -218 -42 -90 -75 -165 -74 -167 2
-1 19 -5 39 -9 35 -7 36 -6 57 46 22 52 22 52 59 45 21 -3 50 -6 65 -6 37 0
54 -21 62 -73 7 -44 8 -45 46 -49 22 -2 40 -1 40 2 0 9 -91 464 -93 466 -1 1
-19 5 -40 9 l-37 7 -24 -53z m74 -213 c0 -25 -3 -28 -22 -22 -13 3 -34 6 -47
6 -28 0 -26 16 16 106 l27 59 13 -60 c6 -33 12 -73 13 -89z"/>
<path d="M3695 8555 c-70 -25 -115 -96 -115 -180 0 -51 26 -141 53 -188 44
-75 114 -106 193 -86 101 26 149 124 125 250 -33 166 -136 248 -256 204z m106
-81 c44 -22 73 -92 74 -176 0 -60 -3 -70 -27 -95 -59 -58 -139 -21 -172 79
-30 92 -16 165 35 194 32 18 54 17 90 -2z"/>
<path d="M5287 8528 c-5 -38 2 -45 61 -54 41 -6 43 -8 37 -33 -4 -14 -22 -93
-41 -176 -19 -82 -37 -155 -39 -162 -4 -11 60 -31 70 -21 2 2 22 82 44 177 22
95 43 176 46 181 3 4 28 2 56 -5 54 -14 52 -15 63 36 5 25 5 26 -132 57 -75
18 -142 32 -148 32 -7 0 -14 -15 -17 -32z"/>
<path d="M3325 8450 c-60 -20 -109 -41 -109 -46 1 -5 32 -103 70 -217 67 -207
68 -208 93 -202 14 4 30 10 34 14 5 5 -3 46 -17 93 -14 46 -26 87 -26 91 0 3
32 16 70 27 73 22 78 28 60 74 l-9 25 -72 -24 c-40 -14 -74 -25 -75 -25 -4 0
-36 101 -33 104 2 2 41 16 87 30 45 15 82 29 82 30 0 18 -25 66 -33 65 -7 0
-61 -18 -122 -39z"/>
<path d="M5607 8263 c-37 -115 -67 -213 -67 -220 0 -11 57 -29 65 -21 2 2 35
100 74 217 l69 212 -25 10 c-13 5 -30 9 -37 9 -7 0 -39 -83 -79 -207z"/>
<path d="M5875 8365 c-61 -29 -105 -84 -134 -172 -41 -121 -16 -216 68 -260
115 -60 227 4 281 161 45 130 12 227 -92 270 -46 19 -83 20 -123 1z m133 -100
c33 -38 30 -106 -8 -181 -47 -96 -115 -121 -172 -63 -29 28 -30 34 -25 88 6
69 34 129 79 166 26 22 38 26 67 21 21 -3 45 -16 59 -31z"/>
<path d="M3058 8354 c-16 -8 -28 -16 -28 -18 0 -4 78 -183 100 -228 11 -23 20
-43 20 -46 0 -2 -59 45 -130 103 -104 85 -135 106 -153 101 -53 -14 -54 -13
43 -230 51 -113 98 -206 104 -206 6 1 21 6 32 13 22 12 21 13 -36 142 -32 72
-56 132 -55 133 2 2 43 -29 92 -70 159 -132 159 -132 193 -118 17 7 30 18 30
24 0 11 -169 396 -179 408 -3 3 -18 0 -33 -8z"/>
<path d="M6168 8036 c-60 -107 -108 -199 -108 -204 0 -5 12 -14 27 -21 23 -10
29 -10 36 1 5 7 37 65 73 128 l65 115 -7 -166 -7 -165 27 -18 c15 -9 32 -16
37 -14 6 2 59 91 118 198 l108 195 -30 18 c-18 11 -32 15 -36 9 -3 -6 -35 -64
-71 -131 -36 -66 -68 -121 -72 -121 -4 0 -6 6 -3 13 2 6 6 82 10 167 l6 155
-30 18 c-16 9 -31 17 -33 17 -1 0 -51 -87 -110 -194z"/>
<path d="M2696 8185 c-10 -8 -24 -16 -29 -18 -8 -2 179 -383 199 -406 5 -5 64
20 64 28 0 10 -205 411 -210 411 -3 -1 -14 -7 -24 -15z"/>
<path d="M2340 7974 c-41 -30 -87 -65 -102 -77 l-27 -22 127 -179 c70 -99 132
-181 137 -182 6 -2 21 5 34 15 l25 19 -52 75 c-29 41 -52 79 -52 84 0 4 19 20
43 36 84 54 82 52 57 87 l-22 30 -63 -44 -64 -45 -31 42 c-16 22 -30 43 -30
46 0 4 32 28 70 54 39 27 70 52 70 57 0 5 -10 20 -22 33 l-23 25 -75 -54z"/>
<path d="M6741 7912 l-20 -29 44 -33 44 -33 -28 -36 c-15 -20 -69 -88 -119
-152 l-90 -116 30 -23 c16 -12 33 -18 38 -14 5 7 210 271 226 293 2 2 22 -13
46 -33 l43 -37 22 28 c13 15 22 31 20 35 -3 9 -220 178 -229 178 -4 0 -16 -13
-27 -28z"/>
<path d="M2025 7731 c-138 -63 -133 -228 11 -360 59 -54 117 -76 176 -66 44 8
101 52 124 96 48 93 -34 261 -158 323 -61 31 -98 32 -153 7z m145 -91 c75 -54
119 -164 86 -215 -42 -64 -119 -53 -190 26 -74 82 -83 145 -28 196 22 20 34
24 64 20 20 -3 51 -15 68 -27z"/>
<path d="M7038 7661 c-18 -21 -88 -97 -155 -168 l-122 -129 105 -99 106 -98
26 27 27 27 -78 75 -79 74 44 45 43 46 71 -65 71 -65 27 28 27 28 -73 66 -73
66 37 37 37 38 70 -67 c38 -37 73 -67 78 -67 5 0 20 11 32 24 l22 23 -68 65
c-37 36 -84 79 -105 97 l-36 31 -34 -39z"/>
<path d="M4435 7523 c-83 -77 -322 -255 -447 -332 -537 -335 -1121 -505 -1811
-528 l-197 -6 -10 -36 c-28 -104 -92 -384 -118 -516 -218 -1093 -198 -2010 62
-2790 213 -638 585 -1167 1121 -1597 55 -45 115 -90 132 -102 18 -11 33 -23
33 -26 0 -3 -60 0 -134 6 l-133 12 -124 92 c-174 130 -254 196 -409 336 -144
130 -278 265 -324 326 l-28 37 -756 -6 c-691 -5 -764 -5 -841 11 -46 10 -102
26 -124 37 -21 11 -41 19 -43 16 -8 -8 37 -122 66 -168 35 -54 103 -120 174
-168 51 -36 247 -131 309 -151 20 -6 37 -15 37 -20 0 -14 -191 -189 -274 -252
-45 -33 -127 -82 -183 -110 l-102 -51 24 -19 c13 -10 50 -31 82 -46 l58 -27
438 -3 437 -3 0 -30 0 -30 -452 4 c-508 4 -529 6 -610 76 l-42 36 19 -34 c28
-47 89 -97 138 -111 30 -10 169 -14 495 -17 l452 -4 0 -215 c0 -247 1 -252 83
-313 180 -134 469 -216 1067 -301 609 -86 1238 -124 2075 -124 1301 0 2345
104 2923 293 173 57 303 129 334 184 14 25 14 24 16 285 l2 192 408 0 c224 0
440 5 479 10 91 12 145 39 183 92 35 48 40 76 7 36 -64 -76 -145 -87 -659 -88
l-418 0 0 30 0 30 419 0 c389 0 423 1 482 20 89 27 176 90 127 90 -26 0 -125
53 -220 116 -86 57 -318 264 -318 284 0 4 21 15 48 25 99 37 250 114 319 164
107 76 189 190 209 288 l6 32 -59 -24 c-115 -47 -151 -48 -1054 -41 l-846 6
-21 -23 c-12 -13 -20 -26 -17 -29 6 -6 -221 -224 -365 -350 -94 -82 -274 -224
-390 -307 -100 -72 -99 -71 -49 -66 24 2 106 6 182 10 75 4 140 12 143 17 4 6
-1 8 -12 4 -34 -10 -305 -15 -299 -5 4 5 12 9 20 9 7 0 16 6 18 13 4 8 8 9 14
1 12 -16 49 -23 64 -12 11 7 9 8 -5 4 -13 -5 -17 -2 -12 9 3 8 2 14 -2 14 -20
-3 -32 2 -27 11 4 6 11 8 16 5 5 -4 9 0 9 8 0 19 24 29 37 16 6 -6 15 -4 24 7
8 10 9 15 2 11 -6 -4 -14 -3 -17 2 -9 14 20 21 33 8 8 -8 11 -8 11 1 0 7 -5
12 -12 12 -6 0 -3 6 7 14 11 8 30 13 42 11 13 -1 26 2 30 8 3 6 1 7 -5 3 -15
-9 -15 -1 -2 25 6 10 17 19 26 19 8 0 17 7 20 15 4 8 13 15 21 15 8 0 12 3 9
8 -2 4 11 17 30 30 19 12 34 18 34 13 0 -6 -8 -15 -17 -20 -14 -8 -15 -10 -3
-11 8 0 21 9 28 20 8 13 8 20 1 20 -5 0 -7 5 -4 10 5 8 11 8 20 0 9 -8 12 -5
11 12 -1 18 5 23 32 24 17 1 32 -3 32 -9 0 -6 3 -8 6 -4 3 3 2 13 -4 23 -6 11
-11 13 -16 5 -4 -6 -12 -11 -18 -11 -7 0 1 13 17 30 16 16 35 30 42 30 8 0 11
5 8 11 -4 6 0 9 11 7 12 -2 18 3 17 12 0 8 17 31 40 50 22 19 38 30 34 23 -4
-6 -3 -14 3 -18 6 -4 8 -11 5 -16 -3 -5 1 -6 9 -3 18 7 21 20 6 29 -14 9 -12
36 2 32 7 -1 13 5 13 13 0 8 7 14 14 12 7 -1 10 1 7 6 -2 4 4 14 16 21 11 7
17 8 14 2 -4 -5 -2 -12 2 -15 5 -3 9 5 8 17 -1 24 14 48 27 40 4 -2 7 3 7 11
0 8 4 18 10 21 5 3 7 0 4 -8 -6 -18 12 -32 21 -17 4 6 11 7 17 4 7 -4 8 -2 4
5 -4 6 -12 9 -17 6 -5 -4 -9 1 -9 10 0 9 4 13 10 10 6 -4 7 1 3 11 -6 15 1 16
68 10 96 -10 293 -49 439 -88 155 -41 284 -91 350 -137 52 -36 55 -40 58 -85
3 -43 0 -51 -31 -80 -72 -67 -310 -148 -620 -210 -327 -66 -617 -101 -1077
-131 -124 -8 -246 -16 -272 -18 -27 -2 -48 -1 -48 2 0 3 17 17 38 30 89 58
287 227 422 361 276 274 475 548 643 885 199 402 315 815 374 1340 25 223 25
803 0 1060 -42 425 -104 778 -229 1296 l-23 96 -195 6 c-318 11 -547 41 -815
107 -537 132 -992 366 -1422 732 -51 43 -93 78 -95 78 -2 -1 -30 -26 -63 -57z
m167 -121 c513 -424 1127 -690 1793 -776 148 -19 371 -36 487 -36 l86 0 41
-167 c100 -415 164 -805 203 -1223 16 -181 17 -769 0 -935 -115 -1150 -586
-1997 -1460 -2622 l-86 -61 -101 -7 c-163 -10 -525 -20 -524 -15 0 3 35 22 77
44 198 99 471 278 659 431 132 108 349 326 453 455 402 502 632 1119 690 1854
13 166 13 591 0 771 -23 313 -74 660 -147 1006 l-37 176 -110 7 c-329 21 -700
94 -1011 199 -203 69 -286 104 -490 207 -207 104 -334 180 -511 307 l-114 83
-93 -68 c-574 -424 -1285 -679 -2029 -728 l-108 -7 -10 -37 c-45 -167 -125
-633 -154 -900 -160 -1450 206 -2558 1091 -3300 192 -161 491 -360 686 -456
42 -21 77 -41 77 -44 0 -6 -99 -4 -395 10 l-220 10 -55 37 c-230 152 -533 426
-715 648 -465 565 -707 1192 -787 2030 -16 169 -16 668 0 860 36 424 106 855
209 1281 l36 151 176 7 c865 32 1600 308 2226 835 33 28 63 51 66 51 4 0 49
-35 101 -78z m22 -434 c562 -403 1264 -650 1975 -696 l105 -7 8 -30 c15 -57
77 -370 97 -495 144 -879 111 -1657 -95 -2278 -267 -802 -796 -1398 -1635
-1840 l-136 -72 -89 0 -89 1 170 83 c556 272 979 609 1291 1033 241 325 434
771 515 1187 57 296 71 434 76 791 6 399 -14 665 -82 1090 -19 119 -84 447
-89 452 -2 2 -68 11 -147 18 -741 75 -1369 307 -1945 719 l-50 36 -156 -104
c-566 -377 -1152 -584 -1846 -651 -79 -7 -145 -15 -146 -17 -5 -8 -50 -238
-76 -392 -74 -427 -95 -670 -95 -1086 1 -349 10 -479 55 -740 184 -1066 794
-1839 1855 -2351 l140 -68 -86 0 -85 -1 -120 62 c-565 291 -998 662 -1298
1113 -549 823 -678 1920 -393 3330 l42 210 108 7 c411 25 861 130 1252 293
250 103 589 296 794 452 24 18 47 33 52 33 4 0 59 -37 123 -82z m31 -430 c453
-278 963 -467 1502 -558 68 -11 156 -24 195 -28 l73 -7 17 -87 c103 -527 139
-1102 97 -1543 -12 -126 -45 -352 -60 -407 l-10 -38 -202 0 c-893 0 -1364
-196 -1599 -665 -72 -143 -132 -355 -160 -565 l-12 -95 -8 70 c-26 234 -88
458 -171 620 -232 447 -696 635 -1573 635 l-212 0 -11 50 c-18 83 -49 300 -56
385 -3 44 -8 96 -11 116 l-5 36 303 6 c414 8 656 42 892 124 315 109 522 284
663 559 84 163 136 344 172 594 l17 124 12 -99 c80 -649 348 -1017 863 -1186
239 -78 464 -108 872 -116 259 -5 297 -4 297 9 0 13 -42 16 -292 21 -311 6
-475 22 -666 62 -300 63 -505 165 -673 334 -170 172 -272 380 -334 687 -49
238 -74 611 -60 893 l7 152 22 -14 c11 -8 62 -39 111 -69z m-182 -10 c17 -211
1 -579 -34 -818 -88 -605 -346 -946 -834 -1103 -237 -76 -460 -106 -862 -114
l-293 -6 0 249 c0 348 28 649 96 1036 32 187 29 178 70 178 49 0 271 35 418
66 460 97 905 272 1291 508 61 37 114 72 120 77 18 18 22 8 28 -73z m-1378
-2698 c664 -54 1019 -244 1211 -648 73 -152 129 -384 156 -632 13 -129 19
-782 7 -795 -14 -13 -316 127 -514 238 -454 255 -830 604 -1073 993 -140 224
-281 570 -336 822 l-8 32 219 0 c120 0 272 -5 338 -10z m3360 -27 c-15 -82
-78 -278 -130 -409 -227 -566 -611 -999 -1207 -1360 -163 -99 -583 -302 -597
-288 -12 11 -6 658 7 774 40 352 111 591 231 777 197 304 540 475 1051 522 63
6 131 13 150 14 19 2 140 5 269 5 l233 2 -7 -37z m-4313 -1535 c25 -26 37 -47
33 -57 -5 -12 -3 -13 6 -4 9 9 18 4 38 -20 14 -17 25 -38 23 -48 -2 -9 2 -21
9 -25 8 -4 9 -3 5 4 -4 7 -5 16 -2 21 4 5 39 -23 79 -62 39 -39 75 -70 79 -69
4 1 15 -8 25 -21 10 -12 35 -34 55 -50 24 -17 35 -33 31 -42 -3 -10 -1 -13 9
-10 7 3 22 -2 33 -11 11 -8 15 -13 8 -10 -11 6 -12 -18 -1 -30 4 -3 4 -12 1
-20 -3 -8 0 -14 6 -14 6 0 14 -1 18 -2 3 -2 7 5 9 15 1 9 -4 17 -11 17 -8 0
-17 5 -20 11 -13 20 30 4 56 -21 14 -14 33 -29 42 -35 27 -17 141 -105 163
-125 12 -11 27 -20 33 -20 7 0 9 -4 6 -10 -3 -6 4 -10 16 -10 12 0 20 -2 17
-5 -5 -5 -60 0 -303 26 -140 15 -146 16 -275 33 -284 38 -534 90 -655 136
-108 42 -224 104 -273 145 -34 30 -41 42 -44 81 -3 43 -1 48 35 81 75 67 261
129 502 167 55 8 111 17 125 19 69 11 82 8 122 -35z m-599 -506 c142 -69 224
-95 432 -136 673 -133 1625 -196 2770 -183 698 8 1136 29 1729 82 643 58 1199
188 1337 312 l39 35 0 -39 c0 -54 -24 -82 -107 -126 -182 -96 -670 -205 -1118
-251 -337 -35 -1006 -79 -1128 -75 -34 1 -181 -3 -327 -9 -341 -14 -1022 -14
-1355 0 -143 6 -284 10 -313 9 -136 -5 -792 50 -1121 95 -469 63 -661 111
-870 219 -112 58 -150 96 -157 159 l-6 47 46 -45 c29 -28 84 -63 149 -94z
m4827 64 c0 -2 -8 -10 -17 -17 -16 -13 -17 -12 -4 4 13 16 21 21 21 13z m-155
-154 c-3 -3 -11 0 -18 7 -9 10 -8 11 6 5 10 -3 15 -9 12 -12z m-3455 -457 l0
-123 75 -7 c64 -6 75 -10 75 -26 0 -16 -6 -19 -37 -14 -21 2 -64 7 -95 10
l-58 6 0 144 c0 138 1 143 20 138 19 -5 20 -14 20 -128z m840 -75 c0 -135 -1
-140 -21 -140 -13 0 -18 4 -13 13 6 8 3 8 -9 -2 -9 -7 -33 -13 -54 -13 -55 0
-93 45 -93 111 0 39 5 53 26 75 28 28 70 34 105 16 17 -10 19 -7 19 35 0 38 3
45 20 45 19 0 20 -7 20 -140z m95 115 c0 -11 -8 -21 -17 -23 -14 -3 -18 3 -18
23 0 20 4 26 18 23 9 -2 17 -12 17 -23z m2055 -121 c0 -133 -1 -145 -17 -142
-16 3 -18 19 -20 146 -1 134 0 142 18 142 18 0 19 -9 19 -146z m-700 26 c5 0
12 5 15 10 11 18 81 12 99 -9 24 -27 28 -184 5 -189 -14 -3 -17 9 -21 78 -3
85 -11 100 -55 100 -36 0 -53 -36 -53 -112 0 -61 -2 -68 -20 -68 -19 0 -20 7
-20 139 0 125 2 140 18 143 14 3 18 -5 20 -44 2 -27 7 -48 12 -48z m-482 68
c3 -15 -5 -18 -52 -18 l-56 0 0 -126 c0 -114 -2 -125 -17 -122 -16 3 -18 18
-21 126 l-3 122 -49 0 c-44 0 -50 3 -50 20 0 20 5 20 122 18 108 -3 123 -5
126 -20z m1846 -115 c-55 -141 -70 -163 -111 -163 -32 0 -29 23 5 36 44 17 44
42 1 144 -22 51 -39 97 -39 102 0 4 8 8 19 8 14 0 25 -19 48 -81 l29 -82 24
64 c12 35 26 74 31 87 5 12 17 22 28 22 17 0 14 -13 -35 -137z m-3309 105 c16
-14 28 -38 32 -62 l6 -39 -81 7 c-89 8 -97 3 -66 -42 18 -26 75 -30 94 -7 12
15 50 21 50 8 0 -4 -10 -17 -22 -30 -40 -43 -147 -22 -168 33 -20 52 -2 134
32 147 35 14 98 6 123 -15z m204 2 c43 0 55 -24 60 -119 5 -81 4 -91 -11 -91
-9 0 -19 4 -23 9 -3 6 -17 6 -36 -1 -32 -11 -84 -5 -106 13 -19 16 -16 63 5
82 9 8 43 18 75 22 59 8 71 21 41 45 -22 19 -72 16 -88 -5 -8 -11 -19 -16 -30
-12 -40 16 39 74 82 61 8 -2 21 -4 31 -4z m2869 -2 c9 -9 12 -9 12 0 0 7 9 12
20 12 19 0 20 -7 20 -116 0 -114 0 -116 -29 -145 -28 -28 -48 -34 -101 -29
-29 2 -60 27 -60 47 0 18 25 17 40 -2 16 -20 74 -19 94 1 9 8 16 27 16 41 0
25 -1 25 -18 10 -10 -10 -32 -17 -48 -17 -91 0 -123 130 -47 190 28 22 82 27
101 8z m-203 -33 c20 -19 25 -34 25 -75 0 -44 -5 -56 -29 -81 -24 -24 -38 -29
-76 -29 -66 0 -95 31 -95 100 0 44 5 56 29 81 40 39 109 41 146 4z m-2277 -93
c3 -97 2 -102 -18 -102 -19 0 -20 6 -20 106 0 95 2 105 18 102 15 -3 17 -17
20 -106z m215 81 c14 -13 17 -33 17 -105 0 -80 -2 -89 -17 -86 -15 3 -19 18
-23 88 l-5 85 -35 3 c-47 5 -60 -16 -60 -100 0 -61 -2 -68 -20 -68 -19 0 -20
7 -20 100 0 93 1 100 20 100 11 0 20 -4 20 -9 0 -6 12 -3 28 5 30 16 68 11 95
-13z m1702 13 c41 -18 55 -42 55 -98 -1 -83 -77 -132 -153 -97 -47 22 -66 99
-38 153 13 24 63 55 89 56 7 0 28 -6 47 -14z m-232 -7 c34 -18 37 -28 37 -116
0 -76 -2 -83 -20 -83 -18 0 -20 7 -20 80 0 68 -3 81 -19 90 -24 12 -66 -1 -75
-25 -3 -9 -6 -48 -6 -86 0 -62 -2 -69 -20 -69 -19 0 -20 7 -20 105 0 98 1 105
20 105 11 0 20 -4 20 -9 0 -6 12 -3 28 5 33 17 47 17 75 3z m-1264 -11 c11
-10 14 -10 18 0 3 6 11 12 19 12 11 0 14 -23 14 -119 0 -150 -9 -166 -95 -166
-48 0 -60 4 -76 24 -10 13 -19 27 -19 32 0 16 26 9 45 -11 33 -37 105 -19 105
25 0 22 -2 24 -26 14 -34 -12 -88 4 -109 34 -8 12 -15 43 -15 70 0 63 31 97
88 97 21 0 44 -6 51 -12z m590 -25 c18 -17 31 -40 33 -58 l3 -30 -82 -3 c-46
-2 -83 -6 -83 -10 0 -4 7 -18 16 -30 20 -29 78 -31 96 -2 15 23 48 27 48 6 0
-27 -50 -56 -97 -56 -36 0 -50 6 -75 30 -28 28 -30 35 -26 82 4 40 12 57 32
75 39 33 97 31 135 -4z m241 0 c19 -24 19 -28 5 -36 -12 -7 -21 -3 -31 12 -18
25 -60 28 -86 4 -25 -23 -25 -94 1 -117 26 -24 73 -17 86 12 11 25 45 30 45 7
0 -32 -47 -65 -90 -65 -61 0 -100 41 -100 105 0 38 5 52 29 76 24 23 38 29 75
29 36 0 48 -5 66 -27z m1568 -65 c-4 -31 -48 -39 -48 -9 0 17 12 25 43 30 5 0
7 -9 5 -21z m-4064 -134 c13 -5 16 -26 16 -129 l0 -124 71 -7 c46 -4 73 -12
76 -21 3 -8 3 -16 0 -19 -3 -3 -47 1 -98 8 l-94 13 -2 135 c-2 153 -1 156 31
144z m3594 -226 c-3 -127 -5 -143 -20 -146 -17 -3 -18 9 -18 142 0 140 1 146
20 146 20 0 20 -5 18 -142z m703 110 c-5 -13 -28 -72 -50 -133 -42 -111 -77
-159 -110 -153 -8 2 -17 11 -19 21 -3 13 3 17 23 17 18 0 28 7 35 25 8 20 2
43 -30 117 -22 50 -40 95 -40 100 0 4 9 8 19 8 15 0 26 -18 50 -77 27 -71 30
-76 39 -53 51 142 55 150 73 150 15 0 17 -4 10 -22z m-3954 -18 c29 -17 60
-81 48 -100 -2 -3 -38 -2 -80 3 -42 4 -79 6 -81 4 -10 -10 20 -55 42 -66 26
-11 74 0 74 19 0 5 9 10 20 10 26 0 26 -22 0 -45 -27 -24 -94 -23 -128 2 -39
29 -54 62 -48 108 9 76 84 108 153 65z m1193 0 c0 -13 -7 -20 -20 -20 -13 0
-20 7 -20 20 0 13 7 20 20 20 13 0 20 -7 20 -20z m1350 -35 c0 -42 2 -45 19
-35 31 16 79 12 101 -10 17 -17 20 -33 20 -105 0 -78 -2 -85 -20 -85 -18 0
-20 7 -20 78 0 82 -9 102 -44 102 -41 0 -56 -28 -56 -107 0 -66 -2 -73 -20
-73 -19 0 -20 7 -20 140 0 133 1 140 20 140 17 0 20 -7 20 -45z m1123 34 c16
-9 22 -9 25 0 2 6 10 11 18 11 11 0 14 -22 14 -110 0 -60 -5 -120 -11 -134
-14 -30 -65 -56 -108 -56 -30 0 -71 29 -71 50 0 15 36 12 50 -5 28 -34 100 -1
100 45 0 17 -3 19 -19 10 -11 -5 -35 -10 -54 -10 -97 0 -110 149 -16 197 30
16 45 16 72 2z m-3527 -69 c14 -36 27 -72 30 -80 3 -9 18 17 35 63 24 60 35
77 50 77 24 0 23 -1 -24 -115 -26 -61 -39 -81 -55 -83 -12 -2 -22 -1 -22 2 0
2 -18 50 -39 106 -37 95 -39 101 -19 98 15 -2 27 -20 44 -68z m1924 49 c0 -18
-5 -20 -47 -18 l-48 3 -3 -127 c-2 -118 -4 -127 -22 -127 -18 0 -20 9 -22 127
l-3 127 -47 -3 c-43 -2 -48 0 -48 18 0 20 5 21 120 21 115 0 120 -1 120 -21z
m-1592 -34 c12 -15 22 -39 22 -56 l0 -30 -80 7 c-70 6 -80 5 -80 -10 0 -47 88
-77 110 -37 6 13 17 17 30 14 27 -7 25 -17 -6 -42 -48 -38 -133 -22 -160 30
-18 37 -18 99 1 127 33 47 120 45 163 -3z m3001 9 c46 -44 24 -152 -35 -174
-83 -32 -144 11 -144 99 0 93 112 140 179 75z m-2899 -1 c1 -17 1 -17 14 0 14
18 42 22 63 9 18 -12 1 -30 -32 -34 l-30 -3 -5 -80 c-4 -66 -8 -80 -22 -83
-16 -3 -18 7 -18 102 0 88 3 106 15 106 8 0 15 -8 15 -17z m255 -5 c14 -6 27
-21 30 -32 8 -38 11 -176 3 -176 -3 0 -14 7 -22 15 -12 12 -20 13 -35 5 -30
-15 -92 -12 -113 7 -22 19 -24 66 -4 83 8 6 40 15 70 19 64 9 74 15 60 39 -16
26 -74 28 -93 4 -11 -14 -22 -18 -36 -13 -18 7 -18 9 7 34 30 30 87 36 133 15z
m2319 -19 c39 -46 36 -101 -8 -145 -27 -27 -42 -34 -74 -34 -53 0 -91 32 -99
82 -12 77 33 127 114 128 34 0 46 -5 67 -31z m-2071 11 l29 0 -4 -121 c-3
-113 -5 -122 -27 -140 -33 -27 -114 -26 -141 1 -11 11 -20 25 -20 30 0 16 37
12 44 -5 3 -10 19 -15 45 -15 41 0 61 18 61 55 0 12 -4 14 -19 5 -32 -17 -68
-11 -99 15 -37 31 -48 73 -32 120 16 49 45 67 95 61 22 -3 53 -6 68 -6z m1827
-10 c17 -17 20 -33 20 -105 0 -78 -2 -85 -20 -85 -18 0 -20 7 -20 78 0 83 -9
102 -46 102 -41 0 -54 -25 -54 -106 0 -67 -2 -74 -20 -74 -19 0 -20 7 -20 100
0 82 3 100 15 100 8 0 15 -5 15 -11 0 -5 10 -3 22 5 31 22 84 20 108 -4z
m-1710 -96 c0 -95 -2 -105 -17 -102 -16 3 -18 17 -21 106 -3 97 -2 102 18 102
19 0 20 -6 20 -106z m90 92 c0 -13 4 -13 28 0 38 19 65 18 96 -7 25 -19 26
-25 26 -110 0 -49 -2 -89 -4 -89 -30 0 -36 16 -36 91 0 75 -1 80 -25 91 -19 9
-29 8 -50 -6 -23 -15 -25 -22 -25 -91 0 -68 -2 -75 -20 -75 -19 0 -20 7 -20
105 0 87 3 105 15 105 8 0 15 -6 15 -14z m1163 -14 c9 -8 17 -21 17 -27 0 -23
-28 -24 -42 -3 -17 26 -66 27 -85 2 -18 -25 -17 -99 3 -118 28 -28 94 -11 94
25 0 5 9 9 20 9 28 0 25 -17 -9 -51 -39 -38 -87 -39 -130 -3 -27 23 -31 32
-31 78 0 30 6 61 15 74 29 40 108 48 148 14z m-835 2 c12 -8 22 -10 22 -5 0 6
9 11 20 11 19 0 20 -7 20 -104 0 -127 -8 -152 -56 -172 -55 -23 -134 2 -134
43 0 19 27 16 50 -7 11 -11 28 -20 38 -20 30 0 62 29 62 58 0 20 -3 23 -12 14
-21 -21 -86 -15 -113 12 -81 82 11 235 103 170z m603 -13 c19 -19 29 -40 29
-59 l0 -29 -77 -2 c-42 -1 -79 -4 -81 -6 -11 -11 13 -46 36 -52 37 -10 54 -5
73 19 11 14 22 19 34 14 16 -6 16 -8 3 -29 -32 -48 -133 -52 -170 -6 -12 14
-18 38 -18 71 0 41 5 54 29 79 41 41 101 41 142 0z m1799 -41 c0 -13 -7 -20
-19 -20 -22 0 -35 15 -26 30 12 19 45 11 45 -10z"/>
<path d="M6008 5899 c23 -12 52 -34 63 -51 26 -35 38 -30 14 6 -20 30 -75 66
-101 66 -11 0 -1 -9 24 -21z"/>
<path d="M5976 5872 c23 -11 53 -33 69 -48 18 -19 24 -22 17 -9 -18 35 -57 64
-92 71 l-35 5 41 -19z"/>
<path d="M5950 5841 c34 -8 53 -22 73 -51 21 -30 22 -19 2 19 -16 32 -34 42
-73 40 l-27 -1 25 -7z"/>
<path d="M5943 5803 c-7 -2 -13 -10 -13 -16 0 -7 -87 -34 -210 -66 -116 -30
-213 -58 -216 -62 -12 -20 27 -14 202 31 104 28 192 49 196 47 4 -1 -45 -71
-108 -156 -74 -97 -112 -157 -106 -163 6 -6 51 47 123 146 63 85 117 155 122
155 4 1 7 -61 7 -136 0 -165 9 -273 23 -273 6 0 8 76 5 220 -5 191 -4 220 9
220 11 0 14 7 9 23 -3 12 -6 25 -6 30 0 8 -18 8 -37 0z"/>
<path d="M4871 5664 c-56 -74 -104 -141 -107 -148 -3 -8 77 -74 210 -174 l215
-161 28 35 28 35 42 -32 42 -32 -20 -28 c-23 -33 -24 -62 -4 -79 13 -11 13
-15 2 -29 -28 -33 -26 -39 32 -85 33 -25 62 -46 66 -46 4 0 16 11 27 25 16 20
23 23 34 15 18 -16 49 -4 73 26 22 27 25 27 78 -15 l31 -25 -24 -31 c-13 -18
-24 -34 -24 -38 0 -7 431 -330 434 -325 2 1 51 68 111 147 90 120 105 146 93
155 -8 6 -96 72 -196 146 l-182 135 48 3 c102 5 133 27 131 95 l-1 42 -8 -38
c-9 -47 -18 -56 -63 -66 -118 -27 -338 84 -486 246 -119 129 -146 244 -67 279
28 12 28 13 8 14 -13 0 -37 -13 -53 -29 -35 -35 -38 -76 -9 -139 11 -23 14
-40 8 -36 -6 4 -93 69 -192 144 -100 75 -186 139 -192 143 -7 4 -51 -46 -113
-129z m161 40 c42 -30 48 -56 19 -91 -25 -30 -51 -31 -87 -6 -45 32 -49 59
-14 94 16 16 32 29 36 29 4 0 25 -12 46 -26z m134 -100 c20 -16 34 -35 34 -48
0 -28 -24 -62 -49 -69 -27 -7 -91 40 -91 67 1 31 32 66 68 75 2 1 19 -11 38
-25z m-201 -58 c14 -23 -6 -69 -38 -84 -24 -12 -30 -11 -62 14 -36 27 -43 51
-24 85 17 33 50 40 84 18 17 -10 34 -25 40 -33z m339 -50 c20 -18 36 -38 36
-43 0 -18 -39 -60 -59 -66 -24 -6 -91 47 -91 71 1 28 41 68 72 71 4 1 23 -14
42 -33z m-239 -21 c18 -14 35 -35 38 -45 6 -23 -24 -65 -52 -73 -27 -7 -91 40
-91 67 1 31 32 66 68 75 2 1 18 -10 37 -24z m372 -59 l32 -44 -45 -61 -46 -61
-44 32 -44 31 31 41 c17 23 41 56 52 73 12 18 24 33 27 32 3 0 19 -19 37 -43z
m-201 -83 c7 -26 -22 -69 -50 -77 -22 -6 -71 25 -87 55 -13 25 10 66 44 78 27
10 85 -24 93 -56z m517 -154 c23 -12 43 -23 45 -24 2 -2 -20 -35 -49 -74 -57
-75 -55 -75 -113 -27 l-29 24 47 61 c26 34 49 61 52 61 3 0 24 -10 47 -21z
m130 -113 c31 -23 34 -52 9 -82 -28 -35 -50 -36 -88 -8 -47 36 -42 94 9 113
24 9 27 8 70 -23z m122 -91 c39 -31 48 -56 28 -84 -28 -41 -51 -45 -94 -15
-25 17 -39 34 -39 48 1 31 32 66 68 75 2 1 18 -10 37 -24z m-229 -31 c43 -33
46 -73 8 -103 -15 -12 -31 -21 -36 -21 -21 0 -78 54 -78 74 1 31 32 66 68 75
2 1 19 -11 38 -25z m382 -88 c26 -23 28 -44 4 -71 -27 -33 -51 -37 -83 -14
-45 32 -53 54 -33 89 28 46 56 45 112 -4z m-217 -53 c11 -28 -13 -68 -46 -77
-25 -7 -84 32 -91 61 -7 26 23 70 51 75 26 5 74 -28 86 -59z m139 -109 c0 -23
-42 -74 -60 -74 -20 0 -71 41 -79 64 -10 25 13 64 43 76 28 10 95 -36 96 -66z"/>
<path d="M4850 4480 l0 -160 -490 0 -490 0 0 -285 0 -285 125 0 125 0 0 260 0
260 40 0 40 0 0 -260 0 -260 125 0 125 0 0 260 0 260 35 0 35 0 0 -260 0 -260
125 0 125 0 0 260 0 260 40 0 40 0 0 -162 0 -163 123 -97 122 -98 3 260 2 260
120 0 120 0 0 25 0 25 -120 0 -120 0 0 160 0 160 -125 0 -125 0 0 -160z m67
144 c-3 -3 -12 -4 -19 -1 -8 3 -5 6 6 6 11 1 17 -2 13 -5z m130 -1 c-20 -2
-52 -2 -70 0 -17 2 0 4 38 4 39 0 53 -2 32 -4z"/>
<path d="M3932 4600 c-40 -25 -66 -81 -58 -126 14 -74 88 -118 160 -94 20 6
34 16 31 21 -4 5 0 6 7 4 20 -8 48 47 48 92 -1 99 -103 155 -188 103z m53
-180 c3 -5 2 -10 -4 -10 -5 0 -13 5 -16 10 -3 6 -2 10 4 10 5 0 13 -4 16 -10z
m55 -21 c12 -9 12 -10 -4 -5 -10 4 -26 1 -35 -6 -14 -12 -14 -11 -2 5 16 20
21 21 41 6z"/>
<path d="M4274 4610 c-11 -4 -33 -23 -48 -41 -24 -29 -28 -39 -24 -81 11 -109
133 -155 209 -79 93 94 -13 251 -137 201z m-41 -65 c-3 -9 -8 -14 -10 -11 -3
3 -2 9 2 15 9 16 15 13 8 -4z m182 -115 c-3 -5 -11 -10 -16 -10 -6 0 -7 5 -4
10 3 6 11 10 16 10 6 0 7 -4 4 -10z m-51 -31 c-8 -14 -21 -11 -21 5 0 8 6 12
14 9 7 -3 10 -9 7 -14z"/>
<path d="M4602 4613 c-6 -2 -9 -10 -6 -15 5 -7 2 -8 -5 -4 -17 11 -48 -20 -61
-60 -24 -71 22 -146 96 -160 36 -7 98 12 88 27 -3 5 3 6 12 2 14 -5 16 -3 11
11 -4 10 -3 15 3 11 28 -17 41 98 14 131 -14 17 -15 17 -10 1 4 -11 2 -16 -5
-12 -5 4 -7 15 -4 25 10 31 -85 62 -133 43z m23 -193 c3 -6 -1 -7 -9 -4 -18 7
-21 14 -7 14 6 0 13 -4 16 -10z"/>
<path d="M3386 4330 c-30 -123 -25 -117 -93 -109 -123 15 -125 14 -36 -41 l82
-50 -35 -74 c-19 -41 -34 -77 -34 -81 0 -3 32 20 70 51 79 64 69 64 153 -15
26 -25 47 -40 47 -34 0 5 -13 43 -30 83 -16 40 -30 76 -30 79 0 3 24 19 53 35
103 57 103 59 0 53 l-91 -4 -19 91 -19 91 -18 -75z"/>
<path d="M5713 4345 c-6 -27 -14 -66 -18 -86 l-7 -36 -96 4 -97 5 40 -22 c35
-19 104 -60 113 -66 2 -1 -12 -40 -31 -88 -19 -47 -32 -86 -29 -86 3 0 31 25
63 55 32 30 61 55 66 55 4 0 37 -25 73 -55 36 -29 66 -52 68 -51 1 2 -13 37
-32 79 l-35 75 27 18 c15 10 52 33 82 52 l55 34 -80 -7 c-44 -4 -84 -8 -90 -8
-9 -2 -20 26 -48 128 l-13 50 -11 -50z"/>
<path d="M2846 4263 c-20 -69 -9 -64 -108 -48 -37 6 -35 3 30 -38 l50 -32 -24
-49 c-13 -28 -24 -52 -24 -54 0 -2 20 12 44 32 24 20 48 36 53 36 5 0 24 -16
43 -35 19 -19 37 -35 41 -35 4 0 -3 26 -16 57 l-23 58 49 28 c27 16 49 30 49
31 0 2 -28 2 -62 2 l-62 -1 -11 55 -11 55 -18 -62z"/>
<path d="M6256 4285 c-15 -81 -12 -78 -77 -72 -32 3 -59 4 -59 2 0 -2 22 -16
49 -32 l49 -28 -23 -58 -24 -57 45 36 c48 40 42 41 116 -16 l27 -21 -23 54
-24 54 54 33 c30 18 54 34 54 36 0 2 -13 1 -30 -1 -98 -16 -87 -21 -107 48
l-19 62 -8 -40z"/>
<path d="M3365 5723 c-24 -14 -61 -17 -180 -18 -162 -1 -200 -9 -326 -67 l-67
-30 5 -39 c5 -37 4 -39 -21 -39 -14 0 -26 -2 -26 -4 0 -2 61 -129 136 -282 75
-154 174 -357 220 -452 l84 -174 35 67 c115 217 268 376 486 509 l76 46 39
-22 c36 -19 42 -20 69 -7 20 9 34 27 41 49 9 28 20 38 50 48 48 17 124 9 197
-18 72 -28 76 -25 33 19 l-38 39 21 41 c12 22 17 41 11 41 -5 0 -146 61 -312
136 -167 75 -327 145 -355 155 -64 23 -138 24 -178 2z m355 -96 c107 -49 243
-109 302 -135 59 -26 108 -49 108 -52 0 -3 -31 -6 -68 -7 -79 -2 -143 -23
-193 -62 l-35 -29 -241 172 c-133 94 -242 174 -242 177 -2 16 51 28 109 26 57
-2 88 -13 260 -90z m-156 -112 l238 -170 -103 -7 c-191 -12 -317 -65 -432
-182 -64 -64 -69 -67 -82 -50 -7 11 -95 125 -194 254 l-181 235 68 33 c101 48
176 62 323 59 l126 -3 237 -169z"/>
<path d="M3580 3104 c0 -357 0 -364 20 -364 20 0 20 7 20 359 0 350 0 359 -20
364 -20 5 -20 0 -20 -359z"/>
<path d="M3634 3457 c-2 -7 -3 -170 -2 -362 3 -328 4 -350 21 -350 16 0 18 22
18 359 0 321 -2 360 -16 362 -9 1 -18 -3 -21 -9z"/>
<path d="M3455 3375 l-100 -85 -72 0 -73 0 0 -185 0 -185 73 0 73 0 102 -85
c55 -47 102 -85 104 -85 2 0 3 160 3 355 0 195 -2 355 -5 354 -3 0 -50 -38
-105 -84z"/>
<path d="M3728 3429 c-13 -7 -18 -23 -18 -58 0 -55 20 -82 48 -64 31 19 25
134 -7 133 -3 0 -14 -5 -23 -11z m32 -60 c0 -36 -4 -49 -12 -47 -14 5 -23 61
-14 84 12 31 26 11 26 -37z"/>
<path d="M3805 3431 c-3 -6 1 -11 9 -11 13 0 16 -12 16 -60 0 -35 4 -60 10
-60 7 0 10 25 8 67 -2 54 -6 68 -20 71 -9 2 -19 -2 -23 -7z"/>
<path d="M3896 3427 c-23 -17 -19 -105 6 -120 28 -18 48 9 48 64 0 55 -23 79
-54 56z m32 -60 c2 -37 0 -47 -12 -47 -12 0 -16 12 -16 51 0 66 24 62 28 -4z"/>
<path d="M4051 3426 c-18 -21 -10 -107 11 -119 28 -18 48 9 48 64 0 38 -4 51
-19 59 -25 13 -26 13 -40 -4z m34 -56 c0 -26 -5 -45 -12 -47 -9 -3 -13 10 -13
47 0 37 4 50 13 48 7 -3 12 -22 12 -48z"/>
<path d="M3910 3260 c-12 -8 -12 -10 3 -16 15 -5 18 -16 16 -58 -2 -28 1 -50
5 -48 11 3 11 111 0 122 -5 5 -15 5 -24 0z"/>
<path d="M3975 3260 c-3 -5 1 -13 9 -16 12 -5 16 -20 16 -60 0 -31 4 -54 10
-54 7 0 10 25 8 67 -2 54 -6 68 -20 71 -9 2 -19 -2 -23 -8z"/>
<path d="M3814 3246 c-3 -7 -4 -35 -2 -62 2 -39 7 -50 22 -52 11 -3 26 4 33
14 16 22 17 86 1 102 -16 16 -47 15 -54 -2z m44 -52 c-2 -27 -8 -39 -18 -39
-19 0 -26 61 -9 81 18 22 31 2 27 -42z"/>
<path d="M4080 3241 c-23 -44 -5 -111 30 -111 23 0 40 28 40 65 0 37 -17 65
-40 65 -11 0 -24 -9 -30 -19z m48 -45 c-4 -52 -31 -58 -36 -8 -4 45 3 63 23
56 12 -5 15 -17 13 -48z"/>
<path d="M4177 3254 c-14 -14 -7 -101 9 -115 29 -24 49 1 49 62 0 50 -2 54
-25 57 -14 2 -29 0 -33 -4z m43 -60 c0 -32 -4 -44 -15 -44 -11 0 -15 11 -15
43 0 24 3 47 6 50 14 14 24 -6 24 -49z"/>
<path d="M3722 3078 c-14 -14 -16 -86 -3 -106 4 -8 19 -12 32 -10 22 3 24 7
24 63 0 52 -3 60 -20 63 -11 1 -26 -3 -33 -10z m38 -53 c0 -33 -4 -45 -15 -45
-11 0 -15 12 -15 45 0 33 4 45 15 45 11 0 15 -12 15 -45z"/>
<path d="M3800 3080 c0 -5 7 -10 15 -10 12 0 15 -13 15 -55 0 -30 5 -55 10
-55 6 0 10 28 10 65 0 63 -1 65 -25 65 -14 0 -25 -4 -25 -10z"/>
<path d="M3887 3083 c-4 -3 -7 -30 -7 -60 0 -57 17 -76 49 -56 20 12 27 89 10
109 -12 15 -41 19 -52 7z m43 -59 c0 -38 -3 -45 -17 -42 -32 6 -30 88 2 88 11
0 15 -11 15 -46z"/>
<path d="M4010 3081 c0 -6 7 -11 15 -11 12 0 15 -13 15 -57 0 -73 8 -65 11 12
3 55 1 60 -19 63 -12 2 -22 -1 -22 -7z"/>
<path d="M4092 3078 c-17 -17 -15 -93 3 -108 8 -6 22 -10 32 -8 15 3 18 13 18
63 0 52 -3 60 -20 63 -11 1 -26 -3 -33 -10z m38 -53 c0 -33 -4 -45 -15 -45
-11 0 -15 12 -15 45 0 33 4 45 15 45 11 0 15 -12 15 -45z"/>
<path d="M4180 3071 c-23 -44 -5 -111 30 -111 23 0 40 28 40 65 0 37 -17 65
-40 65 -11 0 -24 -9 -30 -19z m45 -47 c0 -28 -4 -39 -15 -39 -16 0 -26 45 -16
72 11 28 31 7 31 -33z"/>
<path d="M4273 3076 c12 -10 17 -27 17 -65 0 -28 5 -51 10 -51 6 0 10 28 10
65 0 64 0 65 -27 65 -25 -1 -26 -2 -10 -14z"/>
<path d="M3782 2908 c-20 -20 -15 -106 6 -117 32 -17 52 5 52 57 0 47 -12 72
-35 72 -6 0 -16 -5 -23 -12z m36 -55 c-2 -27 -7 -48 -13 -48 -5 0 -11 21 -13
48 -3 38 0 47 13 47 13 0 16 -9 13 -47z"/>
<path d="M3860 2910 c0 -5 7 -10 15 -10 12 0 15 -13 15 -61 0 -37 4 -58 10
-54 6 3 10 35 10 71 0 62 -1 64 -25 64 -14 0 -25 -4 -25 -10z"/>
<path d="M3942 2908 c-7 -7 -12 -33 -12 -60 0 -36 4 -50 19 -58 29 -15 51 12
51 64 0 41 -13 66 -35 66 -6 0 -16 -5 -23 -12z m36 -55 c-2 -27 -7 -48 -13
-48 -5 0 -11 21 -13 48 -3 38 0 47 13 47 13 0 16 -9 13 -47z"/>
<path d="M4122 2908 c-20 -20 -15 -106 6 -117 32 -17 52 5 52 57 0 47 -12 72
-35 72 -6 0 -16 -5 -23 -12z m36 -55 c-2 -27 -7 -48 -13 -48 -5 0 -11 21 -13
48 -3 38 0 47 13 47 13 0 16 -9 13 -47z"/>
<path d="M4212 2908 c-20 -20 -15 -106 6 -117 32 -17 52 5 52 57 0 47 -12 72
-35 72 -6 0 -16 -5 -23 -12z m36 -55 c-2 -27 -7 -48 -13 -48 -5 0 -11 21 -13
48 -3 38 0 47 13 47 13 0 16 -9 13 -47z"/>
<path d="M3212 2844 l3 -45 118 -2 c64 -1 117 0 116 3 0 3 -24 24 -54 48 -51
40 -57 42 -120 42 l-66 0 3 -46z"/>
<path d="M3300 2721 c0 -56 -2 -60 -32 -80 l-33 -21 155 0 155 0 -42 26 c-42
25 -43 26 -43 80 l0 54 -80 0 -80 0 0 -59z"/>
<path d="M5269 3477 c-42 -28 -73 -74 -100 -148 -18 -48 -26 -59 -44 -59 -13
0 -30 11 -39 25 -20 30 -59 33 -78 6 -7 -10 -29 -22 -48 -26 -136 -29 -151
-147 -34 -283 l36 -42 -32 -37 c-41 -46 -80 -129 -80 -169 0 -55 65 -114 127
-114 15 0 37 -7 47 -15 27 -20 50 -19 71 5 32 36 60 26 80 -27 68 -178 184
-225 275 -111 23 30 70 131 70 151 0 10 23 12 94 9 55 -3 108 0 128 7 108 36
109 146 2 276 -33 40 -33 43 -16 58 10 10 26 17 34 17 23 0 39 24 37 56 -1 16
3 42 10 57 21 53 14 96 -22 132 -41 41 -101 52 -200 39 l-69 -10 -29 65 c-67
147 -139 192 -220 138z m122 -60 c33 -22 81 -91 94 -134 5 -17 2 -23 -10 -23
-8 0 -43 -11 -77 -25 l-61 -25 -83 26 c-46 15 -84 29 -84 33 0 3 15 33 33 66
56 99 120 128 188 82z m279 -168 c53 -12 87 -40 95 -80 8 -35 -2 -69 -19 -69
-26 0 -49 -38 -43 -69 4 -17 2 -33 -3 -36 -6 -4 -41 17 -78 44 -68 51 -69 52
-80 116 -7 35 -15 71 -18 79 -4 11 3 16 28 19 59 7 72 7 118 -4z m-537 -24
c-2 -11 -6 -46 -9 -78 -7 -56 -9 -59 -70 -109 -35 -28 -64 -56 -64 -61 0 -20
-43 29 -66 75 -33 64 -32 118 3 152 31 31 70 43 86 27 16 -16 52 -14 67 4 19
23 56 15 53 -10z m110 -6 c53 -13 67 -25 38 -34 -10 -3 -46 -23 -80 -45 -69
-45 -70 -43 -50 50 9 40 14 50 27 46 10 -3 38 -10 65 -17z m266 -11 c14 -46
23 -98 18 -98 -3 0 -36 18 -73 40 -38 22 -75 40 -83 40 -23 0 -3 14 47 32 69
24 79 23 91 -14z m-90 -62 c49 -25 96 -52 105 -61 13 -13 16 -39 16 -130 l0
-113 -47 -30 c-27 -17 -73 -43 -103 -58 l-54 -27 -85 43 c-123 63 -121 60
-121 188 0 91 3 111 18 124 15 14 172 108 179 108 2 0 43 -20 92 -44z m202
-134 c29 -27 49 -53 46 -59 -4 -6 -29 -30 -56 -52 l-50 -42 -3 101 c-2 55 0
100 4 100 4 0 30 -22 59 -48z m-511 -57 c0 -108 2 -107 -75 -41 l-40 35 50 51
c27 27 53 50 57 50 4 0 8 -43 8 -95z m628 -75 c22 -38 32 -67 32 -95 0 -80
-52 -115 -171 -115 -63 0 -70 2 -64 17 3 10 9 46 12 81 6 60 7 64 52 96 26 19
55 44 65 55 11 12 24 20 30 18 6 -2 26 -28 44 -57z m-687 -5 l66 -50 15 -78
c13 -70 13 -79 0 -84 -8 -4 -22 3 -31 14 -26 33 -49 35 -76 9 -21 -21 -26 -22
-52 -11 -38 16 -73 61 -73 92 0 40 64 168 80 160 3 -1 35 -24 71 -52z m199
-125 l65 -33 -50 -17 c-101 -34 -93 -35 -104 7 -5 21 -13 54 -16 72 -7 35 -7
35 16 19 13 -8 53 -30 89 -48z m275 3 c-10 -78 -13 -79 -89 -59 -59 16 -87 35
-53 36 6 1 41 18 77 40 35 22 66 37 68 35 2 -2 1 -26 -3 -52z m-100 -74 c39
-13 72 -24 73 -25 8 -5 -37 -92 -63 -123 -42 -49 -86 -65 -128 -47 -39 16 -83
65 -108 121 -17 38 -17 40 -1 47 100 42 139 55 147 53 6 -2 42 -14 80 -26z"/>
<path d="M5277 3049 c-24 -14 -47 -62 -47 -98 0 -20 11 -42 29 -63 25 -28 36
-33 76 -33 40 0 51 5 76 33 40 45 40 98 0 141 -24 26 -37 31 -73 31 -23 0 -51
-5 -61 -11z"/>
<path d="M2065 2288 c21 -12 23 -12 28 -1 1 3 -9 8 -23 9 -23 4 -24 3 -5 -8z"/>
<path d="M2008 2283 c6 -2 18 -2 25 0 6 3 1 5 -13 5 -14 0 -19 -2 -12 -5z"/>
<path d="M1920 2271 c0 -7 -4 -10 -9 -6 -13 7 -151 -17 -151 -27 0 -4 -6 -5
-12 -3 -7 3 -26 0 -43 -5 l-30 -10 30 4 c16 2 38 0 49 -6 13 -7 16 -7 12 1 -4
6 5 13 21 17 15 3 44 10 63 15 46 12 63 11 55 -1 -3 -5 -2 -10 3 -10 11 0 25
30 17 38 -3 3 -5 0 -5 -7z"/>
<path d="M1958 2273 c6 -2 18 -2 25 0 6 3 1 5 -13 5 -14 0 -19 -2 -12 -5z"/>
<path d="M1595 2203 c-27 -8 -53 -20 -56 -25 -4 -6 -11 -8 -16 -5 -13 8 -103
-45 -133 -79 -14 -15 -20 -24 -13 -21 6 4 14 1 17 -5 3 -7 4 -4 3 7 -1 15 4
20 21 19 19 -1 20 1 10 14 -11 13 -10 15 4 9 11 -4 17 -2 15 5 -1 6 4 13 12
16 8 2 11 0 7 -6 -3 -5 1 -13 10 -16 22 -9 31 -7 16 2 -17 11 -4 42 17 42 9 0
34 9 56 20 22 11 48 20 60 20 11 0 27 5 35 10 23 15 -4 12 -65 -7z"/>
<path d="M1500 2139 c0 -5 5 -7 10 -4 6 3 10 8 10 11 0 2 -4 4 -10 4 -5 0 -10
-5 -10 -11z"/>
<path d="M2288 2073 c7 -3 16 -2 19 1 4 3 -2 6 -13 5 -11 0 -14 -3 -6 -6z"/>
<path d="M1411 2058 c-1 -21 15 -32 25 -17 4 7 3 9 -4 5 -6 -3 -13 2 -15 11
-4 16 -5 16 -6 1z"/>
<path d="M2326 2061 c-3 -5 1 -11 9 -14 9 -4 12 -1 8 9 -6 16 -10 17 -17 5z"/>
<path d="M1399 1987 c19 -20 36 -37 38 -37 10 0 -14 29 -40 49 l-32 25 34 -37z"/>
<path d="M1404 2012 c4 -3 14 -7 22 -8 9 -1 13 0 10 4 -4 3 -14 7 -22 8 -9 1
-13 0 -10 -4z"/>
<path d="M2407 1993 c-13 -12 -7 -22 12 -20 15 1 17 4 9 14 -12 15 -13 15 -21
6z"/>
<path d="M1468 1929 c9 -10 17 -19 17 -19 0 0 1 8 2 18 1 11 -6 18 -17 19 -17
2 -18 0 -2 -18z"/>
<path d="M1523 1923 c-10 -10 -17 -17 -14 -16 2 2 11 -3 20 -9 13 -10 14 -10
4 2 -10 11 -9 16 5 26 9 8 14 14 11 14 -4 0 -15 -8 -26 -17z"/>
<path d="M1566 1925 c-11 -8 -16 -15 -10 -15 5 0 18 7 28 15 11 8 16 15 10 15
-5 0 -18 -7 -28 -15z"/>
<path d="M2496 1915 c5 -13 4 -16 -4 -11 -18 11 -14 0 5 -15 9 -8 14 -9 10 -2
-4 6 -2 13 4 15 7 2 5 9 -5 17 -14 12 -16 12 -10 -4z"/>
<path d="M1561 1891 c-8 -5 -9 -11 -3 -15 5 -3 12 1 16 9 6 17 6 18 -13 6z"/>
<path d="M1594 1858 c10 -6 22 -6 26 -2 5 5 -3 10 -18 11 -22 1 -24 0 -8 -9z"/>
<path d="M1681 1856 c-6 -8 -22 -12 -34 -9 -40 8 42 -26 111 -46 122 -36 452
-102 498 -100 31 2 -11 11 -108 25 -27 4 -48 11 -48 16 0 5 -10 8 -22 6 -38
-4 -119 12 -112 23 3 6 13 8 23 4 13 -5 14 -4 4 6 -10 10 -16 10 -25 1 -13
-13 -58 -17 -58 -4 0 4 -12 8 -27 8 -31 1 -65 9 -103 23 -33 13 -83 25 -92 23
-13 -3 -9 16 5 21 6 2 9 7 6 11 -3 4 -11 0 -18 -8z"/>
<path d="M1741 1836 c2 -2 18 -6 34 -10 22 -5 26 -4 15 4 -14 9 -59 15 -49 6z"/>
<path d="M2108 1778 c5 -5 16 -8 23 -6 8 3 3 7 -10 11 -17 4 -21 3 -13 -5z"/>
<path d="M2640 1776 c0 -2 7 -9 15 -16 13 -11 14 -10 9 4 -5 14 -24 23 -24 12z"/>
<path d="M2684 1751 c4 -5 1 -11 -5 -13 -6 -2 0 -9 14 -15 19 -9 25 -9 23 0
-3 19 -16 37 -27 37 -6 0 -8 -4 -5 -9z"/>
<path d="M2647 1719 c7 -7 15 -10 18 -7 3 3 -2 9 -12 12 -14 6 -15 5 -6 -5z"/>
<path d="M2298 1693 c6 -2 18 -2 25 0 6 3 1 5 -13 5 -14 0 -19 -2 -12 -5z"/>
<path d="M2348 1683 c6 -2 18 -2 25 0 6 3 1 5 -13 5 -14 0 -19 -2 -12 -5z"/>
<path d="M2540 1666 c4 -4 16 -4 26 2 16 9 14 10 -8 9 -15 -1 -23 -6 -18 -11z"/>
<path d="M2797 1666 c-4 -10 -1 -13 9 -9 7 3 14 2 14 -1 0 -4 -10 -10 -22 -15
-19 -7 -17 -9 15 -9 l39 0 -23 24 c-27 28 -25 28 -32 10z"/>
<path d="M2630 1660 c-9 -6 -10 -10 -3 -10 6 0 15 5 18 10 8 12 4 12 -15 0z"/>
<path d="M2730 1650 c-13 -8 -13 -10 2 -10 9 0 20 5 23 10 8 13 -5 13 -25 0z"/>
<path d="M3466 1164 c-22 -22 -21 -97 2 -116 28 -24 48 -28 71 -12 28 20 30
103 3 127 -23 21 -56 22 -76 1z"/>
<path d="M2996 1194 c-22 -22 -20 -34 7 -34 12 0 39 -3 60 -6 29 -5 37 -3 37
8 0 41 -73 63 -104 32z"/>
<path d="M3250 1101 c-28 -8 -39 -39 -18 -52 37 -24 98 4 98 44 0 18 -32 21
-80 8z"/>
<path d="M6094 1179 c-22 -24 -25 -89 -5 -113 18 -21 64 -20 84 2 23 26 22 94
-1 115 -25 23 -55 21 -78 -4z"/>
<path d="M5857 1162 c-22 -24 -22 -95 -1 -116 22 -22 67 -20 90 5 25 28 25 96
-1 115 -26 20 -69 17 -88 -4z"/>
<path d="M5544 1160 c-25 -10 -48 -68 -38 -96 30 -83 124 -65 124 24 0 60 -38
91 -86 72z"/>
<path d="M4030 1135 c-21 -25 -14 -97 11 -117 27 -23 41 -23 68 0 25 20 31 75
12 110 -14 26 -71 31 -91 7z"/>
<path d="M4596 1118 c-22 -31 -12 -38 50 -38 47 0 54 3 54 20 0 41 -78 55
-104 18z"/>
<path d="M2695 778 c-15 -22 -15 -23 22 -30 82 -15 106 -2 65 35 -27 24 -68
21 -87 -5z"/>
<path d="M6398 780 c-9 -6 -22 -26 -28 -45 -16 -47 4 -89 43 -93 42 -5 67 22
67 73 0 61 -38 90 -82 65z"/>
<path d="M3159 756 c-13 -6 -25 -19 -27 -27 -2 -13 9 -17 55 -21 32 -3 60 -4
61 -2 2 1 1 11 -2 22 -9 28 -57 43 -87 28z"/>
<path d="M6146 738 c-22 -31 -20 -91 2 -111 25 -23 65 -21 88 4 22 24 25 89 5
113 -20 24 -77 21 -95 -6z"/>
<path d="M3580 653 c-60 -9 -70 -14 -70 -33 0 -42 79 -49 100 -10 12 22 13 51
3 49 -5 -1 -19 -3 -33 -6z"/>
<path d="M5820 720 c-42 -42 -15 -130 39 -130 39 0 61 20 68 62 12 74 -57 118
-107 68z"/>
<path d="M3764 716 c-14 -11 -19 -26 -19 -61 0 -35 5 -50 19 -61 46 -33 96 -3
96 57 0 66 -49 99 -96 65z"/>
<path d="M4331 684 c-40 -51 -17 -124 39 -124 40 0 60 24 60 71 0 71 -60 103
-99 53z"/>
<path d="M4897 692 c-30 -33 -21 -42 43 -42 65 0 76 12 42 43 -24 22 -65 21
-85 -1z"/>
<path d="M1567 7281 c-48 -55 -87 -103 -86 -108 1 -10 314 -282 333 -289 7 -3
50 37 104 99 l91 104 -28 27 -28 27 -68 -78 c-38 -43 -71 -78 -75 -78 -4 0
-26 17 -49 38 l-42 38 38 46 c21 25 48 57 60 72 l21 26 -21 23 c-11 12 -25 22
-31 21 -6 0 -35 -29 -65 -65 -30 -35 -60 -64 -66 -64 -6 0 -26 15 -43 33 -29
30 -31 35 -17 47 8 7 39 39 67 72 l51 59 -23 24 c-13 14 -26 25 -30 25 -4 0
-46 -45 -93 -99z"/>
<path d="M7262 7334 c-93 -46 -183 -164 -182 -240 1 -38 39 -104 72 -124 37
-22 98 -26 147 -9 35 12 35 14 20 57 -9 27 -14 30 -29 22 -32 -17 -88 -12
-110 10 -41 41 -20 101 60 173 81 73 148 81 186 22 14 -22 15 -32 6 -63 -11
-34 -10 -39 11 -54 34 -26 44 -22 62 27 21 55 14 103 -22 145 -55 66 -133 78
-221 34z"/>
<path d="M1336 6979 l-87 -120 23 -19 c33 -27 42 -25 73 20 15 22 30 40 34 40
3 0 74 -50 156 -110 l150 -110 22 27 c12 15 20 30 17 34 -2 4 -71 56 -153 115
l-150 108 34 46 34 46 -22 14 c-12 8 -27 18 -33 22 -6 4 -45 -41 -98 -113z"/>
<path d="M7470 6979 c-91 -66 -173 -127 -183 -134 -15 -10 -16 -17 -8 -32 27
-47 25 -47 106 11 43 31 82 56 86 56 13 0 90 -113 82 -120 -5 -4 -41 -30 -80
-59 -60 -44 -71 -56 -63 -70 25 -48 30 -47 211 85 96 69 178 130 183 134 5 5
-1 22 -13 39 l-22 31 -62 -47 c-34 -25 -67 -50 -73 -55 -12 -9 -99 106 -90
120 2 4 34 28 70 52 36 25 66 47 66 50 0 3 -10 17 -23 32 l-22 28 -165 -121z"/>
<path d="M1175 6731 l-15 -29 133 -77 c72 -43 142 -87 155 -98 39 -36 24 -95
-30 -116 -31 -11 -61 1 -217 93 -87 52 -116 64 -123 54 -18 -27 -29 -50 -26
-53 19 -19 280 -161 313 -171 74 -22 128 4 166 78 28 54 25 110 -7 148 -25 30
-299 200 -322 200 -6 0 -18 -13 -27 -29z"/>
<path d="M7810 6709 c-36 -22 -124 -73 -197 -115 l-132 -76 16 -26 c9 -15 18
-29 20 -31 1 -2 57 29 124 68 67 39 123 70 125 68 2 -1 -37 -64 -85 -139 l-89
-136 20 -31 20 -32 42 24 c22 13 111 64 196 113 85 48 156 89 158 90 1 1 -5
15 -15 32 l-17 30 -66 -36 c-36 -20 -93 -53 -128 -74 -34 -21 -64 -38 -67 -38
-2 0 38 64 89 143 95 144 97 148 64 188 -12 15 -19 13 -78 -22z"/>
<path d="M956 6305 c-74 -156 -73 -151 -37 -169 17 -9 32 -16 34 -16 3 0 14
23 26 50 12 28 23 50 25 50 2 0 70 -32 152 -71 206 -98 191 -94 209 -59 8 16
15 31 15 33 0 2 -75 39 -167 82 -93 43 -170 80 -172 81 -2 2 6 26 17 54 l21
50 -29 15 c-16 8 -32 15 -35 15 -3 0 -30 -52 -59 -115z"/>
<path d="M7927 6300 c-50 -13 -126 -52 -159 -83 -44 -41 -61 -84 -56 -144 8
-97 72 -153 174 -153 109 0 229 63 269 141 36 69 5 183 -62 221 -38 23 -114
31 -166 18z m117 -81 c31 -15 57 -67 49 -100 -12 -50 -73 -95 -161 -119 -79
-21 -142 18 -142 87 0 86 165 172 254 132z"/>
<path d="M843 6025 c-9 -27 -9 -37 0 -40 123 -44 420 -145 421 -143 16 28 25
63 19 68 -4 4 -98 37 -208 75 -110 37 -205 70 -211 72 -6 2 -15 -12 -21 -32z"/>
<path d="M764 5777 l-41 -142 36 -11 36 -11 15 48 c9 26 18 50 21 53 2 3 81
-17 174 -44 92 -28 174 -50 180 -50 6 0 16 15 22 34 l10 33 -174 49 c-96 27
-179 52 -184 55 -5 3 -3 26 6 55 8 27 15 50 15 51 0 2 -62 23 -69 23 -3 0 -24
-64 -47 -143z"/>
<path d="M8026 5859 c-109 -32 -201 -61 -204 -63 -4 -5 54 -227 65 -248 3 -5
59 8 71 17 2 2 -8 42 -22 91 -14 48 -25 89 -23 90 1 1 80 25 175 52 95 27 175
52 178 54 2 3 1 19 -2 36 -4 21 -12 32 -23 31 -9 -1 -105 -28 -215 -60z"/>
<path d="M8155 5553 c-55 -7 -130 -35 -164 -61 -46 -35 -75 -102 -66 -157 14
-99 83 -150 200 -150 177 1 294 101 265 228 -6 27 -17 59 -26 72 -30 45 -133
79 -209 68z m133 -107 c30 -30 36 -91 12 -120 -31 -38 -92 -60 -168 -61 -71 0
-75 1 -103 33 -31 35 -35 57 -17 97 35 77 216 111 276 51z"/>
<path d="M734 5501 c-64 -39 -83 -164 -33 -217 47 -50 133 -55 182 -10 14 13
40 49 57 79 44 78 94 89 120 27 23 -55 -15 -110 -74 -110 -24 0 -26 -4 -26
-40 0 -45 7 -48 75 -29 46 13 71 32 92 73 19 36 20 125 2 155 -33 53 -124 82
-182 57 -36 -14 -46 -26 -100 -111 -27 -42 -37 -50 -62 -50 -27 0 -30 3 -33
37 -4 49 12 78 44 78 25 0 28 4 38 53 6 26 5 27 -31 27 -21 0 -52 -9 -69 -19z"/>
<path d="M640 5106 l0 -34 107 -7 c59 -4 126 -10 151 -14 l44 -6 -161 -63
-161 -63 0 -35 c0 -41 -11 -38 230 -59 247 -20 230 -22 230 18 l0 34 -142 12
c-79 7 -144 14 -145 15 -2 1 66 30 150 63 l152 61 3 39 3 39 -208 17 c-272 23
-253 24 -253 -17z"/>
<path d="M8130 5105 c-65 -18 -118 -58 -142 -106 -34 -66 -17 -163 39 -222 26
-26 29 -27 107 -21 45 3 86 7 92 9 10 3 2 151 -10 162 -2 3 -18 2 -35 -2 -29
-6 -31 -10 -31 -51 0 -42 -1 -44 -29 -44 -57 0 -93 95 -55 148 31 44 131 72
207 58 85 -16 120 -119 57 -168 -28 -22 -30 -26 -19 -56 6 -18 13 -32 16 -32
18 0 83 47 96 70 25 41 22 126 -6 174 -43 78 -170 113 -287 81z"/>
<path d="M685 4723 l-61 -4 4 -35 4 -34 227 2 226 3 0 35 0 35 -170 1 c-93 0
-197 -1 -230 -3z"/>
<path d="M8310 4635 l-125 -64 -102 0 -103 -1 0 -34 c0 -31 3 -34 38 -40 20
-3 64 -6 98 -6 56 0 70 -5 189 -70 70 -38 130 -70 132 -70 1 0 3 19 3 43 l0
42 -91 46 -92 45 92 44 91 43 0 44 c0 23 -1 43 -2 42 -2 0 -59 -29 -128 -64z"/>
<path d="M867 4400 c-120 -16 -221 -31 -224 -33 -3 -3 -2 -19 2 -36 6 -29 9
-31 43 -26 94 14 257 33 260 31 1 -2 -61 -45 -138 -96 -112 -74 -140 -97 -140
-116 0 -52 -6 -52 233 -22 122 15 223 27 225 28 1 0 2 16 2 35 0 22 -5 35 -12
35 -7 -1 -74 -9 -148 -19 -74 -10 -136 -18 -138 -16 -1 1 61 44 138 95 96 64
139 98 135 108 -3 7 -5 25 -5 38 0 13 -3 23 -7 23 -5 -1 -106 -14 -226 -29z"/>
<path d="M929 3969 l-207 -120 10 -39 c6 -22 14 -40 19 -40 19 0 415 -40 442
-45 27 -5 28 -4 21 33 -4 20 -8 38 -9 40 -2 2 -27 6 -57 9 l-54 5 -15 75 -15
74 48 25 c45 23 47 26 41 57 -3 17 -8 35 -12 39 -3 4 -99 -47 -212 -113z m77
-99 l11 -50 -27 0 c-15 0 -55 3 -89 6 l-62 7 73 43 c40 23 75 43 79 43 3 1 10
-21 15 -49z"/>
<path d="M7915 4049 c-4 -17 -4 -33 -1 -36 3 -3 38 -13 78 -22 l73 -17 -2 -34
c-1 -19 -3 -56 -5 -82 -2 -38 1 -51 22 -73 38 -40 73 -55 134 -55 82 0 101 21
132 144 14 54 21 102 17 106 -8 7 -408 100 -430 100 -6 0 -14 -14 -18 -31z
m309 -110 c57 -12 57 -12 50 -43 -13 -63 -32 -86 -69 -86 -49 0 -78 31 -70 73
10 52 16 67 24 67 4 0 33 -5 65 -11z"/>
<path d="M7860 3693 c-65 -34 -100 -139 -68 -208 6 -14 25 -34 42 -44 25 -16
326 -121 346 -121 6 0 32 62 27 66 -1 1 -71 25 -156 53 -85 28 -163 59 -173
68 -40 36 -6 123 49 123 16 0 256 -73 317 -96 7 -3 17 10 23 31 13 42 29 34
-162 93 -169 53 -201 58 -245 35z"/>
<path d="M1030 3617 c-118 -38 -216 -70 -217 -71 -1 -1 2 -18 7 -38 l10 -36
218 71 c119 39 218 72 220 72 1 1 -4 18 -10 37 l-13 35 -215 -70z"/>
<path d="M1105 3486 c-67 -21 -120 -53 -157 -94 -52 -58 -54 -83 -17 -188 17
-49 35 -93 39 -97 5 -6 414 143 427 156 5 5 -55 155 -72 181 -34 52 -131 70
-220 42z m128 -65 c15 -6 32 -28 46 -61 12 -29 21 -53 19 -55 -5 -5 -269 -105
-278 -105 -20 0 -38 98 -24 134 9 22 66 56 132 77 67 21 73 22 105 10z"/>
<path d="M7693 3350 l-11 -31 66 -30 c37 -17 94 -42 127 -56 90 -38 89 -43
-11 -43 -50 0 -126 -3 -168 -7 -72 -6 -78 -8 -92 -36 -9 -16 -12 -33 -7 -37 4
-5 98 -49 208 -98 l200 -89 13 24 c8 14 11 30 9 36 -3 7 -61 37 -131 67 -69
30 -126 57 -126 61 0 3 35 7 78 8 42 0 116 4 164 7 85 6 88 7 103 37 8 17 14
31 13 33 -6 5 -411 184 -417 184 -4 0 -12 -14 -18 -30z"/>
<path d="M1246 3086 c-103 -57 -192 -108 -197 -113 -5 -5 -1 -20 9 -35 l18
-27 124 69 c69 38 128 70 132 70 4 0 -32 -57 -81 -127 -48 -71 -91 -133 -94
-140 -7 -11 23 -75 33 -70 3 1 94 51 202 111 206 114 200 109 169 155 -7 11
-33 0 -132 -55 -68 -38 -127 -71 -132 -73 -5 -2 35 60 87 137 l96 140 -17 31
c-10 17 -20 31 -23 31 -3 0 -90 -47 -194 -104z"/>
<path d="M7467 2921 l-76 -120 35 -20 34 -20 12 22 c6 12 31 52 55 89 l43 68
50 -31 c27 -17 50 -35 50 -40 0 -5 -21 -41 -46 -81 l-46 -72 28 -22 c15 -13
31 -21 35 -19 3 3 26 36 49 75 23 39 46 73 51 76 5 2 26 -7 48 -22 l40 -26
-54 -86 -54 -87 30 -19 c20 -12 34 -15 40 -9 12 12 139 216 139 223 0 5 -374
240 -383 240 -3 0 -39 -54 -80 -119z"/>
<path d="M1440 2754 c-102 -64 -189 -119 -193 -123 -5 -5 0 -22 10 -39 l19
-30 186 117 c103 64 190 119 193 123 5 5 -21 68 -28 68 -1 0 -85 -52 -187
-116z"/>
<path d="M224 2605 c11 -43 24 -73 37 -80 6 -4 43 -17 83 -28 68 -20 104 -21
846 -26 426 -3 777 -5 779 -3 3 1 -6 13 -19 27 l-23 25 -696 0 c-383 0 -729 5
-770 10 -101 13 -178 39 -213 72 l-30 28 6 -25z"/>
<path d="M8960 2605 c-32 -35 -109 -61 -215 -74 -59 -7 -365 -11 -881 -11
l-791 0 -23 -25 c-13 -14 -22 -26 -19 -27 2 -2 400 -1 884 2 l880 6 80 24 79
25 19 49 c9 27 16 50 14 52 -2 2 -14 -7 -27 -21z"/>
<path d="M7030 2311 c24 -7 24 -7 5 -19 -17 -10 -18 -11 -2 -12 9 0 17 5 17
11 0 6 7 9 15 5 8 -3 15 -2 15 3 0 9 -36 21 -60 20 -8 -1 -4 -4 10 -8z"/>
<path d="M7100 2300 c13 -9 13 -11 0 -20 -9 -6 -10 -10 -3 -10 6 0 15 5 18 10
3 6 20 10 36 10 17 0 28 -4 25 -9 -3 -4 7 -6 22 -3 l27 6 -30 7 c-60 14 -111
19 -95 9z"/>
<path d="M7250 2267 c14 -8 27 -12 30 -10 7 6 -23 23 -40 23 -8 0 -4 -6 10
-13z"/>
<path d="M7300 2260 c10 -6 11 -10 3 -10 -7 0 -13 -5 -13 -11 0 -8 4 -8 13 0
9 7 24 8 45 1 18 -5 32 -5 32 -1 0 4 -17 13 -39 19 -46 14 -61 15 -41 2z"/>
<path d="M7393 2234 c0 -9 8 -12 26 -8 16 3 21 2 14 -3 -9 -6 -6 -12 10 -22
20 -13 21 -13 8 3 -13 16 -12 17 15 10 16 -4 34 -11 40 -15 6 -5 13 -6 16 -3
3 3 23 -3 44 -12 22 -9 43 -16 47 -15 17 3 47 -21 41 -32 -5 -9 -4 -9 6 0 14
13 43 6 34 -8 -3 -5 -10 -6 -16 -3 -7 4 -8 2 -4 -5 6 -9 11 -9 21 -1 10 8 24
6 54 -10 23 -11 41 -25 41 -31 0 -8 -5 -7 -15 1 -13 11 -14 10 -9 -4 3 -9 10
-16 16 -16 5 0 6 -6 2 -12 -6 -10 -5 -10 8 -1 8 7 17 10 21 7 8 -9 -4 -35 -13
-29 -5 3 -7 -3 -6 -12 2 -9 8 -19 14 -21 7 -2 12 -8 12 -13 0 -6 -5 -7 -12 -3
-6 4 -8 3 -5 -3 4 -6 1 -13 -7 -16 -10 -4 -13 1 -10 16 4 19 3 18 -7 -3 -7
-14 -11 -28 -11 -32 2 -10 -28 -5 -48 7 -13 8 -13 7 -1 -8 8 -10 11 -21 7 -24
-4 -4 -12 -1 -17 7 -9 12 -10 12 -5 -2 4 -15 0 -17 -31 -13 -35 4 -36 4 -15
-11 19 -13 25 -13 64 7 61 30 96 57 109 81 6 12 7 18 1 14 -16 -10 -22 22 -7
37 29 29 -70 96 -220 150 -131 46 -212 66 -212 51z"/>
<path d="M7315 2221 c-3 -5 0 -13 6 -17 8 -5 9 -3 4 6 -6 10 -2 11 19 6 18 -4
25 -3 21 4 -8 13 -42 13 -50 1z"/>
<path d="M6690 2056 c0 -2 8 -10 18 -17 15 -13 16 -12 3 4 -13 16 -21 21 -21
13z"/>
<path d="M7626 1871 c-4 -5 3 -7 14 -4 23 6 26 13 6 13 -8 0 -17 -4 -20 -9z"/>
<path d="M7440 1855 c-8 -10 -7 -16 7 -25 15 -9 13 -10 -12 -5 -24 4 -27 3
-15 -6 12 -8 8 -10 -16 -5 -19 3 -39 -1 -52 -10 -11 -7 -33 -15 -49 -17 -16
-2 -33 -6 -39 -9 -5 -4 -16 -3 -24 3 -8 5 -22 8 -30 8 -10 0 -8 -3 4 -8 16 -6
10 -10 -28 -20 -26 -6 -51 -9 -56 -6 -4 3 -10 0 -12 -6 -2 -7 -34 -12 -83 -12
-50 0 -71 -3 -55 -8 l25 -7 -25 -2 c-14 -1 -19 -4 -13 -7 25 -9 621 122 641
142 2 1 -4 5 -11 8 -8 3 -27 -1 -42 -9 -33 -17 -45 -18 -45 -3 0 5 5 7 12 3 7
-4 8 -3 4 5 -10 15 -29 3 -22 -15 3 -9 -1 -14 -13 -14 -28 0 -52 11 -46 21 3
4 12 6 20 2 8 -3 15 -3 15 0 0 13 -30 14 -40 2z"/>
<path d="M7385 1840 c-3 -5 -2 -10 4 -10 5 0 13 5 16 10 3 6 2 10 -4 10 -5 0
-13 -4 -16 -10z"/>
<path d="M7068 1773 c6 -2 18 -2 25 0 6 3 1 5 -13 5 -14 0 -19 -2 -12 -5z"/>
<path d="M7168 1773 c7 -3 16 -2 19 1 4 3 -2 6 -13 5 -11 0 -14 -3 -6 -6z"/>
<path d="M7078 1753 c7 -3 16 -2 19 1 4 3 -2 6 -13 5 -11 0 -14 -3 -6 -6z"/>
<path d="M6824 1697 c6 -5 -9 -6 -34 -3 -36 4 -40 3 -19 -5 17 -6 50 -5 105 5
l79 14 -71 -1 c-41 -1 -67 -6 -60 -10z"/>
<path d="M6380 1686 c0 -2 7 -7 16 -10 8 -3 12 -2 9 4 -6 10 -25 14 -25 6z"/>
<path d="M6640 1674 c-36 -6 -85 -12 -110 -13 -25 -1 -52 -5 -59 -10 -16 -10
16 -8 141 10 37 5 88 9 114 9 26 0 45 2 43 4 -13 11 -72 11 -129 0z"/>
<path d="M1350 771 c0 -62 29 -102 113 -159 108 -72 270 -138 431 -177 1013
-244 2916 -297 4581 -129 560 57 1146 201 1303 320 43 33 72 81 72 118 l0 29
-44 -41 c-107 -98 -365 -186 -818 -277 -338 -68 -977 -125 -1727 -155 -327
-13 -1227 -13 -1536 0 -765 32 -1401 108 -1860 221 -196 48 -431 173 -492 261
l-23 32 0 -43z"/>
</g>
</svg>
