<?xml version="1.0" encoding="UTF-8"?>
<svg version="1.1" xmlns="http://www.w3.org/2000/svg" width="244" height="52">
<path d="M0 0 C2.97 0 5.94 0 9 0 C11.64 7.59 14.28 15.18 17 23 C18.32 22.67 19.64 22.34 21 22 C22.66623639 21.96213099 24.33397597 21.95372155 26 22 C24.2984375 21.2265625 24.2984375 21.2265625 22.5625 20.4375 C19.36730839 18.61260398 19.07536265 18.2221215 17.8125 14.5 C18 11 18 11 19.5625 8.625 C22.5151394 6.65657373 24.45820395 6.1445631 28 6 C30.875 6.9375 30.875 6.9375 33 8 C33 9.98 33 11.96 33 14 C30.36 13.34 27.72 12.68 25 12 C25 12.66 25 13.32 25 14 C25.928125 14.268125 26.85625 14.53625 27.8125 14.8125 C32.40883978 16.52486188 32.40883978 16.52486188 34 19 C34.53729721 22.60756699 34.4905232 24.30194775 32.375 27.3125 C29.45949827 29.38404071 27.5657278 29.85446009 24 30 C21.125 29.0625 21.125 29.0625 19 28 C18.67 28.33 18.34 28.66 18 29 C15.32941149 29.14115161 12.67567762 29.04247107 10 29 C9.67 27.02 9.34 25.04 9 23 C5.7 23 2.4 23 -1 23 C-1.33 24.98 -1.66 26.96 -2 29 C-4.31 29 -6.62 29 -9 29 C-8.42033198 22.43963016 -6.24886441 16.69819446 -3.9375 10.5625 C-3.37192383 9.03592773 -3.37192383 9.03592773 -2.79492188 7.47851562 C-1.86946564 4.98329819 -0.93769349 2.49063881 0 0 Z M4 10 C2.87483915 11.83284443 2.87483915 11.83284443 2 14 C2.33 14.99 2.66 15.98 3 17 C4.32 16.67 5.64 16.34 7 16 C6.34 14.02 5.68 12.04 5 10 C4.67 10 4.34 10 4 10 Z " fill="#4A7AB7" transform="translate(91,7)"/>
<path d="M0 0 C2.31 0 4.62 0 7 0 C7 1.65 7 3.3 7 5 C8.65 5 10.3 5 12 5 C12 6.98 12 8.96 12 11 C10.35 11 8.7 11 7 11 C7 14.3 7 17.6 7 21 C11.1026167 20.46955415 11.1026167 20.46955415 12.5 17.5625 C13.2425 16.2940625 13.2425 16.2940625 14 15 C17.22158636 12.66712712 20.10957355 12.82316243 24 13 C24 12.34 24 11.68 24 11 C20.37 11.33 16.74 11.66 13 12 C13.33 10.02 13.66 8.04 14 6 C18.7432608 4.03328211 22.00636229 3.70535319 27 5 C29.1953125 6.4765625 29.1953125 6.4765625 31 9 C31.48748117 12.09839728 31.3770153 15.12346949 31.25 18.25 C31.23195312 19.09046875 31.21390625 19.9309375 31.1953125 20.796875 C31.14830798 22.86507395 31.07656724 24.93268441 31 27 C29.89785156 26.98582031 28.79570312 26.97164062 27.66015625 26.95703125 C24.14707316 26.84710467 24.14707316 26.84710467 21.4375 27.6875 C19 28 19 28 16 26.375 C14.515 25.694375 14.515 25.694375 13 25 C11.31503702 25.96885372 9.64821244 26.96986723 8 28 C4.46835704 27.23827309 2.56128588 26.56128588 0 24 C-0.1953125 20.9609375 -0.1953125 20.9609375 -0.125 17.375 C-0.10695312 16.18648437 -0.08890625 14.99796875 -0.0703125 13.7734375 C-0.04710937 12.85820312 -0.02390625 11.94296875 0 11 C-0.99 11 -1.98 11 -3 11 C-3 9.02 -3 7.04 -3 5 C-2.01 5 -1.02 5 0 5 C0 3.35 0 1.7 0 0 Z M19 19 C19.33 19.99 19.66 20.98 20 22 C21.32 21.67 22.64 21.34 24 21 C24 20.01 24 19.02 24 18 C21.78918149 17.89459074 21.78918149 17.89459074 19 19 Z " fill="#44659E" transform="translate(172,9)"/>
<path d="M0 0 C2.02165939 1.48514209 3.62858388 2.98391681 5.28125 4.8671875 C6.04501953 5.67349609 6.04501953 5.67349609 6.82421875 6.49609375 C11.46001812 11.67728128 11.63541088 16.10100063 11.5546875 22.79296875 C10.99516367 29.08361521 8.42659573 33.08635132 3.78125 37.2421875 C-1.1550211 41.25851717 -4.64848782 42.16039031 -11.09375 42.1796875 C-12.38023438 42.19644531 -13.66671875 42.21320312 -14.9921875 42.23046875 C-20.95739567 41.64895475 -25.40973022 38.94941677 -29.71875 34.8671875 C-34.41937405 29.1502123 -34.31641241 23.66817712 -34.1015625 16.40625 C-33.44605059 10.34610929 -31.26303144 7.07995202 -26.71875 3.0546875 C-19.38778638 -2.29080681 -8.57352478 -3.57230199 0 0 Z M-27.65625 8.9296875 C-31.24555765 14.04173173 -31.34850739 18.8035235 -30.71875 24.8671875 C-29.12019996 30.43322318 -26.25626303 33.76817308 -21.5 36.95703125 C-15.93485052 39.80062736 -9.45516515 39.63497614 -3.59375 37.8046875 C1.43746538 35.74059914 4.87714277 31.67540197 7.28125 26.8671875 C7.77012732 21.06477472 8.13670438 15.70970464 5.65625 10.3671875 C0.61215439 5.05761317 -3.31893813 1.75801462 -10.90625 1.5546875 C-17.96262335 1.63858097 -22.97561553 3.58229599 -27.65625 8.9296875 Z " fill="#261EBC" transform="translate(33.71875,1.1328125)"/>
<path d="M0 0 C1.23556641 0.01740234 1.23556641 0.01740234 2.49609375 0.03515625 C3.32238281 0.04417969 4.14867187 0.05320312 5 0.0625 C5.63808594 0.07410156 6.27617188 0.08570313 6.93359375 0.09765625 C8.46916687 4.36333502 9.98450317 8.63592611 11.49609375 12.91015625 C12.15254883 14.73256836 12.15254883 14.73256836 12.82226562 16.59179688 C13.23154297 17.75517578 13.64082031 18.91855469 14.0625 20.1171875 C14.4447876 21.19073486 14.8270752 22.26428223 15.22094727 23.37036133 C15.93359375 26.09765625 15.93359375 26.09765625 14.93359375 29.09765625 C12.62359375 29.09765625 10.31359375 29.09765625 7.93359375 29.09765625 C7.60359375 27.11765625 7.27359375 25.13765625 6.93359375 23.09765625 C3.63359375 23.09765625 0.33359375 23.09765625 -3.06640625 23.09765625 C-3.39640625 25.07765625 -3.72640625 27.05765625 -4.06640625 29.09765625 C-6.37640625 29.09765625 -8.68640625 29.09765625 -11.06640625 29.09765625 C-10.51385364 22.52074536 -8.81688336 16.84670877 -6.56640625 10.66015625 C-6.24542969 9.75072266 -5.92445312 8.84128906 -5.59375 7.90429688 C-2.8196206 0.13325239 -2.8196206 0.13325239 0 0 Z M0.93359375 10.09765625 C0.60359375 12.40765625 0.27359375 14.71765625 -0.06640625 17.09765625 C1.25359375 17.09765625 2.57359375 17.09765625 3.93359375 17.09765625 C3.59131803 14.12700116 3.59131803 14.12700116 2.93359375 11.09765625 C2.27359375 10.76765625 1.61359375 10.43765625 0.93359375 10.09765625 Z " fill="#4871B7" transform="translate(56.06640625,6.90234375)"/>
<path d="M0 0 C2.14453125 1.47265625 2.14453125 1.47265625 4 4 C4.49215224 7.09744328 4.37700147 10.12380993 4.25 13.25 C4.23195312 14.09046875 4.21390625 14.9309375 4.1953125 15.796875 C4.14830798 17.86507395 4.07656724 19.93268441 4 22 C1.69 22 -0.62 22 -3 22 C-3.33 17.05 -3.66 12.1 -4 7 C-4.99 7 -5.98 7 -7 7 C-7.33 11.95 -7.66 16.9 -8 22 C-10.31 22 -12.62 22 -15 22 C-16.58937556 20.41062444 -16.12981143 18.76100154 -16.1328125 16.5625 C-16.13410156 15.66789062 -16.13539063 14.77328125 -16.13671875 13.8515625 C-16.13091797 12.44003906 -16.13091797 12.44003906 -16.125 11 C-16.12886719 10.05898438 -16.13273438 9.11796875 -16.13671875 8.1484375 C-16.13542969 7.25382812 -16.13414062 6.35921875 -16.1328125 5.4375 C-16.13112061 4.19806641 -16.13112061 4.19806641 -16.12939453 2.93359375 C-16 1 -16 1 -15 0 C-12.66666667 0 -10.33333333 0 -8 0 C-4.61786861 -1.12737713 -3.35228621 -1.06292002 0 0 Z " fill="#35578C" transform="translate(222,14)"/>
<path d="M0 0 C2.97 0 5.94 0 9 0 C9.67057887 1.7902061 10.3363469 3.58221489 11 5.375 C11.556875 6.87160156 11.556875 6.87160156 12.125 8.3984375 C13 11 13 11 13 13 C12.34 13 11.68 13 11 13 C10.34 11.68 9.68 10.36 9 9 C9 9.66 9 10.32 9 11 C8.814375 11.639375 8.62875 12.27875 8.4375 12.9375 C7.77951372 15.18220877 7.77951372 15.18220877 9 18 C6.69 18.33 4.38 18.66 2 19 C2 19.33 2 19.66 2 20 C4.97 20.33 7.94 20.66 11 21 C11.33 23.64 11.66 26.28 12 29 C11.34 29 10.68 29 10 29 C9.67 27.02 9.34 25.04 9 23 C5.7 23 2.4 23 -1 23 C-1.33 24.98 -1.66 26.96 -2 29 C-4.31 29 -6.62 29 -9 29 C-8.42033198 22.43963016 -6.24886441 16.69819446 -3.9375 10.5625 C-3.37192383 9.03592773 -3.37192383 9.03592773 -2.79492188 7.47851562 C-1.86946564 4.98329819 -0.93769349 2.49063881 0 0 Z M4 10 C2.87483915 11.83284443 2.87483915 11.83284443 2 14 C2.33 14.99 2.66 15.98 3 17 C4.32 16.67 5.64 16.34 7 16 C6.34 14.02 5.68 12.04 5 10 C4.67 10 4.34 10 4 10 Z " fill="#3C5F9A" transform="translate(91,7)"/>
<path d="M0 0 C2.31 0 4.62 0 7 0 C7 1.65 7 3.3 7 5 C8.65 5 10.3 5 12 5 C12 6.98 12 8.96 12 11 C10.35 11 8.7 11 7 11 C7 14.3 7 17.6 7 21 C8.65 20.67 10.3 20.34 12 20 C12 22.31 12 24.62 12 27 C7.6733659 28.00619398 4.87528323 28.36822864 1 26 C-1.91848927 21.55277825 -1.17885738 16.11730847 -1 11 C-1.66 11 -2.32 11 -3 11 C-3 9.02 -3 7.04 -3 5 C-2.01 5 -1.02 5 0 5 C0 3.35 0 1.7 0 0 Z " fill="#4567A3" transform="translate(230,9)"/>
<path d="M0 0 C1 1 1 1 1.0625 4.0625 C1.041875 5.031875 1.02125 6.00125 1 7 C-1.31 6.67 -3.62 6.34 -6 6 C-5.43410156 6.30292969 -4.86820313 6.60585938 -4.28515625 6.91796875 C1.67922822 10.32469099 1.67922822 10.32469099 3.1875 13.5 C2.9394358 16.80752272 2.08698038 18.42605753 0 21 C-3.00368335 22.78597389 -4.62934015 23.02965279 -8.125 22.75 C-11 22 -11 22 -14 20 C-14.1875 17.375 -14.1875 17.375 -14 15 C-11.03 15.33 -8.06 15.66 -5 16 C-5 15.34 -5 14.68 -5 14 C-5.7425 13.938125 -6.485 13.87625 -7.25 13.8125 C-10.92401842 12.72699456 -12.07012464 11.26594292 -14 8 C-13.92905248 5.02020425 -13.46095537 3.58667047 -11.625 1.25 C-7.7891901 -1.700623 -4.49390537 -0.8322047 0 0 Z " fill="#466FB5" transform="translate(167,14)"/>
<path d="M0 0 C0.66 0.33 1.32 0.66 2 1 C2 2.98 2 4.96 2 7 C-0.64 6.34 -3.28 5.68 -6 5 C-6 5.66 -6 6.32 -6 7 C-5.071875 7.268125 -4.14375 7.53625 -3.1875 7.8125 C1.40883978 9.52486188 1.40883978 9.52486188 3 12 C3.53729721 15.60756699 3.4905232 17.30194775 1.375 20.3125 C-1.55984006 22.3977811 -3.40670357 22.85626814 -7 23 C-10.375 22.0625 -10.375 22.0625 -13 21 C-13 19.02 -13 17.04 -13 15 C-10.36 15 -7.72 15 -5 15 C-6.134375 14.484375 -7.26875 13.96875 -8.4375 13.4375 C-11.63269161 11.61260398 -11.92463735 11.2221215 -13.1875 7.5 C-13 4 -13 4 -11.1875 1.625 C-7.10168652 -1.41017573 -4.98383863 -0.88997118 0 0 Z " fill="#466AAB" transform="translate(139,14)"/>
<path d="M0 0 C2.31 0 4.62 0 7 0 C8.80279191 1.80279191 8.13036605 4.54047701 8.1328125 6.96875 C8.13474609 8.78439453 8.13474609 8.78439453 8.13671875 10.63671875 C8.13285156 11.91160156 8.12898438 13.18648437 8.125 14.5 C8.12886719 15.77488281 8.13273437 17.04976562 8.13671875 18.36328125 C8.13542969 19.57371094 8.13414063 20.78414062 8.1328125 22.03125 C8.13168457 23.15080078 8.13055664 24.27035156 8.12939453 25.42382812 C8 28 8 28 7 29 C4.69 29 2.38 29 0 29 C0 19.43 0 9.86 0 0 Z " fill="#2C3C56" transform="translate(73,7)"/>
<path d="M0 0 C1.65 0 3.3 0 5 0 C5.99 2.64 6.98 5.28 8 8 C8.33 5.36 8.66 2.72 9 0 C10.65 0 12.3 0 14 0 C14 4.95 14 9.9 14 15 C7.95604396 16.20879121 7.95604396 16.20879121 4 15 C3.67 14.34 3.34 13.68 3 13 C2.34 13 1.68 13 1 13 C0.525625 13.495 0.05125 13.99 -0.4375 14.5 C-2 16 -2 16 -5 16 C-4.49228528 10.03435204 -2.61407872 5.36190101 0 0 Z " fill="#090909" transform="translate(17,13)"/>
<path d="M0 0 C2.4375 2.0625 2.4375 2.0625 4 4 C3.01 4.495 3.01 4.495 2 5 C2 9.95 2 14.9 2 20 C0.35 19.67 -1.3 19.34 -3 19 C-3 17.02 -3 15.04 -3 13 C-5.47266765 13.34444881 -5.47266765 13.34444881 -8 14 C-8.33 14.66 -8.66 15.32 -9 16 C-9.33 15.01 -9.66 14.02 -10 13 C-8.35 12.34 -6.7 11.68 -5 11 C-7.97 10.505 -7.97 10.505 -11 10 C-9 8 -9 8 -5.875 7.875 C-4.92625 7.91625 -3.9775 7.9575 -3 8 C-3 7.34 -3 6.68 -3 6 C-6.63 6.33 -10.26 6.66 -14 7 C-13.67 5.02 -13.34 3.04 -13 1 C-8.2567392 -0.96671789 -4.99363771 -1.29464681 0 0 Z " fill="#436CAE" transform="translate(199,14)"/>
<path d="M0 0 C2.31 0 4.62 0 7 0 C7 7.26 7 14.52 7 22 C4.69 22 2.38 22 0 22 C0 14.74 0 7.48 0 0 Z " fill="#5985C2" transform="translate(144,14)"/>
<path d="M0 0 C7.38461538 -0.36923077 7.38461538 -0.36923077 10.5 1.5 C10.995 1.995 11.49 2.49 12 3 C12.66 2.34 13.32 1.68 14 1 C16.09375 1.0234375 16.09375 1.0234375 18.5 1.375 C21.7393042 1.84109714 21.7393042 1.84109714 25 2 C26.32 2 27.64 2 29 2 C29 3.98 29 5.96 29 8 C25.97878489 8.97110486 23.99536737 9.13617383 21 8 C20.67 7.34 20.34 6.68 20 6 C19.67 6.66 19.34 7.32 19 8 C15.42978418 8.87271942 12.46649153 9.41227433 9 8 C8.67 7.34 8.34 6.68 8 6 C7.67 6.66 7.34 7.32 7 8 C6.34 8 5.68 8 5 8 C5 7.01 5 6.02 5 5 C3.68 5.33 2.36 5.66 1 6 C1 6.66 1 7.32 1 8 C0.34 8 -0.32 8 -1 8 C-0.67 5.36 -0.34 2.72 0 0 Z M2 2 C2.33 2.66 2.66 3.32 3 4 C3.33 3.34 3.66 2.68 4 2 C3.34 2 2.68 2 2 2 Z M14 4 C14 7 14 7 14 7 Z " fill="#000000" transform="translate(45,41)"/>
<path d="M0 0 C0.75087891 -0.02449219 1.50175781 -0.04898438 2.27539062 -0.07421875 C6.327257 -0.09560063 8.12396936 0.08264624 11.59765625 2.3984375 C12.57025391 3.37683594 12.57025391 3.37683594 13.5625 4.375 C10.27553767 5.17453138 8.85226808 5.47158936 5.5625 4.375 C-1.60406494 3.66876339 -7.4995734 4.06544098 -13.4375 8.375 C-16.7790471 11.7165471 -18.17396493 14.84733266 -19.4375 19.375 C-20.0975 19.375 -20.7575 19.375 -21.4375 19.375 C-21.7675 20.695 -22.0975 22.015 -22.4375 23.375 C-22.95803699 16.99842182 -22.55436943 12.43900197 -18.4375 7.375 C-12.69709741 1.58855139 -8.05044754 0.0137497 0 0 Z " fill="#B81B2C" transform="translate(22.4375,-0.375)"/>
<path d="M0 0 C1.1446875 0.2475 1.1446875 0.2475 2.3125 0.5 C5.11993347 1.0223132 6.31187755 0.7331243 9 0 C10.99960012 -0.039992 13.00047242 -0.04346799 15 0 C15.66 0 16.32 0 17 0 C17.598125 0.185625 18.19625 0.37125 18.8125 0.5625 C21.46396657 1.09279331 23.39891439 0.6502714 26 0 C26 1.98 26 3.96 26 6 C20.1510873 7.61349316 14.03380341 7 8 7 C7.00613281 7.01740234 7.00613281 7.01740234 5.9921875 7.03515625 C3.99492386 7.06095117 1.99717045 7.03221243 0 7 C-1 6 -1 6 -1.125 3.5 C-1 1 -1 1 0 0 Z " fill="#000000" transform="translate(208,43)"/>
<path d="M0 0 C2.83842501 0.08348309 4.54049314 0.5723728 6.6328125 2.51953125 C11.59037721 8.20755839 12.35392494 12.40519731 12.28125 19.91796875 C11.74335259 25.81242784 9.58287987 29.5610183 5.25 33.5 C4.5075 33.995 3.765 34.49 3 35 C2.25 33.3125 2.25 33.3125 2 31 C3.875 28.375 3.875 28.375 6 26 C8.20607806 21.58784388 7.43232319 15.80229277 7 11 C5.76502074 7.73525284 3.70646301 5.70646301 1.25 3.25 C0.8375 2.8375 0.425 2.425 0 2 C0 1.34 0 0.68 0 0 Z " fill="#5DB01E" transform="translate(33,4)"/>
<path d="M0 0 C3.71599191 -0.20086443 4.77208445 -0.1519437 8 2 C8.33 2.99 8.66 3.98 9 5 C9.33 4.01 9.66 3.02 10 2 C12.31 2 14.62 2 17 2 C17.33 1.34 17.66 0.68 18 0 C18.66 0 19.32 0 20 0 C20 0.66 20 1.32 20 2 C21.65 2 23.3 2 25 2 C25 3.98 25 5.96 25 8 C20.66666667 8 16.33333333 8 12 8 C11.13375 8.185625 10.2675 8.37125 9.375 8.5625 C7 9 7 9 5 8 C3.00039988 7.960008 0.99952758 7.95653201 -1 8 C-0.67 5.36 -0.34 2.72 0 0 Z M19 4 C20 7 20 7 20 7 Z M2 5 C1.67 5.66 1.34 6.32 1 7 C1.66 7 2.32 7 3 7 C2.67 6.34 2.34 5.68 2 5 Z " fill="#000000" transform="translate(181,41)"/>
<path d="M0 0 C0.66 0 1.32 0 2 0 C2.33 0.99 2.66 1.98 3 3 C3.66 2.01 4.32 1.02 5 0 C5.66 0 6.32 0 7 0 C7 0.66 7 1.32 7 2 C9.97 2.495 9.97 2.495 13 3 C13 2.01 13 1.02 13 0 C13.66 0 14.32 0 15 0 C15.33 0.66 15.66 1.32 16 2 C18.42459787 2.83492354 18.42459787 2.83492354 21 3 C21.66 2.34 22.32 1.68 23 1 C23.99 1.66 24.98 2.32 26 3 C25.67 4.65 25.34 6.3 25 8 C22 9 22 9 19 8 C15.04988369 7.87367582 15.04988369 7.87367582 11.4375 8.6875 C8 9 8 9 6.0625 7.5625 C5.711875 7.046875 5.36125 6.53125 5 6 C4.67 6.66 4.34 7.32 4 8 C3.01 8 2.02 8 1 8 C0.67 5.36 0.34 2.72 0 0 Z M14 3 C15 5 15 5 15 5 Z M8 4 C8.33 4.99 8.66 5.98 9 7 C9.33 6.01 9.66 5.02 10 4 C9.34 4 8.68 4 8 4 Z M17 4 C17 4.99 17 5.98 17 7 C17.99 6.34 18.98 5.68 20 5 C19.01 4.67 18.02 4.34 17 4 Z " fill="#000000" transform="translate(99,41)"/>
<path d="M0 0 C0.66 0 1.32 0 2 0 C2 5.61 2 11.22 2 17 C-0.31 17 -2.62 17 -5 17 C-5.886875 17.20625 -6.77375 17.4125 -7.6875 17.625 C-10.51688893 18.08381983 -11.65615699 17.5904649 -14 16 C-15.50662097 12.98675805 -15.17770373 10.31713623 -15 7 C-13 5 -13 5 -10 4.75 C-7 5 -7 5 -5 7 C-6.98 7.33 -8.96 7.66 -11 8 C-11 8.99 -11 9.98 -11 11 C-9.02 11 -7.04 11 -5 11 C-5 11.99 -5 12.98 -5 14 C-3.35 14.33 -1.7 14.66 0 15 C0 10.05 0 5.1 0 0 Z " fill="#4774C0" transform="translate(201,19)"/>
<path d="M0 0 C2.31 0.33 4.62 0.66 7 1 C6.67 7.6 6.34 14.2 6 21 C4.35 21 2.7 21 1 21 C0 20 0 20 -0.11352539 18.05053711 C-0.10567017 16.8015564 -0.10567017 16.8015564 -0.09765625 15.52734375 C-0.09443359 14.62822266 -0.09121094 13.72910156 -0.08789062 12.80273438 C-0.07951172 11.85720703 -0.07113281 10.91167969 -0.0625 9.9375 C-0.05798828 8.98810547 -0.05347656 8.03871094 -0.04882812 7.06054688 C-0.0370011 4.70696935 -0.02052025 2.35351523 0 0 Z " fill="#3B609F" transform="translate(208,15)"/>
<path d="M0 0 C2 2 2 2 2 5 C2.99 5.33 3.98 5.66 5 6 C7.34551123 10.93791838 7.2134222 15.66444505 7 21 C5.35 20.67 3.7 20.34 2 20 C1.67 18.02 1.34 16.04 1 14 C-2.63 13.67 -6.26 13.34 -10 13 C-9.34 12.01 -8.68 11.02 -8 10 C-4.375 9.3125 -4.375 9.3125 -1 9 C-1.165 8.401875 -1.33 7.80375 -1.5 7.1875 C-2 5 -2 5 -2 2 C-1.34 1.34 -0.68 0.68 0 0 Z " fill="#4779C9" transform="translate(100,15)"/>
<path d="M0 0 C1.32 0 2.64 0 4 0 C4 8.58 4 17.16 4 26 C2.68 26.33 1.36 26.66 0 27 C0 18.09 0 9.18 0 0 Z " fill="#4D78C9" transform="translate(75,9)"/>
<path d="M0 0 C1.65 0 3.3 0 5 0 C5 3.63 5 7.26 5 11 C6.65 11 8.3 11 10 11 C10 12.65 10 14.3 10 16 C6.78270009 17.0111514 5.39863447 17.17213761 2.25 15.8125 C-0.32268544 13.74005895 -0.52589318 13.16257139 -1 10 C-0.91760895 8.245868 -0.76901219 6.49388075 -0.5625 4.75 C-0.46066406 3.85796875 -0.35882813 2.9659375 -0.25390625 2.046875 C-0.17011719 1.37140625 -0.08632812 0.6959375 0 0 Z " fill="#527BCE" transform="translate(173,20)"/>
<path d="M0 0 C2.0625 0.4375 2.0625 0.4375 4 1 C4 2.98 4 4.96 4 7 C2.68 7 1.36 7 0 7 C-1.66821323 7.32550502 -3.33499557 7.65846063 -5 8 C-5.99 8 -6.98 8 -8 8 C-8.680625 8.350625 -9.36125 8.70125 -10.0625 9.0625 C-10.701875 9.371875 -11.34125 9.68125 -12 10 C-12.66 9.67 -13.32 9.34 -14 9 C-13.125 2.125 -13.125 2.125 -12 1 C-9.15189035 0.92789596 -6.31696073 1.00377401 -3.46875 1.0625 C-1.05541144 1.28507296 -1.05541144 1.28507296 0 0 Z M-11 3 C-10 5 -10 5 -10 5 Z " fill="#000000" transform="translate(148,42)"/>
<path d="M0 0 C1.98 0 3.96 0 6 0 C6 0.66 6 1.32 6 2 C5.34 2.66 4.68 3.32 4 4 C4.66 4.66 5.32 5.32 6 6 C6.125 9.125 6.125 9.125 6 12 C5.67 11.01 5.34 10.02 5 9 C2.84585232 9.79817333 2.84585232 9.79817333 2.2890625 11.8125 C1.84679127 13.26939345 1.40927718 14.72773962 0.9765625 16.1875 C0 18 0 18 -2.0390625 18.625 C-2.68617187 18.74875 -3.33328125 18.8725 -4 19 C-4.33 19.66 -4.66 20.32 -5 21 C-4.566875 19.081875 -4.566875 19.081875 -4.125 17.125 C-3.1556236 12.78686872 -2.29183409 8.43373541 -1.46484375 4.06640625 C-1 2 -1 2 0 0 Z M2 6 C3 8 3 8 3 8 Z " fill="#4D73B3" transform="translate(91,7)"/>
<path d="M0 0 C0.66 0.33 1.32 0.66 2 1 C2 2.98 2 4.96 2 7 C-0.64 6.34 -3.28 5.68 -6 5 C-6.33 5.99 -6.66 6.98 -7 8 C-7.33 7.01 -7.66 6.02 -8 5 C-8.66 5 -9.32 5 -10 5 C-10 7.31 -10 9.62 -10 12 C-11.5625 10.9375 -11.5625 10.9375 -13 9 C-13 5.5 -13 5.5 -12 2 C-8.11561479 -1.65589196 -4.99509772 -1.13096552 0 0 Z " fill="#4C82D0" transform="translate(139,14)"/>
<path d="M0 0 C0.19335938 0.64453125 0.38671875 1.2890625 0.5859375 1.953125 C1.88708247 4.34351201 1.88708247 4.34351201 5.0390625 4.609375 C6.81410156 4.67898437 6.81410156 4.67898437 8.625 4.75 C10.40777344 4.83507812 10.40777344 4.83507812 12.2265625 4.921875 C13.14179687 4.94765625 14.05703125 4.9734375 15 5 C15 5.66 15 6.32 15 7 C11.7 7 8.4 7 5 7 C4.67 8.98 4.34 10.96 4 13 C1.69 13 -0.62 13 -3 13 C-2.52060632 8.28596212 -2.03165952 4.33420699 0 0 Z " fill="#3A5892" transform="translate(48,23)"/>
<path d="M0 0 C2.76314599 0.89802245 3.9089781 1.38409816 5.5 3.8125 C6.03729721 7.42006699 5.9905232 9.11444775 3.875 12.125 C1.06041967 14.12483339 -1.09319587 14.50279053 -4.5 14.8125 C-4.83 14.1525 -5.16 13.4925 -5.5 12.8125 C-3.85 12.1525 -2.2 11.4925 -0.5 10.8125 C-0.5 8.8325 -0.5 6.8525 -0.5 4.8125 C-1.49 4.8125 -2.48 4.8125 -3.5 4.8125 C-3.5 4.1525 -3.5 3.4925 -3.5 2.8125 C-4.16 2.4825 -4.82 2.1525 -5.5 1.8125 C-2.5 -0.1875 -2.5 -0.1875 0 0 Z " fill="#3E6AAD" transform="translate(119.5,22.1875)"/>
<path d="M0 0 C0 1.32 0 2.64 0 4 C-4.75225274 6.79977681 -8.20034885 7.35919704 -13.6875 7.25 C-14.99074219 7.23453125 -16.29398438 7.2190625 -17.63671875 7.203125 C-21 7 -21 7 -24 6 C-24.33 5.01 -24.66 4.02 -25 3 C-24.01 3.03480469 -23.02 3.06960937 -22 3.10546875 C-14.27975034 3.29307639 -7.02672952 0 0 0 Z " fill="#21B9A7" transform="translate(36,36)"/>
<path d="M0 0 C2.64 0 5.28 0 8 0 C8.48066535 1.89545392 8.95946743 3.79138039 9.4375 5.6875 C9.83775391 7.27111328 9.83775391 7.27111328 10.24609375 8.88671875 C10.89897932 11.5828317 11.47941193 14.2757576 12 17 C11.67 16.34 11.34 15.68 11 15 C7.97065509 14.34227572 7.97065509 14.34227572 5 14 C4.690625 12.88625 4.38125 11.7725 4.0625 10.625 C3.17673517 7.2054845 3.17673517 7.2054845 2 5 C2.4375 2.875 2.4375 2.875 3 1 C2.01 0.67 1.02 0.34 0 0 Z " fill="#4A77C8" transform="translate(55,9)"/>
<path d="M0 0 C1.23556641 0.01740234 1.23556641 0.01740234 2.49609375 0.03515625 C3.32238281 0.04417969 4.14867187 0.05320312 5 0.0625 C5.63808594 0.07410156 6.27617188 0.08570313 6.93359375 0.09765625 C6.93359375 0.75765625 6.93359375 1.41765625 6.93359375 2.09765625 C5.28359375 2.42765625 3.63359375 2.75765625 1.93359375 3.09765625 C1.76671927 5.51411407 1.76671927 5.51411407 1.93359375 8.09765625 C2.59359375 8.75765625 3.25359375 9.41765625 3.93359375 10.09765625 C3.55859375 12.22265625 3.55859375 12.22265625 2.93359375 14.09765625 C2.60359375 13.10765625 2.27359375 12.11765625 1.93359375 11.09765625 C1.27359375 12.74765625 0.61359375 14.39765625 -0.06640625 16.09765625 C-0.95576002 12.79434225 -1.5291473 9.4747125 -2.06640625 6.09765625 C-2.72640625 8.73765625 -3.38640625 11.37765625 -4.06640625 14.09765625 C-5.05640625 13.76765625 -6.04640625 13.43765625 -7.06640625 13.09765625 C-6.42421123 11.11730604 -5.77754981 9.13840369 -5.12890625 7.16015625 C-4.76925781 6.05800781 -4.40960938 4.95585937 -4.0390625 3.8203125 C-2.72019893 0.12855382 -2.72019893 0.12855382 0 0 Z " fill="#375382" transform="translate(56.06640625,6.90234375)"/>
<path d="M0 0 C1.65 0 3.3 0 5 0 C5 4.95 5 9.9 5 15 C3.68 14.67 2.36 14.34 1 14 C1 13.34 1 12.68 1 12 C0.34 11.67 -0.32 11.34 -1 11 C-0.67 7.37 -0.34 3.74 0 0 Z " fill="#040404" transform="translate(26,13)"/>
<path d="M0 0 C0.33 0 0.66 0 1 0 C1.59332061 4.37573952 2.13827236 8.57528444 2 13 C1.01 13 0.02 13 -1 13 C-0.67 13.66 -0.34 14.32 0 15 C2.12576782 15.46651207 2.12576782 15.46651207 4.5625 15.625 C5.38878906 15.69976562 6.21507812 15.77453125 7.06640625 15.8515625 C7.70449219 15.90054687 8.34257813 15.94953125 9 16 C9 16.33 9 16.66 9 17 C4.38 17 -0.24 17 -5 17 C-5 14.69 -5 12.38 -5 10 C-4.01 10 -3.02 10 -2 10 C-1.34 6.7 -0.68 3.4 0 0 Z " fill="#4B74CA" transform="translate(54,11)"/>
<path d="M0 0 C0.99 0 1.98 0 3 0 C3 0.66 3 1.32 3 2 C5.97 2 8.94 2 12 2 C12 2.66 12 3.32 12 4 C11.34 4 10.68 4 10 4 C10 5.32 10 6.64 10 8 C7.1875 8.625 7.1875 8.625 4 9 C3.01 8.34 2.02 7.68 1 7 C0.01 7 -0.98 7 -2 7 C-2.125 4.625 -2.125 4.625 -2 2 C-1.34 1.34 -0.68 0.68 0 0 Z M4 4 C4.33 4.99 4.66 5.98 5 7 C5.33 6.01 5.66 5.02 6 4 C5.34 4 4.68 4 4 4 Z " fill="#000000" transform="translate(166,41)"/>
<path d="M0 0 C0.66 0 1.32 0 2 0 C2 5.61 2 11.22 2 17 C-0.31 17 -2.62 17 -5 17 C-6.67557379 17.28520405 -8.34817245 17.59955696 -10 18 C-10.66 17.01 -11.32 16.02 -12 15 C-9.69 14.01 -7.38 13.02 -5 12 C-5 12.66 -5 13.32 -5 14 C-3.35 14.33 -1.7 14.66 0 15 C0 10.05 0 5.1 0 0 Z " fill="#527BB5" transform="translate(201,19)"/>
<path d="M0 0 C0.66 0 1.32 0 2 0 C2.66 0.66 3.32 1.32 4 2 C5.010625 2.28875 6.02125 2.5775 7.0625 2.875 C8.031875 3.24625 9.00125 3.6175 10 4 C10.875 6.125 10.875 6.125 11 8 C10.34 8 9.68 8 9 8 C8.34 9.32 7.68 10.64 7 12 C7 10.68 7 9.36 7 8 C5.5459375 8.0309375 5.5459375 8.0309375 4.0625 8.0625 C1 8 1 8 0 7 C-0.04092937 4.66702567 -0.04241723 2.33294775 0 0 Z " fill="#4169B3" transform="translate(129,19)"/>
<path d="M0 0 C0.33 0.66 0.66 1.32 1 2 C1.66 2.165 2.32 2.33 3 2.5 C3.66 2.665 4.32 2.83 5 3 C5.33 3.66 5.66 4.32 6 5 C6.66 4.01 7.32 3.02 8 2 C8 2.66 8 3.32 8 4 C8.66 4 9.32 4 10 4 C10 4.66 10 5.32 10 6 C10.99 6 11.98 6 13 6 C13 6.66 13 7.32 13 8 C6.44812362 8.37086093 6.44812362 8.37086093 4.1875 6.5 C3.795625 6.005 3.40375 5.51 3 5 C2.34 5 1.68 5 1 5 C0.525625 5.495 0.05125 5.99 -0.4375 6.5 C-2 8 -2 8 -5 8 C-4.67 6.02 -4.34 4.04 -4 2 C-2.02 2.495 -2.02 2.495 0 3 C0 2.01 0 1.02 0 0 Z " fill="#181818" transform="translate(17,21)"/>
<path d="M0 0 C0.99 0 1.98 0 3 0 C3.05379226 2.95857409 3.09357093 5.91617721 3.125 8.875 C3.14175781 9.71675781 3.15851563 10.55851562 3.17578125 11.42578125 C3.18222656 12.23144531 3.18867188 13.03710938 3.1953125 13.8671875 C3.20578613 14.61081543 3.21625977 15.35444336 3.22705078 16.12060547 C3 18 3 18 1 20 C0.01 20 -0.98 20 -2 20 C-2 19.34 -2 18.68 -2 18 C-1.34 18 -0.68 18 0 18 C0 12.06 0 6.12 0 0 Z " fill="#4270BE" transform="translate(146,16)"/>
<path d="M0 0 C0.99 0.33 1.98 0.66 3 1 C2.71382812 1.56203125 2.42765625 2.1240625 2.1328125 2.703125 C0.98584069 5.02870923 -0.07839794 7.37770201 -1.125 9.75 C-1.47820313 10.54921875 -1.83140625 11.3484375 -2.1953125 12.171875 C-2.46085938 12.77515625 -2.72640625 13.3784375 -3 14 C-3.66 14 -4.32 14 -5 14 C-5.33 15.32 -5.66 16.64 -6 18 C-6.54353795 11.34166014 -5.8282346 7.51716162 -2 2 C-1.34 1.34 -0.68 0.68 0 0 Z " fill="#9E1399" transform="translate(6,5)"/>
<path d="M0 0 C1.32 0.33 2.64 0.66 4 1 C3.01 1 2.02 1 1 1 C1.33 2.98 1.66 4.96 2 7 C2.33 7 2.66 7 3 7 C3.33 11.62 3.66 16.24 4 21 C2.68 20.67 1.36 20.34 0 20 C0 13.4 0 6.8 0 0 Z " fill="#507DCC" transform="translate(208,15)"/>
<path d="M0 0 C1.32 0 2.64 0 4 0 C4.3690205 9.41002278 4.3690205 9.41002278 2 14 C1.01 13.67 0.02 13.34 -1 13 C-0.67 8.71 -0.34 4.42 0 0 Z " fill="#3F72C1" transform="translate(173,20)"/>
<path d="M0 0 C2.25 0.25 2.25 0.25 4 1 C5.125 5.75 5.125 5.75 4 8 C2.02 8 0.04 8 -2 8 C-2.66 6.68 -3.32 5.36 -4 4 C-2.25 1.9375 -2.25 1.9375 0 0 Z " fill="#4A6BA4" transform="translate(147,5)"/>
<path d="M0 0 C0.66 0 1.32 0 2 0 C2.66 1.32 3.32 2.64 4 4 C4.33 2.68 4.66 1.36 5 0 C5.66 0 6.32 0 7 0 C6.67 2.64 6.34 5.28 6 8 C2.7 8 -0.6 8 -4 8 C-2.68 5.36 -1.36 2.72 0 0 Z " fill="#000000" transform="translate(80,41)"/>
<path d="M0 0 C2.4375 2.0625 2.4375 2.0625 4 4 C2.68 4.33 1.36 4.66 0 5 C-0.33 4.01 -0.66 3.02 -1 2 C-4.63 2 -8.26 2 -12 2 C-12 3.65 -12 5.3 -12 7 C-12.66 7 -13.32 7 -14 7 C-13.67 5.02 -13.34 3.04 -13 1 C-8.2567392 -0.96671789 -4.99363771 -1.29464681 0 0 Z " fill="#3B588B" transform="translate(199,14)"/>
<path d="M0 0 C1.6744239 0.6469365 3.34302621 1.30959426 5 2 C5 2.99 5 3.98 5 5 C1.26513121 5.5745952 -2.21293268 6 -6 6 C-6 4.02 -6 2.04 -6 0 C-3.43417606 -1.28291197 -2.6963913 -0.84743727 0 0 Z " fill="#4665A8" transform="translate(113,30)"/>
<path d="M0 0 C-0.99 0.66 -1.98 1.32 -3 2 C-2.67 2.99 -2.34 3.98 -2 5 C-1.01 5 -0.02 5 1 5 C1.33 7.31 1.66 9.62 2 12 C1.34 12 0.68 12 0 12 C0 11.34 0 10.68 0 10 C-1.65 9.67 -3.3 9.34 -5 9 C-3.68 8.34 -2.36 7.68 -1 7 C-2.134375 6.401875 -3.26875 5.80375 -4.4375 5.1875 C-7.875 3.375 -7.875 3.375 -9 0 C-5.62182575 -0.84454356 -3.32534757 -1.10844919 0 0 Z " fill="#3B629C" transform="translate(118,22)"/>
<path d="M0 0 C2.71456107 4.07184161 4.07159223 8.40162518 5.6875 13 C6.02072266 13.91523438 6.35394531 14.83046875 6.69726562 15.7734375 C7.00728516 16.65257813 7.31730469 17.53171875 7.63671875 18.4375 C8.06537231 19.64212891 8.06537231 19.64212891 8.50268555 20.87109375 C9 23 9 23 8 26 C7.67 25.34 7.34 24.68 7 24 C4.97536745 23.34786708 4.97536745 23.34786708 3 23 C3.99 22.67 4.98 22.34 6 22 C5.3503125 20.24623047 5.3503125 20.24623047 4.6875 18.45703125 C4.12458179 16.90900618 3.56210493 15.36082057 3 13.8125 C2.71382813 13.04357422 2.42765625 12.27464844 2.1328125 11.48242188 C0.71215062 7.54177643 -0.40963365 4.25848319 0 0 Z " fill="#384B72" transform="translate(63,10)"/>
<path d="M0 0 C2.9651327 0.32945919 4.78260543 0.84903155 7.25 2.5625 C9.73398489 6.0223361 9.7184615 8.77692253 10 13 C9.34 13 8.68 13 8 13 C6.81640625 11.35546875 6.81640625 11.35546875 5.5625 9.1875 C4.27758742 6.97616142 3.16501761 5.16268795 1.33984375 3.36328125 C0 2 0 2 0 0 Z " fill="#C7B621" transform="translate(33,4)"/>
<path d="M0 0 C1.32 0.66 2.64 1.32 4 2 C3.38909774 8.47556391 3.38909774 8.47556391 1.5625 10.9375 C0 12 0 12 -2 12 C-2.33 12.66 -2.66 13.32 -3 14 C-2.80083984 13.11248047 -2.80083984 13.11248047 -2.59765625 12.20703125 C-1.68994822 8.14553475 -0.7908887 4.08625829 0 0 Z " fill="#4A79CB" transform="translate(89,14)"/>
<path d="M0 0 C3.3 0 6.6 0 10 0 C10 1.98 10 3.96 10 6 C8.88625 5.814375 7.7725 5.62875 6.625 5.4375 C3.17431139 4.68319343 3.17431139 4.68319343 1 6 C0.67 4.02 0.34 2.04 0 0 Z " fill="#4A6FB8" transform="translate(158,15)"/>
<path d="M0 0 C2.33944736 0.28730055 4.6739143 0.61936779 7 1 C7 3 7 5 7 7 C4.6739143 7.38063221 2.33944736 7.71269945 0 8 C-1 7 -1 7 -1.125 4 C-1 1 -1 1 0 0 Z M1 3 C1.33 3.99 1.66 4.98 2 6 C2.33 5.01 2.66 4.02 3 3 C2.34 3 1.68 3 1 3 Z " fill="#000000" transform="translate(154,42)"/>
<path d="M0 0 C3.3 0 6.6 0 10 0 C9.625 2.4375 9.625 2.4375 9 5 C8.01 5.495 8.01 5.495 7 6 C6.67 6.66 6.34 7.32 6 8 C4.02 7.01 2.04 6.02 0 5 C0 3.35 0 1.7 0 0 Z " fill="#3A5788" transform="translate(153,29)"/>
<path d="M0 0 C-0.33 0.99 -0.66 1.98 -1 3 C-4.3 3 -7.6 3 -11 3 C-10.67 5.97 -10.34 8.94 -10 12 C-10.99 11.01 -11.98 10.02 -13 9 C-13 5.5 -13 5.5 -12 2 C-8.1111345 -1.6601087 -5.00521375 -1.07955591 0 0 Z " fill="#365B8B" transform="translate(139,14)"/>
<path d="M0 0 C0.99 0.33 1.98 0.66 3 1 C3.33 3.31 3.66 5.62 4 8 C-0.75 9.125 -0.75 9.125 -3 8 C-2.25 2.25 -2.25 2.25 0 0 Z " fill="#000000" transform="translate(92,41)"/>
<path d="M0 0 C0.625 1.875 0.625 1.875 1 4 C-1.61020066 6.61020066 -3.37516738 6.63751674 -7 7 C-9.375 6.5625 -9.375 6.5625 -11 6 C-10 3 -10 3 -9 2 C-2.47457627 1.76271186 -2.47457627 1.76271186 0 3 C0 2.01 0 1.02 0 0 Z " fill="#4D79B7" transform="translate(139,30)"/>
<path d="M0 0 C0.33 1.65 0.66 3.3 1 5 C-2.3 4.67 -5.6 4.34 -9 4 C-9.33 3.01 -9.66 2.02 -10 1 C-6.61981469 -0.04005702 -3.5219721 -0.08004482 0 0 Z " fill="#3C6CB2" transform="translate(63,23)"/>
<path d="M0 0 C0.33 0 0.66 0 1 0 C1.14285714 7.42857143 1.14285714 7.42857143 0 11 C0.99 10.67 1.98 10.34 3 10 C2.67 10.99 2.34 11.98 2 13 C0.35 13 -1.3 13 -3 13 C-2.52060632 8.28596212 -2.03165952 4.33420699 0 0 Z " fill="#4D66A2" transform="translate(48,23)"/>
<path d="M0 0 C2 2 2 2 2 5 C2.99 5.33 3.98 5.66 5 6 C6.1875 9.5625 6.1875 9.5625 7 13 C6.34 13 5.68 13 5 13 C4.67 11.02 4.34 9.04 4 7 C2.35 7.66 0.7 8.32 -1 9 C-1.68707555 6.50935112 -2 4.62113708 -2 2 C-1.34 1.34 -0.68 0.68 0 0 Z " fill="#4970B3" transform="translate(100,15)"/>
<path d="M0 0 C0.66 0 1.32 0 2 0 C2 0.99 2 1.98 2 3 C2.66 3 3.32 3 4 3 C4 3.99 4 4.98 4 6 C3.01 6.495 3.01 6.495 2 7 C1.67 7.99 1.34 8.98 1 10 C-0.32 9.34 -1.64 8.68 -3 8 C-2.01 5.36 -1.02 2.72 0 0 Z " fill="#111111" transform="translate(16,14)"/>
<path d="M0 0 C6.08695652 0.54347826 6.08695652 0.54347826 9 2 C9 3.98 9 5.96 9 8 C7.35 7.67 5.7 7.34 4 7 C4 6.34 4 5.68 4 5 C4.66 5 5.32 5 6 5 C5.67 4.34 5.34 3.68 5 3 C2.67843403 2.59270772 0.3431213 2.25561323 -2 2 C-1.34 1.34 -0.68 0.68 0 0 Z " fill="#345480" transform="translate(115,13)"/>
<path d="M0 0 C2.1875 0.75 2.1875 0.75 5 2 C6.27030287 2.54290953 7.54114984 3.0845475 8.8125 3.625 C10.3903125 4.305625 10.3903125 4.305625 12 5 C12 5.33 12 5.66 12 6 C3 6 3 6 0.3125 3.5 C-0.450625 2.675 -1.21375 1.85 -2 1 C-1.34 0.67 -0.68 0.34 0 0 Z " fill="#1456AE" transform="translate(6,34)"/>
<path d="M0 0 C0.66 0 1.32 0 2 0 C2.33 2.64 2.66 5.28 3 8 C0.69 8 -1.62 8 -4 8 C-2.68 5.36 -1.36 2.72 0 0 Z " fill="#000000" transform="translate(131,41)"/>
<path d="M0 0 C0.99 0.66 1.98 1.32 3 2 C1.64978174 6.41889613 -0.26115668 8.34345343 -4 11 C-4.75 9.3125 -4.75 9.3125 -5 7 C-3.125 4.375 -3.125 4.375 -1 2 C-0.67 1.34 -0.34 0.68 0 0 Z " fill="#21BD32" transform="translate(40,28)"/>
<path d="M0 0 C3.93774177 -0.36630156 5.56539771 -0.30233203 8.875 2 C9.926875 2.99 9.926875 2.99 11 4 C6.70700357 5.26264601 4.12168689 4.62950412 0 3 C0 2.01 0 1.02 0 0 Z " fill="#C35317" transform="translate(25,0)"/>
<path d="M0 0 C1.32 0 2.64 0 4 0 C4 1.32 4 2.64 4 4 C1.69 4.33 -0.62 4.66 -3 5 C-3.33 5.99 -3.66 6.98 -4 8 C-4.66 8 -5.32 8 -6 8 C-6 6.02 -6 4.04 -6 2 C-3.36 2 -0.72 2 2 2 C1.34 1.34 0.68 0.68 0 0 Z " fill="#3E5986" transform="translate(132,27)"/>
<path d="M0 0 C0.66 0 1.32 0 2 0 C2 2.64 2 5.28 2 8 C0.35 7.67 -1.3 7.34 -3 7 C-2.38722388 4.03824877 -1.74627478 2.61941217 0 0 Z " fill="#597DC5" transform="translate(105,28)"/>
<path d="M0 0 C1.32 0.33 2.64 0.66 4 1 C3.67 5.62 3.34 10.24 3 15 C2.67 15 2.34 15 2 15 C1.93941406 14.33613281 1.87882813 13.67226563 1.81640625 12.98828125 C1.20136493 6.45091919 1.20136493 6.45091919 0 0 Z " fill="#4C6DB4" transform="translate(170,15)"/>
<path d="M0 0 C2 1 2 1 2.8125 3.25 C3.05385534 6.78987828 2.15276323 8.23216156 0 11 C-0.99 11.33 -1.98 11.66 -3 12 C-3 10.35 -3 8.7 -3 7 C-1.68 7.33 -0.36 7.66 1 8 C0.67 5.36 0.34 2.72 0 0 Z " fill="#3D5386" transform="translate(167,24)"/>
<path d="M0 0 C-0.97608217 2.92824652 -2.10786631 4.61426621 -4 7 C-4 5.68 -4 4.36 -4 3 C-5.65 2.67 -7.3 2.34 -9 2 C-5.5647952 -0.29013653 -4.014669 -0.17842973 0 0 Z " fill="#4E7BC5" transform="translate(140,24)"/>
<path d="M0 0 C1.32 1.65 2.64 3.3 4 5 C2 8 2 8 -1.125 8.6875 C-2.07375 8.790625 -3.0225 8.89375 -4 9 C-4.33 8.34 -4.66 7.68 -5 7 C-3.35 6.34 -1.7 5.68 0 5 C0 3.35 0 1.7 0 0 Z " fill="#5184C1" transform="translate(119,28)"/>
<path d="M0 0 C-0.33 0.99 -0.66 1.98 -1 3 C-3.5625 4.1875 -3.5625 4.1875 -6 5 C-6.66 4.01 -7.32 3.02 -8 2 C-4.77208445 -0.1519437 -3.71599191 -0.20086443 0 0 Z " fill="#C31D73" transform="translate(15,2)"/>
<path d="M0 0 C0.66 0 1.32 0 2 0 C2 2.97 2 5.94 2 9 C1.01 9 0.02 9 -1 9 C-0.67 6.03 -0.34 3.06 0 0 Z " fill="#5614C0" transform="translate(1,19)"/>
<path d="M0 0 C2.97 0.33 5.94 0.66 9 1 C9 1.33 9 1.66 9 2 C7.35 2 5.7 2 4 2 C4 2.66 4 3.32 4 4 C2.68 4.33 1.36 4.66 0 5 C0 3.35 0 1.7 0 0 Z " fill="#4F7CCA" transform="translate(187,16)"/>
<path d="M0 0 C0.66 1.32 1.32 2.64 2 4 C0.02 4.66 -1.96 5.32 -4 6 C-4.66 5.01 -5.32 4.02 -6 3 C-4.02 2.01 -2.04 1.02 0 0 Z " fill="#5D82BD" transform="translate(195,31)"/>
<path d="M0 0 C0.99 0.33 1.98 0.66 3 1 C3 2.98 3 4.96 3 7 C2.01 7.33 1.02 7.66 0 8 C0 5.36 0 2.72 0 0 Z " fill="#425E90" transform="translate(122,25)"/>
<path d="M0 0 C0.66 0 1.32 0 2 0 C2 1.98 2 3.96 2 6 C-0.97 5.67 -3.94 5.34 -7 5 C-7 4.34 -7 3.68 -7 3 C-5.02 3 -3.04 3 -1 3 C-0.67 2.01 -0.34 1.02 0 0 Z " fill="#324B72" transform="translate(139,15)"/>
<path d="M0 0 C1.0625 1.8125 1.0625 1.8125 2 4 C1.67 4.99 1.34 5.98 1 7 C0.34 7 -0.32 7 -1 7 C-1.33 8.32 -1.66 9.64 -2 11 C-2 8.36 -2 5.72 -2 3 C-1.34 3 -0.68 3 0 3 C0 2.01 0 1.02 0 0 Z " fill="#AF18E8" transform="translate(2,12)"/>
<path d="M0 0 C0.33 0 0.66 0 1 0 C1 2.97 1 5.94 1 9 C1.66 9.33 2.32 9.66 3 10 C2.34 10.66 1.68 11.32 1 12 C0.01 12 -0.98 12 -2 12 C-2 11.34 -2 10.68 -2 10 C-1.34 10 -0.68 10 0 10 C0 6.7 0 3.4 0 0 Z " fill="#3E69A9" transform="translate(146,24)"/>
<path d="M0 0 C0.33 0 0.66 0 1 0 C1.33 4.62 1.66 9.24 2 14 C1.01 13.67 0.02 13.34 -1 13 C-0.67 8.71 -0.34 4.42 0 0 Z " fill="#4A8BCD" transform="translate(173,20)"/>
<path d="M0 0 C0.33 0.66 0.66 1.32 1 2 C1.66 2 2.32 2 3 2 C3 2.66 3 3.32 3 4 C3.99 4 4.98 4 6 4 C6 4.66 6 5.32 6 6 C4.02 6 2.04 6 0 6 C0 4.02 0 2.04 0 0 Z " fill="#222222" transform="translate(24,23)"/>
<path d="M0 0 C0.33 0 0.66 0 1 0 C1.125 6.625 1.125 6.625 0 10 C-0.99 9.67 -1.98 9.34 -3 9 C-2.01 6.03 -1.02 3.06 0 0 Z " fill="#3C5888" transform="translate(52,11)"/>
<path d="M0 0 C0.33 0 0.66 0 1 0 C1 1.65 1 3.3 1 5 C-1.3125 5.625 -1.3125 5.625 -4 6 C-4.99 5.34 -5.98 4.68 -7 4 C-5.02 3.67 -3.04 3.34 -1 3 C-0.67 2.01 -0.34 1.02 0 0 Z " fill="#445C90" transform="translate(182,31)"/>
<path d="M0 0 C0.66 0.33 1.32 0.66 2 1 C2.625 3.5625 2.625 3.5625 3 6 C2.01 6.495 2.01 6.495 1 7 C1 6.34 1 5.68 1 5 C-0.32 4.67 -1.64 4.34 -3 4 C-2.01 3.67 -1.02 3.34 0 3 C0 2.01 0 1.02 0 0 Z " fill="#3E5E8B" transform="translate(69,29)"/>
<path d="M0 0 C0.66 0 1.32 0 2 0 C2.33 1.65 2.66 3.3 3 5 C1.35 4.67 -0.3 4.34 -2 4 C-1.34 2.68 -0.68 1.36 0 0 Z " fill="#476FC2" transform="translate(198,29)"/>
<path d="M0 0 C1.32 0.66 2.64 1.32 4 2 C4 2.66 4 3.32 4 4 C2.35 4.33 0.7 4.66 -1 5 C-1 4.34 -1 3.68 -1 3 C-1.66 2.67 -2.32 2.34 -3 2 C-2.01 1.34 -1.02 0.68 0 0 Z " fill="#4779C6" transform="translate(117,22)"/>
<path d="M0 0 C0 1.98 0 3.96 0 6 C-2.31 5.01 -4.62 4.02 -7 3 C-7 2.67 -7 2.34 -7 2 C-1.125 0 -1.125 0 0 0 Z " fill="#496EB1" transform="translate(164,24)"/>
<path d="M0 0 C0.99 0.33 1.98 0.66 3 1 C2.1875 2.9375 2.1875 2.9375 1 5 C0.01 5.33 -0.98 5.66 -2 6 C-1.34 4.02 -0.68 2.04 0 0 Z " fill="#E017C5" transform="translate(6,5)"/>
<path d="M0 0 C3 1 3 1 3 1 Z " fill="#000000" transform="translate(124,42)"/>
<path d="M0 0 C0.99 0.495 0.99 0.495 2 1 C1.01 1.495 1.01 1.495 0 2 C0 1.34 0 0.68 0 0 Z " fill="#000000" transform="translate(52,6)"/>
<path d="M0 0 C2 1 2 1 2 1 Z " fill="#000000" transform="translate(242,36)"/>
<path d="" fill="#000000" transform="translate(0,0)"/>
<path d="M0 0 C2 1 2 1 2 1 Z " fill="#000000" transform="translate(151,13)"/>
<path d="" fill="#000000" transform="translate(0,0)"/>
<path d="" fill="#000000" transform="translate(0,0)"/>
<path d="" fill="#000000" transform="translate(0,0)"/>
<path d="" fill="#000000" transform="translate(0,0)"/>
<path d="" fill="#000000" transform="translate(0,0)"/>
<path d="" fill="#000000" transform="translate(0,0)"/>
<path d="" fill="#000000" transform="translate(0,0)"/>
<path d="" fill="#000000" transform="translate(0,0)"/>
<path d="" fill="#000000" transform="translate(0,0)"/>
<path d="" fill="#000000" transform="translate(0,0)"/>
<path d="" fill="#000000" transform="translate(0,0)"/>
<path d="" fill="#000000" transform="translate(0,0)"/>
<path d="" fill="#000000" transform="translate(0,0)"/>
<path d="" fill="#000000" transform="translate(0,0)"/>
<path d="" fill="#000000" transform="translate(0,0)"/>
<path d="" fill="#000000" transform="translate(0,0)"/>
<path d="" fill="#000000" transform="translate(0,0)"/>
<path d="" fill="#000000" transform="translate(0,0)"/>
<path d="" fill="#000000" transform="translate(0,0)"/>
<path d="" fill="#000000" transform="translate(0,0)"/>
<path d="" fill="#000000" transform="translate(0,0)"/>
<path d="" fill="#000000" transform="translate(0,0)"/>
<path d="" fill="#000000" transform="translate(0,0)"/>
<path d="" fill="#000000" transform="translate(0,0)"/>
<path d="" fill="#000000" transform="translate(0,0)"/>
<path d="" fill="#000000" transform="translate(0,0)"/>
<path d="" fill="#000000" transform="translate(0,0)"/>
<path d="" fill="#000000" transform="translate(0,0)"/>
<path d="" fill="#000000" transform="translate(0,0)"/>
<path d="" fill="#000000" transform="translate(0,0)"/>
<path d="" fill="#000000" transform="translate(0,0)"/>
<path d="" fill="#000000" transform="translate(0,0)"/>
<path d="" fill="#000000" transform="translate(0,0)"/>
<path d="" fill="#000000" transform="translate(0,0)"/>
<path d="" fill="#000000" transform="translate(0,0)"/>
<path d="" fill="#000000" transform="translate(0,0)"/>
<path d="" fill="#000000" transform="translate(0,0)"/>
<path d="" fill="#000000" transform="translate(0,0)"/>
<path d="" fill="#000000" transform="translate(0,0)"/>
<path d="" fill="#000000" transform="translate(0,0)"/>
<path d="" fill="#000000" transform="translate(0,0)"/>
<path d="" fill="#000000" transform="translate(0,0)"/>
<path d="" fill="#000000" transform="translate(0,0)"/>
<path d="" fill="#000000" transform="translate(0,0)"/>
<path d="" fill="#000000" transform="translate(0,0)"/>
<path d="" fill="#000000" transform="translate(0,0)"/>
<path d="" fill="#000000" transform="translate(0,0)"/>
<path d="" fill="#000000" transform="translate(0,0)"/>
<path d="" fill="#000000" transform="translate(0,0)"/>
<path d="" fill="#000000" transform="translate(0,0)"/>
<path d="" fill="#000000" transform="translate(0,0)"/>
<path d="" fill="#000000" transform="translate(0,0)"/>
<path d="" fill="#000000" transform="translate(0,0)"/>
<path d="" fill="#000000" transform="translate(0,0)"/>
<path d="" fill="#000000" transform="translate(0,0)"/>
<path d="" fill="#000000" transform="translate(0,0)"/>
<path d="" fill="#000000" transform="translate(0,0)"/>
<path d="" fill="#000000" transform="translate(0,0)"/>
<path d="" fill="#000000" transform="translate(0,0)"/>
<path d="" fill="#000000" transform="translate(0,0)"/>
<path d="" fill="#000000" transform="translate(0,0)"/>
<path d="" fill="#000000" transform="translate(0,0)"/>
<path d="" fill="#000000" transform="translate(0,0)"/>
<path d="" fill="#000000" transform="translate(0,0)"/>
<path d="" fill="#000000" transform="translate(0,0)"/>
<path d="" fill="#000000" transform="translate(0,0)"/>
<path d="" fill="#000000" transform="translate(0,0)"/>
<path d="" fill="#000000" transform="translate(0,0)"/>
<path d="" fill="#000000" transform="translate(0,0)"/>
<path d="" fill="#000000" transform="translate(0,0)"/>
<path d="" fill="#000000" transform="translate(0,0)"/>
<path d="" fill="#000000" transform="translate(0,0)"/>
<path d="" fill="#000000" transform="translate(0,0)"/>
<path d="" fill="#000000" transform="translate(0,0)"/>
<path d="" fill="#000000" transform="translate(0,0)"/>
<path d="" fill="#000000" transform="translate(0,0)"/>
<path d="" fill="#000000" transform="translate(0,0)"/>
<path d="" fill="#000000" transform="translate(0,0)"/>
<path d="" fill="#000000" transform="translate(0,0)"/>
<path d="" fill="#000000" transform="translate(0,0)"/>
<path d="" fill="#000000" transform="translate(0,0)"/>
<path d="" fill="#000000" transform="translate(0,0)"/>
<path d="" fill="#000000" transform="translate(0,0)"/>
<path d="" fill="#000000" transform="translate(0,0)"/>
<path d="" fill="#000000" transform="translate(0,0)"/>
<path d="" fill="#000000" transform="translate(0,0)"/>
<path d="" fill="#000000" transform="translate(0,0)"/>
<path d="" fill="#000000" transform="translate(0,0)"/>
<path d="" fill="#000000" transform="translate(0,0)"/>
<path d="" fill="#000000" transform="translate(0,0)"/>
<path d="" fill="#000000" transform="translate(0,0)"/>
<path d="" fill="#000000" transform="translate(0,0)"/>
<path d="" fill="#000000" transform="translate(0,0)"/>
<path d="" fill="#000000" transform="translate(0,0)"/>
<path d="" fill="#000000" transform="translate(0,0)"/>
<path d="" fill="#000000" transform="translate(0,0)"/>
<path d="" fill="#000000" transform="translate(0,0)"/>
<path d="" fill="#000000" transform="translate(0,0)"/>
<path d="" fill="#000000" transform="translate(0,0)"/>
<path d="" fill="#000000" transform="translate(0,0)"/>
<path d="" fill="#000000" transform="translate(0,0)"/>
<path d="" fill="#000000" transform="translate(0,0)"/>
<path d="" fill="#000000" transform="translate(0,0)"/>
<path d="" fill="#000000" transform="translate(0,0)"/>
<path d="" fill="#000000" transform="translate(0,0)"/>
<path d="" fill="#000000" transform="translate(0,0)"/>
<path d="" fill="#000000" transform="translate(0,0)"/>
<path d="" fill="#000000" transform="translate(0,0)"/>
<path d="" fill="#000000" transform="translate(0,0)"/>
<path d="" fill="#000000" transform="translate(0,0)"/>
<path d="" fill="#000000" transform="translate(0,0)"/>
<path d="" fill="#000000" transform="translate(0,0)"/>
<path d="" fill="#000000" transform="translate(0,0)"/>
<path d="" fill="#000000" transform="translate(0,0)"/>
<path d="" fill="#000000" transform="translate(0,0)"/>
<path d="" fill="#000000" transform="translate(0,0)"/>
<path d="" fill="#000000" transform="translate(0,0)"/>
<path d="" fill="#000000" transform="translate(0,0)"/>
<path d="" fill="#000000" transform="translate(0,0)"/>
<path d="" fill="#000000" transform="translate(0,0)"/>
<path d="" fill="#000000" transform="translate(0,0)"/>
<path d="" fill="#000000" transform="translate(0,0)"/>
<path d="" fill="#000000" transform="translate(0,0)"/>
<path d="" fill="#000000" transform="translate(0,0)"/>
<path d="" fill="#000000" transform="translate(0,0)"/>
<path d="" fill="#000000" transform="translate(0,0)"/>
<path d="" fill="#000000" transform="translate(0,0)"/>
<path d="" fill="#000000" transform="translate(0,0)"/>
<path d="" fill="#000000" transform="translate(0,0)"/>
<path d="" fill="#000000" transform="translate(0,0)"/>
<path d="" fill="#000000" transform="translate(0,0)"/>
<path d="" fill="#000000" transform="translate(0,0)"/>
<path d="" fill="#000000" transform="translate(0,0)"/>
<path d="" fill="#000000" transform="translate(0,0)"/>
<path d="" fill="#000000" transform="translate(0,0)"/>
<path d="" fill="#000000" transform="translate(0,0)"/>
<path d="" fill="#000000" transform="translate(0,0)"/>
<path d="" fill="#000000" transform="translate(0,0)"/>
<path d="" fill="#000000" transform="translate(0,0)"/>
<path d="" fill="#000000" transform="translate(0,0)"/>
<path d="" fill="#000000" transform="translate(0,0)"/>
<path d="" fill="#000000" transform="translate(0,0)"/>
<path d="" fill="#000000" transform="translate(0,0)"/>
<path d="" fill="#000000" transform="translate(0,0)"/>
<path d="" fill="#000000" transform="translate(0,0)"/>
<path d="" fill="#000000" transform="translate(0,0)"/>
<path d="" fill="#000000" transform="translate(0,0)"/>
<path d="" fill="#000000" transform="translate(0,0)"/>
</svg>
