<?xml version="1.0" encoding="UTF-8"?>
<svg version="1.1" xmlns="http://www.w3.org/2000/svg" width="320" height="180">
<path d="M0 0 C105.6 0 211.2 0 320 0 C320 59.4 320 118.8 320 180 C214.4 180 108.8 180 0 180 C0 120.6 0 61.2 0 0 Z " fill="#010101" transform="translate(0,0)"/>
<path d="M0 0 C7.074375 -0.28875 14.14875 -0.5775 21.4375 -0.875 C24.76026001 -1.06618408 24.76026001 -1.06618408 28.15014648 -1.26123047 C41.68144424 -1.71105561 41.68144424 -1.71105561 45.85772705 1.37097168 C49.79075456 5.66068023 53 11.08885284 53 17 C43.1 17 33.2 17 23 17 C23 21.29 23 25.58 23 30 C32.24 30 41.48 30 51 30 C51 35.61 51 41.22 51 47 C41.76 47 32.52 47 23 47 C23 50.96 23 54.92 23 59 C35.87 59 48.74 59 62 59 C62 64.94 62 70.88 62 77 C41.54 77 21.08 77 0 77 C0 51.59 0 26.18 0 0 Z " fill="#FAFAFA" transform="translate(85,91)"/>
<path d="M0 0 C4.06153166 -0.23272688 8.12135243 -0.37454311 12.1875 -0.5 C13.33798828 -0.56703125 14.48847656 -0.6340625 15.67382812 -0.703125 C23.97477976 -0.89561083 23.97477976 -0.89561083 26.7824707 1.55712891 C28.11317076 3.65000563 29.06852608 5.70365629 30 8 C30.66370479 9.26283634 31.33647043 10.52096491 32.01953125 11.7734375 C32.62134159 12.97188132 33.2190559 14.17239143 33.8125 15.375 C34.27946289 16.29732422 34.27946289 16.29732422 34.75585938 17.23828125 C37 21.74629121 37 21.74629121 37 24 C37.66 24 38.32 24 39 24 C39.23589844 23.19175781 39.47179687 22.38351563 39.71484375 21.55078125 C41.29093365 17.1961742 43.36685091 13.25621466 45.5625 9.1875 C45.97435547 8.41212891 46.38621094 7.63675781 46.81054688 6.83789062 C49.85226739 1.14773261 49.85226739 1.14773261 51 0 C52.85369611 -0.08737645 54.71067541 -0.10698153 56.56640625 -0.09765625 C57.69111328 -0.09443359 58.81582031 -0.09121094 59.97460938 -0.08789062 C61.15861328 -0.07951172 62.34261719 -0.07113281 63.5625 -0.0625 C64.75037109 -0.05798828 65.93824219 -0.05347656 67.16210938 -0.04882812 C70.10812226 -0.03699675 73.05403681 -0.02051287 76 0 C74.52724053 3.96723723 72.65838949 7.52454876 70.55078125 11.19140625 C70.21507614 11.77736069 69.87937103 12.36331512 69.53349304 12.96702576 C68.4628585 14.83394271 67.38771995 16.69822099 66.3125 18.5625 C65.60973762 19.78694388 64.90726131 21.011552 64.20507812 22.23632812 C63.85919144 22.8378067 63.51330475 23.43928528 63.15693665 24.05899048 C62.45913279 25.27581381 61.76496443 26.49472895 61.0743866 27.71566772 C59.45625797 30.55989193 57.80450373 33.28535416 55.95239258 35.98876953 C50.32892971 44.41427686 49.98235622 51.97904583 50.0625 61.75 C50.04935641 63.23701015 50.03309941 64.72399617 50.01367188 66.2109375 C49.96758981 69.80934546 49.98503271 73.39929834 50 77 C42.08 77 34.16 77 26 77 C26.06703125 74.93363281 26.1340625 72.86726563 26.203125 70.73828125 C26.5248769 53.24700629 25.07419504 40.8452825 14.5703125 26.22509766 C12.16508793 22.81694828 10.10013184 19.22567785 8 15.625 C7.319375 14.50351563 6.63875 13.38203125 5.9375 12.2265625 C0 2.33870968 0 2.33870968 0 0 Z " fill="#F8F8F8" transform="translate(137,91)"/>
<path d="M0 0 C0 9.57 0 19.14 0 29 C-13.34285274 31.40269418 -26.68584734 33.80459588 -40.02906799 36.20524597 C-45.91375791 37.26413534 -51.7982521 38.32409132 -57.68234253 39.38630676 C-65.36648049 40.7734381 -73.05188099 42.15326546 -80.73898315 43.52388 C-85.8793 44.44080553 -91.01860795 45.36315169 -96.15722656 46.28955078 C-102.03626923 47.3490114 -107.91637007 48.40238844 -113.79767895 49.44919872 C-117.05634323 50.02942887 -120.31426706 50.61338591 -123.57131958 51.2026062 C-127.21678778 51.86155081 -130.86396848 52.51007555 -134.51171875 53.15625 C-136.16513779 53.45874413 -136.16513779 53.45874413 -137.85195923 53.76734924 C-139.37676407 54.03429848 -139.37676407 54.03429848 -140.93237305 54.30664062 C-141.81845749 54.46539673 -142.70454193 54.62415283 -143.61747742 54.78771973 C-146.03236673 55.00288384 -147.70784544 54.73987254 -150 54 C-148.87694458 53.60059204 -148.87694458 53.60059204 -147.73120117 53.19311523 C-144.84743744 52.16693788 -141.96402224 51.1397878 -139.08081055 50.11206055 C-137.26180747 49.46397473 -135.44243492 48.81692617 -133.62304688 48.16992188 C-123.38791763 44.52039858 -113.19117976 40.77029298 -103 37 C-101.41708093 36.41461226 -99.83415456 35.82924425 -98.2512207 35.24389648 C-97.47208817 34.95577591 -96.69295563 34.66765533 -95.89021301 34.37080383 C-64.149089 22.63423218 -64.149089 22.63423218 -51.7355957 18.34204102 C-27.78611026 10.06162342 -27.78611026 10.06162342 -4.19140625 0.8359375 C-2 0 -2 0 0 0 Z " fill="#F9E305" transform="translate(237,12)"/>
<path d="M0 0 C0.99 0.33 1.98 0.66 3 1 C-0.59146544 2.83673118 -4.265815 4.42200771 -7.9765625 6 C-10.15661496 6.94286166 -10.15661496 6.94286166 -12 9 C-15.625 9.125 -15.625 9.125 -19 9 C-19.23976563 9.64582031 -19.47953125 10.29164062 -19.7265625 10.95703125 C-21 13 -21 13 -23.0234375 13.57421875 C-24.18746094 13.63029297 -24.18746094 13.63029297 -25.375 13.6875 C-28.36937215 13.86275589 -31.14529777 14.02537699 -34 15 C-34.33 15.66 -34.66 16.32 -35 17 C-34.34 17.33 -33.68 17.66 -33 18 C-33 19.65 -33 21.3 -33 23 C-28.59085217 24.10228696 -24.51617599 24.07654536 -20 24 C-23.36789591 25.9305936 -26.54252585 26.61563859 -30.35058594 27.296875 C-31.64003113 27.53051758 -32.92947632 27.76416016 -34.25799561 28.00488281 C-35.66674431 28.25350706 -37.07553869 28.50187262 -38.484375 28.75 C-39.94256025 29.01097055 -41.4006686 29.27237107 -42.85870361 29.53417969 C-45.92123188 30.08269873 -48.98448255 30.6269237 -52.04833984 31.16796875 C-55.92884559 31.85343314 -59.80766859 32.54789965 -63.68600082 33.24554443 C-66.70393211 33.78759426 -69.72261036 34.3253879 -72.74152374 34.86193848 C-74.16869943 35.11594891 -75.59568438 35.37103396 -77.02245331 35.62731934 C-86.98476251 37.41278322 -96.94797072 38.8326325 -107 40 C-104.23109585 38.1540639 -102.01470309 37.1811543 -98.90625 36.08203125 C-97.87371094 35.71400391 -96.84117188 35.34597656 -95.77734375 34.96679688 C-94.69582031 34.58587891 -93.61429688 34.20496094 -92.5 33.8125 C-81.63457117 29.95946234 -70.81204759 26.00003651 -60 22 C-58.41488415 21.41379713 -56.82976055 20.82761523 -55.24462891 20.24145508 C-54.46654877 19.95372223 -53.68846863 19.66598938 -52.8868103 19.36953735 C-19.92845922 7.1830011 -19.92845922 7.1830011 -5.234375 2.13671875 C-2.15946625 1.13196298 -2.15946625 1.13196298 0 0 Z " fill="#FAE407" transform="translate(194,27)"/>
<path d="M0 0 C-3.36789591 1.9305936 -6.54252585 2.61563859 -10.35058594 3.296875 C-11.64003113 3.53051758 -12.92947632 3.76416016 -14.25799561 4.00488281 C-15.66674431 4.25350706 -17.07553869 4.50187262 -18.484375 4.75 C-19.94256025 5.01097055 -21.4006686 5.27237107 -22.85870361 5.53417969 C-25.92123188 6.08269873 -28.98448255 6.6269237 -32.04833984 7.16796875 C-35.92884559 7.85343314 -39.80766859 8.54789965 -43.68600082 9.24554443 C-46.70393211 9.78759426 -49.72261036 10.3253879 -52.74152374 10.86193848 C-54.16869943 11.11594891 -55.59568438 11.37103396 -57.02245331 11.62731934 C-66.98476251 13.41278322 -76.94797072 14.8326325 -87 16 C-84.15974166 14.10649444 -81.82004929 13.109927 -78.625 11.9765625 C-77.02205078 11.40421875 -77.02205078 11.40421875 -75.38671875 10.8203125 C-74.26910156 10.42585938 -73.15148437 10.03140625 -72 9.625 C-69.81244438 8.84651045 -67.62494397 8.06786573 -65.4375 7.2890625 C-64.36628906 6.91168945 -63.29507813 6.53431641 -62.19140625 6.14550781 C-60.06544116 5.38242426 -57.94796916 4.59524771 -55.83984375 3.78417969 C-54.86144531 3.40938477 -53.88304687 3.03458984 -52.875 2.6484375 C-51.57175781 2.13676025 -51.57175781 2.13676025 -50.2421875 1.61474609 C-48 1 -48 1 -45 2 C-45 2.99 -45 3.98 -45 5 C-36.6084499 5.37966043 -29.00235715 4.25666501 -20.8125 2.5 C-13.77188441 1.00543444 -7.21588962 -0.3524244 0 0 Z " fill="#F1E82D" transform="translate(174,51)"/>
<path d="M0 0 C0 9.57 0 19.14 0 29 C-3.34125 29.66 -6.6825 30.32 -10.125 31 C-11.16672363 31.20882812 -12.20844727 31.41765625 -13.28173828 31.6328125 C-17.91660032 32.53143549 -22.25213646 33.25577716 -27 33 C-23.34257578 30.56171719 -19.87133945 30.07794133 -15.625 29.375 C-14.86960938 29.2409375 -14.11421875 29.106875 -13.3359375 28.96875 C-9.41666024 28.29726543 -6.03456818 28 -2 28 C-2.33 20.74 -2.66 13.48 -3 6 C-7.59164161 4.63316596 -7.59164161 4.63316596 -10.25 5.8125 C-12.15074924 6.89399368 -12.15074924 6.89399368 -13 9 C-15.02623767 9.22876877 -17.05286281 9.45512888 -19.08203125 9.65625 C-21.56403624 10.10109 -22.32032983 11.17427155 -24 13 C-29.41508823 15.05773353 -34.303993 15.23249008 -40 15 C-37.51243881 13.34162587 -35.94617608 12.537949 -33.19140625 11.66796875 C-32.44979248 11.42916992 -31.70817871 11.19037109 -30.9440918 10.94433594 C-30.1581665 10.69458008 -29.37224121 10.44482422 -28.5625 10.1875 C-21.20858427 7.79878441 -14.0937571 5.0832708 -7 2 C-2.26712329 0 -2.26712329 0 0 0 Z " fill="#E6DB28" transform="translate(237,12)"/>
<path d="M0 0 C0.99 0.33 1.98 0.66 3 1 C-0.59146544 2.83673118 -4.265815 4.42200771 -7.9765625 6 C-10.15661496 6.94286166 -10.15661496 6.94286166 -12 9 C-15.625 9.125 -15.625 9.125 -19 9 C-19.37511719 9.97453125 -19.37511719 9.97453125 -19.7578125 10.96875 C-20.16773438 11.6390625 -20.57765625 12.309375 -21 13 C-23.08797202 13.26941574 -25.18061587 13.52034132 -27.28125 13.66015625 C-33.46357517 14.4329469 -39.81987967 16.54658645 -45 20 C-46.32 20 -47.64 20 -49 20 C-49 20.66 -49 21.32 -49 22 C-56.5 23.5 -56.5 23.5 -64 25 C-60.43541983 21.89723718 -56.38120945 20.46541924 -52 18.890625 C-51.21526306 18.60267563 -50.43052612 18.31472626 -49.62200928 18.01805115 C-47.08371018 17.08871989 -44.54198759 16.16918859 -42 15.25 C-40.2657821 14.61740488 -38.53173261 13.98434789 -36.79785156 13.35083008 C-26.30728891 9.52547338 -15.79580211 5.76235572 -5.234375 2.13671875 C-2.15946625 1.13196298 -2.15946625 1.13196298 0 0 Z " fill="#E3D831" transform="translate(194,27)"/>
<path d="M0 0 C-5.86215164 3.14819255 -11.5811453 5.26375242 -18 7 C-15.03 7.495 -15.03 7.495 -12 8 C-16.4554901 10.97032674 -21.21495765 11.30270231 -26.4375 12.1875 C-27.48744141 12.37763672 -28.53738281 12.56777344 -29.61914062 12.76367188 C-31.13604492 13.02567383 -31.13604492 13.02567383 -32.68359375 13.29296875 C-34.06889282 13.53309692 -34.06889282 13.53309692 -35.48217773 13.77807617 C-37.9631637 13.99675321 -39.64994803 13.76683734 -42 13 C-41.20940186 12.71801758 -40.41880371 12.43603516 -39.60424805 12.14550781 C-36.6165224 11.07969435 -33.62890553 10.01357663 -30.64135742 8.94726562 C-29.35852202 8.48946506 -28.07564572 8.03177907 -26.79272461 7.57421875 C-24.92810984 6.90917039 -23.0636639 6.24364873 -21.19921875 5.578125 C-19.98540527 5.14693359 -18.7715918 4.71574219 -17.52099609 4.27148438 C-15.25009026 3.4514263 -12.98657971 2.61044433 -10.73291016 1.74414062 C-9.75499512 1.36966797 -8.77708008 0.99519531 -7.76953125 0.609375 C-6.48912964 0.10615723 -6.48912964 0.10615723 -5.18286133 -0.40722656 C-3 -1 -3 -1 0 0 Z " fill="#E2D939" transform="translate(129,53)"/>
<path d="M0 0 C0.66 0 1.32 0 2 0 C2 9.57 2 19.14 2 29 C-1.34125 29.66 -4.6825 30.32 -8.125 31 C-9.68758545 31.31324219 -9.68758545 31.31324219 -11.28173828 31.6328125 C-15.91660032 32.53143549 -20.25213646 33.25577716 -25 33 C-21.34257578 30.56171719 -17.87133945 30.07794133 -13.625 29.375 C-12.86960938 29.2409375 -12.11421875 29.106875 -11.3359375 28.96875 C-7.49491264 28.31067231 -3.90840948 27.93620659 0 28 C-0.03552979 27.18732666 -0.07105957 26.37465332 -0.10766602 25.53735352 C-0.26461673 21.87927511 -0.41366434 18.22091718 -0.5625 14.5625 C-0.61857422 13.28310547 -0.67464844 12.00371094 -0.73242188 10.68554688 C-0.78076172 9.47060547 -0.82910156 8.25566406 -0.87890625 7.00390625 C-0.9260376 5.87799072 -0.97316895 4.7520752 -1.02172852 3.59204102 C-1 1 -1 1 0 0 Z " fill="#E8E14C" transform="translate(235,12)"/>
<path d="M0 0 C-0.99 0.33 -1.98 0.66 -3 1 C-3.33 1.66 -3.66 2.32 -4 3 C-4.99 3 -5.98 3 -7 3 C-7.33 3.99 -7.66 4.98 -8 6 C-14.15234375 6.09765625 -14.15234375 6.09765625 -16 6 C-16.33 5.67 -16.66 5.34 -17 5 C-18.51469448 4.76807135 -20.03754562 4.58784762 -21.5625 4.4375 C-22.38878906 4.35371094 -23.21507812 4.26992188 -24.06640625 4.18359375 C-24.70449219 4.12300781 -25.34257812 4.06242187 -26 4 C-26 3.67 -26 3.34 -26 3 C-22.4192122 2.29876984 -18.8350783 1.6164242 -15.25 0.9375 C-13.72632813 0.63875977 -13.72632813 0.63875977 -12.171875 0.33398438 C-10.70234375 0.05844727 -10.70234375 0.05844727 -9.203125 -0.22265625 C-8.30239258 -0.39547119 -7.40166016 -0.56828613 -6.47363281 -0.74633789 C-3.9979814 -1.000207 -2.34682951 -0.7687064 0 0 Z " fill="#1F1903" transform="translate(191,50)"/>
<path d="M0 0 C1.5625 1.6875 1.5625 1.6875 3 4 C2.875 6.625 2.875 6.625 2 9 C-1.72540662 11.48360441 -3.63062973 11.2315867 -8.07421875 11.1953125 C-8.7580513 11.1924826 -9.44188385 11.18965271 -10.1464386 11.18673706 C-12.32697165 11.17555684 -14.50709145 11.15045691 -16.6875 11.125 C-18.16731177 11.11496738 -19.64712999 11.10584202 -21.12695312 11.09765625 C-24.751436 11.07562481 -28.37567766 11.04111002 -32 11 C-32 10.67 -32 10.34 -32 10 C-22.1 10 -12.2 10 -2 10 C-2.66 8.02 -3.32 6.04 -4 4 C-2.68 2.68 -1.36 1.36 0 0 Z " fill="#3E3E3E" transform="translate(140,98)"/>
<path d="M0 0 C3.98548651 0.50302257 7.79902339 0.64789312 11.8125 0.5625 C11.8125 0.8925 11.8125 1.2225 11.8125 1.5625 C7.77495175 2.28001496 3.73645665 2.99191346 -0.30297852 3.69873047 C-1.67564286 3.93971902 -3.04804384 4.18221294 -4.42016602 4.42626953 C-6.39789235 4.77776968 -8.37667245 5.12332421 -10.35546875 5.46875 C-11.54422607 5.67822266 -12.7329834 5.88769531 -13.95776367 6.10351562 C-16.76431413 6.5023602 -19.36055293 6.65572167 -22.1875 6.5625 C-20.85416667 5.89583333 -19.52083333 5.22916667 -18.1875 4.5625 C-17.61 4.2325 -17.0325 3.9025 -16.4375 3.5625 C-13.12829863 2.09174384 -9.70678452 1.4139398 -6.1875 0.5625 C-3.74142964 -0.66053518 -2.6790952 -0.37350553 0 0 Z " fill="#F2E631" transform="translate(198.1875,44.4375)"/>
<path d="M0 0 C-0.97582031 0.33773437 -1.95164063 0.67546875 -2.95703125 1.0234375 C-4.24226463 1.47373825 -5.52741665 1.92427126 -6.8125 2.375 C-7.45509766 2.59671875 -8.09769531 2.8184375 -8.75976562 3.046875 C-11.81686717 4.1239885 -14.28592791 5.19061861 -17 7 C-18.32 7 -19.64 7 -21 7 C-21 7.66 -21 8.32 -21 9 C-28.5 10.5 -28.5 10.5 -36 12 C-31.29352954 8.05402629 -25.67283406 6.47433267 -19.95507812 4.44628906 C-18.00157105 3.75055952 -16.05558962 3.03615027 -14.109375 2.3203125 C-12.87703125 1.87945312 -11.6446875 1.43859375 -10.375 0.984375 C-9.24835938 0.57928711 -8.12171875 0.17419922 -6.9609375 -0.24316406 C-4.06304612 -0.98388498 -2.74040853 -1.06775674 0 0 Z " fill="#E1D73F" transform="translate(166,40)"/>
<path d="M0 0 C-0.33 0.99 -0.66 1.98 -1 3 C-3.58157368 3.53132389 -6.16461756 4.05034379 -8.75 4.5625 C-9.47960937 4.71396484 -10.20921875 4.86542969 -10.9609375 5.02148438 C-14.66557073 5.74557178 -17.39322322 6.09817231 -21 5 C-18.25435036 3.96588523 -15.5045139 2.94748843 -12.75 1.9375 C-11.97269531 1.64294922 -11.19539063 1.34839844 -10.39453125 1.04492188 C-9.26337891 0.6340332 -9.26337891 0.6340332 -8.109375 0.21484375 C-7.41811523 -0.04176025 -6.72685547 -0.29836426 -6.01464844 -0.56274414 C-3.67968529 -1.06952056 -2.24624397 -0.74214139 0 0 Z " fill="#E1DF57" transform="translate(108,61)"/>
<path d="M0 0 C0.66 0 1.32 0 2 0 C2 0.66 2 1.32 2 2 C4.97 2 7.94 2 11 2 C8.59195432 4.40804568 6.57796225 5.00768759 3.375 6.125 C2.37210938 6.47820313 1.36921875 6.83140625 0.3359375 7.1953125 C-0.82035156 7.59363281 -0.82035156 7.59363281 -2 8 C-2.33 7.34 -2.66 6.68 -3 6 C-1.68 6 -0.36 6 1 6 C0.67 4.02 0.34 2.04 0 0 Z " fill="#181401" transform="translate(224,10)"/>
<path d="M0 0 C3.3 0.33 6.6 0.66 10 1 C7.50448842 3.49551158 5.33923374 4.07575992 2 5.1875 C0.9275 5.55230469 -0.145 5.91710938 -1.25 6.29296875 C-4 7 -4 7 -6 6 C-5.195625 5.566875 -4.39125 5.13375 -3.5625 4.6875 C-0.72153646 3.19525998 -0.72153646 3.19525998 0 0 Z " fill="#171101" transform="translate(124,48)"/>
<path d="M0 0 C-0.33 0.99 -0.66 1.98 -1 3 C-1.66 3 -2.32 3 -3 3 C-3 3.66 -3 4.32 -3 5 C-6.68754757 4.50168276 -8.60490662 3.89932357 -11 1 C-7.26562152 0.12132271 -3.83225427 -0.08912219 0 0 Z " fill="#1D1803" transform="translate(102,65)"/>
<path d="M0 0 C-6.46720458 2.92067304 -12.99368753 4.79649038 -20 3 C-20 2.67 -20 2.34 -20 2 C-17.41842632 1.46867611 -14.83538244 0.94965621 -12.25 0.4375 C-11.52039063 0.28603516 -10.79078125 0.13457031 -10.0390625 -0.02148438 C-6.33442927 -0.74557178 -3.60677678 -1.09817231 0 0 Z " fill="#322E04" transform="translate(140,59)"/>
<path d="M0 0 C-1.609375 2.015625 -1.609375 2.015625 -4 4 C-7.015625 4.171875 -7.015625 4.171875 -10.25 3.75 C-11.32765625 3.62109375 -12.4053125 3.4921875 -13.515625 3.359375 C-14.74539062 3.18148437 -14.74539062 3.18148437 -16 3 C-16 2.67 -16 2.34 -16 2 C-14.27192682 1.66104344 -12.54248026 1.32908475 -10.8125 1 C-9.84957031 0.814375 -8.88664063 0.62875 -7.89453125 0.4375 C-5.2065794 0.03122388 -2.71228981 -0.07933572 0 0 Z " fill="#3A3007" transform="translate(237,41)"/>
<path d="M0 0 C5.75 -0.125 5.75 -0.125 8 1 C8 1.66 8 2.32 8 3 C6.68 3 5.36 3 4 3 C4 3.66 4 4.32 4 5 C1.03 4.505 1.03 4.505 -2 4 C-1.34 2.68 -0.68 1.36 0 0 Z " fill="#0A010B" transform="translate(183,25)"/>
<path d="M0 0 C0.33 1.65 0.66 3.3 1 5 C-2.63 4.67 -6.26 4.34 -10 4 C-7.02096266 1.02096266 -4.19714671 0 0 0 Z " fill="#E8E20E" transform="translate(119,57)"/>
<path d="M0 0 C2.31 0 4.62 0 7 0 C6.505 0.433125 6.01 0.86625 5.5 1.3125 C3.66781808 2.99740483 3.66781808 2.99740483 4 6 C2.0625 5.6875 2.0625 5.6875 0 5 C-0.33 4.01 -0.66 3.02 -1 2 C-0.67 1.34 -0.34 0.68 0 0 Z " fill="#EED90B" transform="translate(128,51)"/>
<path d="M0 0 C-3.06975587 2.04650391 -5.69084152 2.99704565 -9.1875 4.125 C-10.27417969 4.47820313 -11.36085937 4.83140625 -12.48046875 5.1953125 C-13.31191406 5.46085937 -14.14335937 5.72640625 -15 6 C-15 5.34 -15 4.68 -15 4 C-14.01 3.67 -13.02 3.34 -12 3 C-11.67 2.34 -11.34 1.68 -11 1 C-7.29882394 0.15882362 -3.78728969 -0.11139087 0 0 Z " fill="#1C1601" transform="translate(159,40)"/>
<path d="M0 0 C2.4375 0.375 2.4375 0.375 5 1 C5.33 1.66 5.66 2.32 6 3 C3.36 3.66 0.72 4.32 -2 5 C-2 4.34 -2 3.68 -2 3 C-1.34 3 -0.68 3 0 3 C0 2.01 0 1.02 0 0 Z " fill="#0E0E02" transform="translate(136,44)"/>
<path d="M0 0 C2.31 0.33 4.62 0.66 7 1 C4.3144406 3.6855594 1.62378672 4.06049974 -2 5 C-2.33 4.34 -2.66 3.68 -3 3 C-2.01 3 -1.02 3 0 3 C0 2.01 0 1.02 0 0 Z " fill="#191301" transform="translate(179,29)"/>
<path d="M0 0 C-3.26545761 1.88391785 -6.28111761 2.49287967 -10 3 C-10 2.01 -10 1.02 -10 0 C-6.7169902 -1.6415049 -3.57454967 -0.51888624 0 0 Z " fill="#1F1807" transform="translate(218,19)"/>
<path d="M0 0 C0 0.66 0 1.32 0 2 C-1.45736087 2.19491452 -2.91594593 2.38069358 -4.375 2.5625 C-5.18710938 2.66691406 -5.99921875 2.77132813 -6.8359375 2.87890625 C-9 3 -9 3 -11 2 C-7.17010894 0.19769832 -4.21878192 -0.19622241 0 0 Z " fill="#EEEA1F" transform="translate(224,19)"/>
<path d="M0 0 C1.98 0 3.96 0 6 0 C6 0.99 6 1.98 6 3 C4.02 3 2.04 3 0 3 C0 2.01 0 1.02 0 0 Z " fill="#070319" transform="translate(226,9)"/>
<path d="M0 0 C1.98 0 3.96 0 6 0 C4.02579865 2.52259061 3.03254358 2.9929808 -0.1875 3.6875 C-1.5796875 3.8421875 -1.5796875 3.8421875 -3 4 C-2.67 3.34 -2.34 2.68 -2 2 C-1.34 2 -0.68 2 0 2 C0 1.34 0 0.68 0 0 Z " fill="#05010F" transform="translate(196,22)"/>
<path d="M0 0 C2.64 0 5.28 0 8 0 C5.01353231 1.99097846 2.40312738 2.94124926 -1 4 C-0.67 2.68 -0.34 1.36 0 0 Z " fill="#1F1602" transform="translate(96,60)"/>
<path d="M0 0 C2.31 0 4.62 0 7 0 C6.67 0.99 6.34 1.98 6 3 C3.5625 2.625 3.5625 2.625 1 2 C0.67 1.34 0.34 0.68 0 0 Z " fill="#010011" transform="translate(148,34)"/>
</svg>
