<?xml version="1.0" standalone="no"?>
<!DOCTYPE svg PUBLIC "-//W3C//DTD SVG 20010904//EN"
 "http://www.w3.org/TR/2001/REC-SVG-20010904/DTD/svg10.dtd">
<svg version="1.0" xmlns="http://www.w3.org/2000/svg"
 width="305.000000pt" height="328.000000pt" viewBox="0 0 305.000000 328.000000"
 preserveAspectRatio="xMidYMid meet">

<g transform="translate(0.000000,328.000000) scale(0.100000,-0.100000)"
 stroke="none">
<path d="M1470 3257 c-25 -13 -81 -45 -125 -73 -124 -78 -129 -79 -310 -79
-147 0 -164 -2 -202 -22 -48 -26 -83 -73 -142 -193 -55 -111 -92 -147 -214
-210 -200 -104 -206 -114 -207 -345 0 -180 -6 -202 -90 -325 -111 -163 -111
-247 0 -410 84 -123 90 -145 90 -325 1 -230 8 -243 200 -341 126 -64 167 -106
231 -233 93 -184 127 -203 364 -199 157 3 161 2 312 -96 165 -107 233 -104
421 18 119 77 126 79 312 80 223 1 239 11 332 191 67 130 109 173 231 236 190
98 201 117 202 339 1 186 3 192 81 312 125 193 125 253 0 446 -78 120 -80 126
-81 312 0 184 -5 202 -70 259 -20 17 -81 54 -135 81 -55 27 -115 66 -135 85
-19 20 -58 80 -85 135 -27 54 -64 115 -81 135 -57 65 -75 70 -259 70 -185 1
-203 5 -320 85 -137 93 -229 113 -320 67z m10 -168 c37 -32 36 -33 -23 -5 -40
18 -67 10 -67 -20 0 -20 10 -22 89 -13 80 9 98 5 80 -17 -8 -9 -9 -35 -4 -80
5 -53 4 -65 -7 -62 -8 3 -14 23 -16 49 -4 66 -11 89 -27 89 -11 0 -15 -12 -15
-45 0 -46 -13 -58 -37 -34 -8 8 -9 16 -1 29 15 23 3 52 -19 48 -15 -3 -18 -15
-17 -76 0 -39 -4 -72 -8 -72 -11 0 -15 14 -23 83 -5 47 -10 57 -26 57 -10 0
-19 5 -19 10 0 6 7 10 15 10 10 0 15 10 15 28 0 59 55 70 110 21z m338 -2 c12
-11 22 -25 22 -30 0 -6 8 -19 17 -29 14 -16 15 -21 4 -27 -7 -5 -18 -34 -25
-65 -6 -31 -15 -56 -21 -54 -5 2 -9 10 -8 18 14 100 15 110 4 110 -6 0 -11 7
-11 15 0 9 6 12 16 8 25 -9 13 17 -19 40 -22 17 -29 18 -42 7 -21 -17 -19 -27
6 -33 31 -8 13 -27 -24 -24 -23 1 -32 -3 -35 -15 -2 -12 3 -18 15 -18 11 0 24
-5 31 -12 15 -15 16 -64 1 -73 -17 -11 -23 3 -11 30 6 13 7 27 3 30 -19 11
-40 -8 -43 -38 -3 -34 -21 -40 -26 -9 -2 14 -9 18 -26 15 -27 -6 -49 18 -44
49 3 26 41 37 64 18 11 -10 14 -9 14 9 0 17 -6 21 -34 21 -41 0 -66 8 -66 22
0 5 27 7 70 2 61 -6 70 -4 70 10 0 9 9 25 20 36 22 22 42 18 78 -13z m-536
-24 c38 -33 43 -43 43 -78 0 -22 4 -60 9 -85 7 -39 7 -43 -7 -32 -8 7 -18 33
-22 59 -9 62 -14 73 -34 73 -32 0 -40 -19 -27 -59 26 -74 29 -94 11 -87 -9 3
-27 -2 -41 -11 -30 -19 -74 -5 -74 26 0 10 -7 21 -15 25 -24 9 -17 35 10 42
14 3 25 11 25 16 0 10 -27 6 -65 -9 -12 -4 -16 -2 -13 7 4 13 166 68 202 69
18 1 18 3 -4 26 -13 14 -31 25 -41 25 -20 0 -32 14 -22 24 11 11 21 7 65 -31z
m-256 -104 c11 -10 26 -19 33 -19 8 0 11 -6 7 -17 -4 -9 3 -43 15 -75 12 -32
19 -62 15 -65 -10 -10 -22 7 -41 60 -20 53 -37 66 -60 47 -12 -10 -10 -20 16
-72 30 -60 32 -81 5 -59 -12 10 -18 6 -32 -18 -18 -31 -34 -40 -34 -21 0 6 7
22 16 35 16 24 16 25 -9 25 -15 0 -33 10 -45 25 -11 14 -24 25 -29 24 -42 -7
-21 10 72 60 75 41 79 45 33 38 -21 -3 -40 -2 -43 3 -6 10 18 20 48 20 18 0
19 2 7 10 -8 5 -23 7 -32 4 -12 -4 -18 0 -18 11 0 14 6 16 28 10 15 -3 36 -15
48 -26z m1175 6 c-1 -15 -24 -12 -29 3 -3 9 2 13 12 10 10 -1 17 -7 17 -13z
m-97 -26 c66 -31 78 -42 53 -52 -8 -3 -24 -33 -37 -67 -16 -42 -26 -58 -33
-51 -7 7 -7 19 2 37 6 15 10 27 9 28 -2 0 -13 7 -26 14 -29 16 -45 7 -32 -18
12 -23 13 -40 1 -40 -11 0 -31 55 -31 88 0 17 4 23 14 19 22 -9 33 34 12 48
-18 13 -21 25 -7 25 5 0 39 -14 75 -31z m141 -76 c25 -16 45 -34 45 -41 0 -10
-4 -10 -21 0 -17 11 -22 10 -34 -5 -16 -22 -10 -47 11 -47 8 0 14 -7 14 -15 0
-21 -13 -19 -35 5 -25 27 -38 15 -30 -29 5 -26 4 -33 -4 -25 -7 6 -14 34 -18
63 -6 51 -5 53 15 47 27 -9 43 32 18 46 -14 8 -23 28 -11 28 2 0 25 -12 50
-27z m-403 -36 c299 -79 551 -286 684 -564 127 -265 138 -579 28 -852 -61
-154 -197 -337 -323 -435 -101 -78 -289 -176 -341 -176 -15 0 -31 -5 -36 -10
-19 -19 -166 -40 -282 -40 -118 0 -294 28 -316 50 -5 5 -19 10 -29 10 -29 0
-174 71 -252 124 -91 62 -228 202 -289 293 -224 340 -224 817 0 1155 163 246
422 414 723 468 25 5 111 7 191 6 116 -3 164 -9 242 -29z m514 -54 c9 -34 -6
-57 -40 -61 -22 -3 -25 -6 -15 -18 6 -8 20 -14 30 -14 23 0 53 44 45 65 -7 19
4 19 32 -1 25 -17 29 -34 7 -34 -8 0 -30 -22 -47 -50 -36 -54 -54 -64 -44 -25
5 18 2 25 -8 25 -18 0 -46 38 -46 62 0 10 7 18 15 18 10 0 15 10 15 30 0 25 4
30 25 30 18 0 26 -7 31 -27z m-1620 -59 c-4 -10 8 -32 34 -61 22 -25 40 -50
40 -54 0 -12 -14 -11 -26 1 -7 7 -16 4 -29 -10 -20 -22 -55 -26 -73 -8 -9 9
-9 15 0 25 16 19 -6 43 -24 25 -7 -7 -19 -12 -27 -12 -9 0 7 23 39 55 55 55
77 69 66 39z m1854 -170 c0 -7 -6 -11 -13 -8 -7 2 -32 -16 -57 -41 -24 -25
-48 -45 -52 -45 -15 0 -8 24 13 46 22 24 17 49 -7 40 -17 -7 -29 17 -20 41 6
14 11 12 36 -12 28 -27 32 -28 46 -13 15 14 13 19 -22 57 l-37 42 -48 -47
c-61 -60 -76 -50 -21 15 30 36 40 54 36 72 -4 18 15 3 70 -55 42 -44 76 -85
76 -92z m-1924 -9 c24 -20 44 -41 44 -46 0 -19 -24 -8 -67 32 l-44 41 -20 -23
c-10 -12 -19 -23 -19 -25 0 -2 26 -23 58 -46 43 -32 53 -43 39 -46 -10 -2 -26
3 -35 11 -32 27 -41 28 -52 7 -15 -29 3 -50 44 -51 29 0 30 -1 9 -11 -53 -25
-103 17 -77 66 22 45 4 51 -24 9 -14 -21 -28 -40 -32 -43 -4 -3 -9 -15 -12
-28 -5 -17 0 -26 22 -37 15 -8 30 -20 32 -26 3 -9 12 -10 37 -1 24 9 32 9 29
0 -4 -12 -89 -40 -97 -33 -2 3 -9 14 -15 27 -17 33 -33 32 -44 -2 -11 -30 -11
-30 50 -61 39 -20 57 -34 51 -40 -7 -7 -30 -1 -67 18 -48 23 -58 25 -66 13 -5
-8 -12 -11 -16 -7 -8 8 63 157 113 236 31 48 32 54 18 65 -10 7 -15 22 -13 37
3 21 8 24 45 24 23 0 45 4 50 8 4 5 9 0 11 -11 2 -11 23 -37 48 -57z m2049
-185 c14 -27 25 -53 25 -57 0 -19 -54 -5 -72 18 l-20 24 7 -28 c10 -47 -2 -70
-35 -64 -23 5 -29 2 -35 -16 -10 -35 -16 -6 -7 41 7 45 25 58 30 22 2 -11 10
-20 17 -20 10 0 12 9 8 33 -7 46 18 68 44 38 24 -29 39 -26 19 4 -15 23 -22
55 -11 55 2 0 16 -22 30 -50z m85 -15 c0 -8 -7 -15 -15 -15 -8 0 -15 7 -15 15
0 8 7 15 15 15 8 0 15 -7 15 -15z m-4 -193 c-2 -4 3 -13 11 -21 13 -11 14 -9
11 17 -2 17 2 30 7 29 6 -1 10 -14 10 -29 0 -30 11 -25 17 7 2 11 8 19 13 17
17 -5 6 -45 -21 -73 -23 -24 -24 -29 -15 -70 13 -56 14 -79 1 -79 -5 0 -10 6
-10 14 0 10 -12 13 -47 11 -39 -3 -49 -7 -61 -32 -9 -17 -17 -23 -20 -15 -5
15 43 92 58 92 5 0 12 -4 15 -10 3 -5 15 -10 26 -10 15 0 19 7 19 30 0 40 -19
46 -85 27 -46 -13 -55 -13 -55 -2 0 8 18 19 43 25 74 19 77 21 77 40 0 21 -18
36 -40 32 -8 -1 -23 12 -33 29 -19 34 -40 34 -45 1 -3 -17 2 -22 17 -22 38 0
21 -33 -23 -44 -24 -6 -27 -5 -19 6 6 7 10 27 10 45 -1 63 46 83 82 36 23 -31
29 -14 11 32 -6 15 -7 32 -3 38 3 6 17 -17 30 -52 13 -34 21 -66 19 -69z
m-2345 32 c63 -20 78 -39 31 -39 -24 0 -27 -4 -27 -35 0 -26 -5 -35 -19 -38
-10 -2 -22 2 -27 9 -6 11 -11 11 -21 1 -19 -19 -48 -15 -48 8 0 25 33 42 65
34 21 -5 25 -3 25 15 0 27 -41 46 -53 25 -10 -17 -28 -18 -22 -1 19 54 28 71
32 56 2 -9 29 -24 64 -35z m-61 -244 c22 -40 -26 -80 -58 -48 -16 16 -15 55 1
61 26 11 47 6 57 -13z m2430 -95 c26 -32 -13 -81 -47 -59 -35 22 -23 74 17 74
10 0 23 -7 30 -15z m-2380 -59 c0 -8 -15 -16 -37 -20 -58 -9 -133 -7 -133 4 0
11 27 18 90 23 25 2 53 4 63 5 9 1 17 -4 17 -12z m-35 -87 c5 -29 3 -45 -6
-55 -15 -14 -95 -35 -104 -26 -13 13 -2 22 34 28 53 8 64 17 56 44 -6 20 -11
21 -57 15 -40 -6 -49 -4 -46 6 5 14 42 26 90 28 23 1 27 -4 33 -40z m2390 -15
c13 -5 15 -15 9 -52 -5 -36 -4 -44 7 -40 9 3 14 19 13 42 -1 38 4 44 24 24 31
-31 -1 -98 -46 -98 -44 0 -72 26 -72 65 0 24 7 39 22 49 26 19 22 18 43 10z
m-2369 -99 c8 -13 13 -29 9 -36 -6 -8 2 -9 25 -4 24 5 31 4 28 -6 -4 -12 -127
-59 -154 -59 -7 0 -16 20 -20 47 -6 41 -4 49 16 65 32 26 76 23 96 -7z m2310
-30 c-6 -17 14 -34 50 -44 29 -7 46 -31 22 -31 -7 0 -33 6 -58 14 -38 12 -45
17 -42 37 4 37 11 51 23 44 6 -4 8 -13 5 -20z m-2240 -72 c-10 -10 -19 5 -10
18 6 11 8 11 12 0 2 -7 1 -15 -2 -18z m-36 -6 c0 -12 -80 -47 -108 -47 -27 0
-5 23 38 40 56 22 70 24 70 7z m2299 -2 c48 -24 54 -63 16 -101 -19 -19 -31
-23 -48 -18 -57 17 -76 75 -37 114 24 24 32 25 69 5z m-2280 -48 c6 -8 14 -27
17 -44 5 -28 2 -33 -45 -61 -31 -19 -53 -27 -57 -21 -3 6 -4 13 -1 15 3 3 -3
14 -14 25 -22 22 -25 49 -7 67 20 20 46 13 65 -18 15 -27 36 -37 34 -17 -1 4
-1 13 -1 21 0 7 -9 16 -20 19 -11 3 -20 10 -20 16 0 16 35 14 49 -2z m2212
-73 c62 -33 86 -54 60 -54 -5 0 -11 -12 -13 -27 -4 -41 -49 -54 -86 -26 -29
22 -41 66 -22 88 9 11 7 16 -9 25 -22 11 -28 30 -10 30 6 0 42 -16 80 -36z
m-2151 -59 c12 -20 19 -42 16 -50 -7 -20 -86 -76 -97 -69 -16 10 -9 19 31 44
41 25 52 56 25 66 -8 3 -31 -4 -50 -16 -24 -15 -40 -19 -46 -13 -7 7 6 21 38
41 26 17 51 31 55 31 3 1 16 -15 28 -34z m2110 -71 c22 -15 40 -33 40 -41 0
-15 -6 -13 -53 20 -15 10 -34 16 -42 13 -27 -10 -17 -45 20 -68 19 -13 35 -29
35 -35 0 -18 -4 -17 -60 20 -44 28 -65 57 -42 57 4 0 13 14 19 30 14 37 32 38
83 4z m-1980 -53 c0 -10 -117 -101 -130 -101 -25 0 -4 29 53 71 57 43 77 50
77 30z m1889 -43 c55 -46 68 -66 50 -71 -11 -3 -138 107 -133 115 9 15 22 8
83 -44z m-1884 -35 c13 -16 25 -37 25 -48 0 -21 -57 -85 -77 -85 -21 0 -15 14
17 45 30 29 37 65 13 72 -6 2 -27 -10 -46 -26 -37 -33 -47 -37 -47 -20 0 9 78
87 88 89 2 0 14 -12 27 -27z m1824 -102 c33 -79 36 -111 14 -118 -8 -3 -11 6
-10 24 2 25 -4 31 -55 56 -32 15 -58 32 -58 37 0 14 17 12 51 -6 39 -20 45
-14 25 25 -9 16 -16 37 -16 46 0 34 18 11 49 -64z m-1737 12 c18 -16 25 -63 9
-63 -5 0 -12 11 -15 25 -4 14 -13 25 -21 25 -19 0 -19 -2 2 -44 13 -29 14 -38
3 -51 -7 -8 -21 -15 -30 -15 -23 0 -61 47 -53 66 8 20 23 17 23 -5 0 -21 27
-48 37 -37 4 3 -1 22 -10 42 -28 58 10 98 55 57z m1650 -65 c47 -58 60 -85 53
-109 -9 -26 -48 -51 -69 -43 -25 9 -19 22 12 26 19 2 28 9 30 26 4 26 -3 28
-24 7 -9 -8 -24 -15 -35 -15 -27 0 -69 44 -69 72 0 20 44 76 61 77 4 1 22 -18
41 -41z m-1552 24 c0 -4 -6 -14 -12 -21 -11 -10 -10 -15 5 -25 9 -7 17 -17 17
-21 0 -13 -64 -104 -72 -105 -16 0 -7 29 22 68 35 48 36 51 13 48 -22 -3 -63
-56 -56 -73 3 -7 -1 -13 -10 -13 -27 0 -26 28 3 67 16 21 30 42 30 47 0 21 60
48 60 28z m40 -27 c0 -8 -4 -15 -9 -15 -13 0 -22 16 -14 24 11 11 23 6 23 -9z
m35 -57 c-2 -18 -8 -32 -13 -31 -15 4 -55 -65 -48 -82 8 -21 -10 -27 -25 -9
-11 13 -9 24 15 65 15 27 24 49 19 49 -9 0 38 39 48 40 4 0 5 -15 4 -32z
m1379 -19 c30 -35 32 -56 10 -87 -24 -35 -70 -30 -94 11 -26 42 -25 53 5 82
32 33 48 31 79 -6z m-115 -56 c43 -82 47 -93 32 -93 -14 0 -93 148 -86 160 3
5 8 10 10 10 2 0 22 -35 44 -77z m-1239 37 c0 -6 -9 -29 -21 -51 -15 -31 -17
-44 -9 -54 17 -21 38 -7 61 37 14 27 24 37 31 30 6 -6 3 -23 -11 -48 -36 -68
-34 -67 -75 -50 -43 18 -47 45 -16 106 19 38 40 53 40 30z m127 -55 c-1 -19
-4 -35 -9 -35 -14 0 -39 -61 -33 -80 5 -14 2 -20 -10 -20 -24 0 -29 28 -11 66
9 19 16 42 16 51 0 12 35 53 46 53 1 0 2 -16 1 -35z m1069 -8 c49 -42 31 -117
-26 -117 -33 0 -70 40 -70 76 0 21 41 64 61 64 4 0 20 -11 35 -23z m-994 -39
c21 -17 30 -49 19 -67 -7 -11 -15 -11 -45 -1 -42 13 -49 11 -40 -15 5 -12 14
-15 34 -11 33 6 44 -2 29 -21 -27 -32 -91 3 -91 50 0 60 53 97 94 65z m875 0
c6 -7 15 -26 21 -43 5 -16 13 -38 17 -47 5 -12 2 -18 -8 -18 -8 0 -22 20 -32
46 -12 32 -22 44 -34 42 -17 -4 -19 -29 -6 -87 11 -46 -14 -38 -30 10 -26 75
-27 79 -12 79 8 0 20 7 27 15 15 18 44 20 57 3z m-193 -23 c6 -22 9 -23 31
-13 21 9 29 9 41 -4 21 -21 46 -106 33 -114 -14 -8 -18 -3 -32 47 -10 33 -18
44 -32 44 -22 0 -25 -23 -11 -84 6 -26 5 -32 -5 -29 -14 5 -60 156 -52 171 8
14 21 6 27 -18z m-394 -5 c0 -5 -7 -10 -15 -10 -8 0 -15 -7 -15 -15 0 -8 5
-15 10 -15 6 0 10 -4 10 -10 0 -5 -7 -10 -15 -10 -9 0 -15 -9 -15 -24 0 -40
-12 -86 -23 -86 -6 0 -8 21 -4 55 3 30 2 57 -3 60 -16 10 24 65 48 65 12 0 22
-4 22 -10z m170 -10 c0 -5 -11 -10 -25 -10 -23 0 -24 -3 -27 -77 -2 -50 -7
-78 -15 -81 -10 -3 -13 17 -13 77 0 79 -1 81 -24 81 -14 0 -28 5 -31 10 -4 6
20 10 64 10 41 0 71 -4 71 -10z m-272 -23 c6 -5 12 -26 12 -46 0 -40 -16 -68
-40 -71 -34 -5 -50 1 -66 25 -13 20 -14 30 -4 60 16 50 57 63 98 32z m469 -12
c8 -22 -4 -30 -20 -16 -32 26 -59 -16 -41 -63 8 -20 43 -21 50 -1 9 23 26 18
22 -7 -5 -33 -51 -47 -78 -23 -11 10 -20 24 -20 31 0 9 -11 11 -37 8 -62 -9
-67 -12 -53 -29 17 -20 37 -19 49 2 5 10 13 14 17 10 15 -14 -12 -42 -44 -45
-55 -6 -84 76 -42 118 33 33 75 20 93 -30 5 -13 6 -13 6 0 1 9 8 26 17 38 18
26 71 31 81 7z"/>
<path d="M1621 2976 c-15 -18 1 -30 29 -21 24 8 26 21 4 29 -21 8 -20 8 -33
-8z"/>
<path d="M1186 2971 c-4 -5 -3 -16 0 -25 4 -10 -2 -17 -20 -22 -33 -8 -34 -28
-1 -22 29 6 45 -9 21 -18 -18 -7 -22 -34 -6 -34 12 0 50 36 50 48 0 4 -5 24
-11 45 -10 36 -22 46 -33 28z"/>
<path d="M926 2851 c-9 -14 4 -40 26 -52 29 -15 42 2 27 34 -12 26 -42 36 -53
18z"/>
<path d="M2067 2898 c-6 -22 6 -38 31 -38 18 0 33 43 18 52 -21 14 -44 8 -49
-14z"/>
<path d="M1454 2665 c14 -118 37 -408 32 -412 -7 -7 -2 -19 -80 212 -36 105
-65 185 -65 179 -1 -7 19 -98 44 -204 25 -106 44 -197 42 -203 -1 -5 -46 79
-99 187 -135 274 -136 266 -9 -64 33 -84 59 -156 57 -158 -2 -2 -59 77 -126
175 -67 98 -127 183 -133 188 -12 12 -21 29 95 -180 52 -93 100 -181 107 -195
13 -26 -63 49 -217 215 l-94 100 137 -183 c75 -101 135 -185 133 -187 -2 -2
-80 59 -173 136 -94 78 -177 146 -185 152 -8 6 61 -67 155 -161 93 -95 166
-172 162 -172 -7 0 -213 123 -329 196 -21 14 -38 23 -38 21 0 -2 77 -62 170
-133 94 -71 167 -130 163 -131 -5 -2 -91 33 -192 77 -101 44 -185 79 -187 77
-2 -1 41 -27 94 -56 221 -123 273 -153 270 -157 -2 -2 -92 21 -199 51 -106 30
-197 54 -202 52 -4 -1 75 -33 175 -71 101 -38 189 -75 196 -81 9 -8 -27 -6
-120 6 -183 25 -254 33 -248 27 3 -3 82 -22 175 -43 245 -54 246 -65 10 -66
l-190 -2 180 -17 c99 -10 182 -19 185 -20 18 -6 -45 -19 -96 -19 -33 -1 -67
-7 -76 -13 -41 -33 -288 -355 -288 -376 0 -5 12 -35 26 -66 22 -48 24 -61 15
-88 -6 -17 -8 -34 -5 -37 3 -3 155 -8 337 -11 l332 -5 83 -30 82 -30 82 29 82
29 333 -8 c183 -4 333 -4 333 -1 0 2 -10 21 -21 41 -22 36 -22 37 -3 97 l18
61 -28 51 c-80 146 -165 310 -163 312 1 2 35 -2 75 -7 41 -6 78 -9 84 -7 5 2
-72 17 -173 33 -101 16 -186 30 -188 32 -14 11 31 18 211 33 l203 17 -207 2
c-129 0 -208 5 -208 11 0 11 -11 8 220 60 96 21 168 39 160 39 -8 1 -87 -8
-175 -19 -88 -11 -173 -21 -188 -23 -59 -7 0 21 185 89 103 37 186 70 184 71
-2 2 -95 -21 -207 -51 -111 -31 -205 -54 -207 -52 -2 2 57 37 130 77 174 95
257 142 238 136 -8 -3 -97 -40 -198 -82 -101 -42 -185 -75 -188 -73 -2 3 71
60 163 128 164 120 214 159 163 128 -144 -87 -351 -208 -357 -208 -4 0 64 73
152 161 l160 162 -160 -128 c-88 -71 -168 -135 -177 -143 -42 -36 -9 14 118
178 75 96 138 180 141 185 3 6 -34 -33 -83 -85 -150 -162 -246 -256 -233 -230
6 14 49 90 94 170 98 174 107 190 102 190 -2 0 -59 -79 -127 -176 -67 -96
-124 -173 -126 -171 -2 2 33 95 77 206 44 112 78 205 77 206 -2 2 -48 -84
-103 -191 -55 -107 -101 -191 -103 -186 -1 4 20 102 48 216 28 115 49 210 47
212 -1 2 -36 -94 -77 -212 -41 -119 -76 -211 -78 -205 -2 6 6 105 18 221 12
116 20 215 18 221 -2 6 -21 -81 -42 -193 -20 -111 -41 -214 -45 -228 -10 -30
-17 43 -28 285 l-7 160 -8 -145 c-13 -239 -20 -312 -28 -304 -4 5 -24 106 -45
224 -36 204 -55 284 -41 175z m55 -874 l44 -23 -8 -166 c-3 -92 -10 -170 -13
-174 -4 -4 -38 7 -77 24 -96 43 -201 48 -384 18 -152 -24 -291 -36 -316 -27
-12 5 -14 11 -5 27 15 28 218 282 242 303 16 14 40 17 122 17 55 1 128 7 161
15 83 19 179 14 234 -14z m424 -1 c57 -18 115 -30 149 -30 30 0 62 -6 70 -12
9 -7 47 -67 83 -133 37 -66 74 -132 83 -146 8 -15 12 -34 9 -43 -8 -21 -77
-15 -257 22 -89 19 -156 26 -235 27 -98 0 -117 -3 -175 -28 -35 -15 -71 -25
-78 -22 -11 4 -13 33 -7 158 4 83 12 163 19 177 15 33 92 59 178 60 49 0 94
-8 161 -30z m-517 -346 c29 -7 62 -23 75 -35 l24 -20 -34 5 c-34 6 -34 6 -16
-14 15 -17 16 -20 2 -20 -11 0 -13 -6 -10 -21 5 -19 3 -21 -18 -16 -176 41
-173 40 -323 21 -154 -20 -332 -22 -349 -5 -8 8 6 11 50 11 34 0 133 9 220 21
148 20 271 21 353 4 14 -2 7 2 -15 9 -58 21 -199 19 -360 -4 -154 -22 -250
-25 -260 -10 -4 6 16 10 52 10 32 0 144 11 250 25 188 24 267 24 368 0 11 -3
4 3 -15 12 -56 26 -177 27 -360 3 -227 -30 -274 -34 -304 -26 -50 12 -26 26
47 26 39 0 117 7 172 16 210 34 348 37 451 8z m654 -19 c85 -13 181 -26 213
-30 62 -7 69 -25 9 -25 -21 0 -116 14 -212 31 -193 34 -306 36 -370 5 -19 -9
-26 -13 -15 -10 11 4 74 9 140 11 101 4 139 1 245 -20 69 -14 136 -28 150 -30
16 -3 9 -5 -17 -6 -23 0 -89 8 -145 19 -147 29 -269 27 -354 -5 -83 -31 -93
-31 -63 1 l24 25 -28 -10 c-37 -14 -37 -14 -37 10 0 26 53 49 140 58 80 9 123
6 320 -24z m-480 -87 c53 -73 52 -119 -5 -138 -39 -13 -93 -2 -108 21 -6 9 -7
27 -4 40 8 32 64 119 77 119 5 0 24 -19 40 -42z m457 21 c59 -12 144 -24 188
-28 44 -3 80 -10 80 -16 0 -19 -65 -16 -172 6 -143 30 -321 32 -411 5 -62 -19
-86 -16 -64 6 19 19 142 47 209 47 34 1 111 -9 170 -20z m-706 -29 c51 -10
106 -36 96 -47 -3 -2 -43 3 -89 12 -88 18 -176 17 -373 -5 -112 -13 -205 -3
-205 20 0 5 52 7 118 4 79 -3 143 0 197 10 98 17 185 19 256 6z m797 -24 c90
-14 166 -27 170 -30 10 -11 -113 -6 -233 9 -141 17 -210 19 -291 5 -32 -6 -71
-12 -86 -15 -32 -5 -37 9 -9 25 65 34 239 37 449 6z m-786 -27 c29 -6 57 -15
63 -20 10 -10 -520 -12 -602 -3 -96 12 -55 22 70 17 67 -2 149 0 182 5 85 14
225 14 287 1z m718 -9 c74 -11 161 -20 193 -20 31 0 57 -4 57 -9 0 -8 -352 -9
-587 -2 -53 1 -56 18 -5 27 141 27 183 27 342 4z"/>
<path d="M1378 1753 c7 -3 16 -2 19 1 4 3 -2 6 -13 5 -11 0 -14 -3 -6 -6z"/>
<path d="M1290 1741 c0 -5 9 -7 20 -4 11 3 20 7 20 9 0 2 -9 4 -20 4 -11 0
-20 -4 -20 -9z"/>
<path d="M1440 1739 c0 -5 9 -9 20 -9 11 0 20 2 20 4 0 2 -9 6 -20 9 -11 3
-20 1 -20 -4z"/>
<path d="M1220 1730 c0 -5 4 -10 9 -10 6 0 13 5 16 10 3 6 -1 10 -9 10 -9 0
-16 -4 -16 -10z"/>
<path d="M1148 1723 c6 -2 18 -2 25 0 6 3 1 5 -13 5 -14 0 -19 -2 -12 -5z"/>
<path d="M1318 1693 c6 -2 18 -2 25 0 6 3 1 5 -13 5 -14 0 -19 -2 -12 -5z"/>
<path d="M1230 1680 c0 -5 6 -10 14 -10 8 0 18 5 21 10 3 6 -3 10 -14 10 -12
0 -21 -4 -21 -10z"/>
<path d="M1415 1680 c28 -12 57 -12 50 0 -3 6 -21 10 -38 9 -27 0 -29 -2 -12
-9z"/>
<path d="M1030 1670 c0 -5 14 -10 30 -10 17 0 30 5 30 10 0 6 -13 10 -30 10
-16 0 -30 -4 -30 -10z"/>
<path d="M1158 1673 c7 -3 16 -2 19 1 4 3 -2 6 -13 5 -11 0 -14 -3 -6 -6z"/>
<path d="M1330 1640 c0 -5 9 -10 21 -10 11 0 17 5 14 10 -3 6 -13 10 -21 10
-8 0 -14 -4 -14 -10z"/>
<path d="M1258 1633 c7 -3 16 -2 19 1 4 3 -2 6 -13 5 -11 0 -14 -3 -6 -6z"/>
<path d="M1170 1620 c0 -5 9 -10 20 -10 11 0 20 5 20 10 0 6 -9 10 -20 10 -11
0 -20 -4 -20 -10z"/>
<path d="M1420 1620 c0 -5 7 -10 16 -10 8 0 12 5 9 10 -3 6 -10 10 -16 10 -5
0 -9 -4 -9 -10z"/>
<path d="M980 1609 c0 -5 11 -9 25 -9 14 0 25 2 25 4 0 2 -11 6 -25 8 -14 3
-25 1 -25 -3z"/>
<path d="M1090 1610 c-13 -8 -13 -10 2 -10 9 0 20 5 23 10 8 13 -5 13 -25 0z"/>
<path d="M1317 1594 c-13 -13 -7 -24 14 -24 11 0 19 5 17 12 -5 14 -22 21 -31
12z"/>
<path d="M1235 1580 c-3 -5 3 -10 14 -10 12 0 21 5 21 10 0 6 -6 10 -14 10 -8
0 -18 -4 -21 -10z"/>
<path d="M1400 1571 c0 -12 28 -22 35 -12 3 5 -2 12 -11 15 -21 8 -24 8 -24
-3z"/>
<path d="M1140 1560 c0 -5 11 -10 25 -10 14 0 25 5 25 10 0 6 -11 10 -25 10
-14 0 -25 -4 -25 -10z"/>
<path d="M940 1550 c0 -5 14 -10 30 -10 17 0 30 5 30 10 0 6 -13 10 -30 10
-16 0 -30 -4 -30 -10z"/>
<path d="M1050 1550 c0 -5 9 -10 19 -10 11 0 23 5 26 10 4 6 -5 10 -19 10 -14
0 -26 -4 -26 -10z"/>
<path d="M1660 1740 c-12 -8 -11 -10 7 -10 12 0 25 5 28 10 8 13 -15 13 -35 0z"/>
<path d="M1820 1740 c19 -13 30 -13 30 0 0 6 -10 10 -22 10 -19 0 -20 -2 -8
-10z"/>
<path d="M1888 1723 c7 -3 16 -2 19 1 4 3 -2 6 -13 5 -11 0 -14 -3 -6 -6z"/>
<path d="M1960 1710 c0 -5 7 -10 15 -10 8 0 15 5 15 10 0 6 -7 10 -15 10 -8 0
-15 -4 -15 -10z"/>
<path d="M1683 1690 c-13 -5 -23 -12 -23 -14 0 -8 64 5 75 15 12 12 -23 11
-52 -1z"/>
<path d="M1785 1690 c3 -5 13 -10 21 -10 8 0 14 5 14 10 0 6 -9 10 -21 10 -11
0 -17 -4 -14 -10z"/>
<path d="M1868 1673 c6 -2 18 -2 25 0 6 3 1 5 -13 5 -14 0 -19 -2 -12 -5z"/>
<path d="M1948 1663 c6 -2 18 -2 25 0 6 3 1 5 -13 5 -14 0 -19 -2 -12 -5z"/>
<path d="M1750 1640 c0 -5 11 -10 25 -10 14 0 25 5 25 10 0 6 -11 10 -25 10
-14 0 -25 -4 -25 -10z"/>
<path d="M2053 1643 c9 -2 25 -2 35 0 9 3 1 5 -18 5 -19 0 -27 -2 -17 -5z"/>
<path d="M1850 1630 c0 -6 7 -10 15 -10 8 0 15 2 15 4 0 2 -7 6 -15 10 -8 3
-15 1 -15 -4z"/>
<path d="M1675 1620 c-3 -5 1 -10 9 -10 8 0 18 5 21 10 3 6 -1 10 -9 10 -8 0
-18 -4 -21 -10z"/>
<path d="M1928 1613 c7 -3 16 -2 19 1 4 3 -2 6 -13 5 -11 0 -14 -3 -6 -6z"/>
<path d="M2008 1593 c6 -2 18 -2 25 0 6 3 1 5 -13 5 -14 0 -19 -2 -12 -5z"/>
<path d="M2095 1590 c3 -5 17 -10 31 -10 14 0 22 4 19 10 -3 6 -17 10 -31 10
-14 0 -22 -4 -19 -10z"/>
<path d="M1770 1580 c0 -5 9 -10 20 -10 11 0 20 5 20 10 0 6 -9 10 -20 10 -11
0 -20 -4 -20 -10z"/>
<path d="M1690 1570 c-12 -8 -11 -10 7 -10 12 0 25 5 28 10 8 13 -15 13 -35 0z"/>
<path d="M1855 1570 c3 -5 13 -10 21 -10 8 0 14 5 14 10 0 6 -9 10 -21 10 -11
0 -17 -4 -14 -10z"/>
<path d="M1930 1554 c0 -8 11 -14 25 -14 14 0 25 4 25 9 0 5 -11 11 -25 13
-17 4 -25 1 -25 -8z"/>
<path d="M2025 1540 c3 -5 15 -10 26 -10 10 0 19 5 19 10 0 6 -12 10 -26 10
-14 0 -23 -4 -19 -10z"/>
<path d="M2133 1523 c9 -2 23 -2 30 0 6 3 -1 5 -18 5 -16 0 -22 -2 -12 -5z"/>
<path d="M748 1973 c6 -2 18 -2 25 0 6 3 1 5 -13 5 -14 0 -19 -2 -12 -5z"/>
<path d="M2408 1733 c7 -3 16 -2 19 1 4 3 -2 6 -13 5 -11 0 -14 -3 -6 -6z"/>
<path d="M1404 1049 c3 -17 6 -51 6 -76 0 -24 3 -42 8 -40 11 8 2 147 -10 147
-6 0 -8 -12 -4 -31z"/>
<path d="M1660 1055 c0 -22 -3 -24 -29 -19 -23 5 -32 2 -40 -14 -25 -48 -8
-84 43 -88 l36 -3 0 74 c0 41 -2 75 -5 75 -3 0 -5 -11 -5 -25z m-9 -49 c13
-28 -3 -66 -27 -66 -23 0 -38 43 -25 69 15 28 39 27 52 -3z"/>
<path d="M1215 1050 c-29 -8 -30 -8 -4 -9 24 -1 27 -6 34 -47 11 -76 26 -98
19 -29 -3 33 -7 64 -7 69 -1 5 9 13 23 17 24 7 24 7 -5 7 -16 0 -43 -4 -60 -8z"/>
<path d="M1478 1033 c-14 -3 -18 -15 -18 -49 0 -24 5 -44 10 -44 6 0 10 18 10
40 0 71 55 64 63 -8 l4 -37 1 41 c3 56 -16 71 -70 57z"/>
<path d="M1146 973 c19 -76 23 -87 30 -81 7 8 -27 138 -36 138 -5 0 -2 -26 6
-57z"/>
<path d="M1716 1008 c-21 -29 -20 -51 2 -71 37 -33 82 -9 82 43 0 49 -57 67
-84 28z m64 -4 c21 -24 1 -69 -30 -69 -20 0 -26 6 -28 28 -6 48 31 74 58 41z"/>
<path d="M1070 1019 c0 -5 27 -103 36 -128 2 -8 7 -11 10 -9 6 7 -25 120 -37
133 -5 5 -9 7 -9 4z"/>
<path d="M1836 991 c-15 -52 -17 -83 -7 -77 6 4 11 16 11 26 0 32 12 50 33 50
25 0 14 13 -13 15 -11 1 -22 -5 -24 -14z"/>
<path d="M1916 974 c-19 -18 -21 -65 -4 -82 14 -14 54 -16 63 -3 3 6 -6 9 -21
8 -15 -1 -31 5 -37 15 -16 25 -4 31 37 20 33 -10 36 -9 36 12 0 43 -44 61 -74
30z m52 -6 c17 -17 15 -28 -5 -28 -26 0 -47 16 -39 29 9 14 29 14 44 -1z"/>
<path d="M2320 2760 c0 -13 5 -20 13 -17 6 2 12 10 12 17 0 7 -6 15 -12 18 -8
2 -13 -5 -13 -18z"/>
<path d="M695 2670 c-3 -6 1 -17 10 -26 9 -9 13 -24 10 -35 -8 -26 11 -24 25
2 18 32 -26 90 -45 59z"/>
<path d="M543 2583 c-16 -6 -17 -29 -3 -38 11 -7 40 12 40 25 0 11 -22 18 -37
13z"/>
<path d="M365 2090 c-3 -5 -1 -10 4 -10 6 0 11 5 11 10 0 6 -2 10 -4 10 -3 0
-8 -4 -11 -10z"/>
<path d="M2754 1635 c-8 -20 3 -48 16 -40 13 8 13 55 0 55 -6 0 -13 -7 -16
-15z"/>
<path d="M340 1555 c-16 -20 -6 -45 19 -45 35 0 51 12 51 36 0 20 -5 24 -29
24 -16 0 -34 -7 -41 -15z"/>
<path d="M2702 1438 c-19 -19 -14 -36 13 -54 32 -21 55 -12 55 21 0 18 -7 28
-26 35 -31 12 -28 12 -42 -2z"/>
<path d="M386 1371 c-10 -15 20 -45 39 -37 17 6 17 7 0 26 -20 22 -31 25 -39
11z"/>
<path d="M2647 1313 c-15 -14 -6 -44 17 -55 31 -14 56 -4 56 21 0 29 -54 54
-73 34z"/>
<path d="M2347 923 c-14 -13 -7 -50 13 -68 16 -15 22 -15 35 -5 20 17 19 36
-5 60 -21 21 -32 24 -43 13z"/>
<path d="M2247 843 c-14 -13 -7 -50 13 -68 37 -34 66 6 40 56 -10 19 -40 26
-53 12z"/>
<path d="M2094 746 c-9 -24 4 -63 23 -70 27 -11 49 19 37 51 -11 32 -50 44
-60 19z"/>
<path d="M1115 709 c-8 -13 -6 -15 23 -23 26 -9 32 18 6 28 -21 8 -22 8 -29
-5z"/>
<path d="M1281 646 c-7 -8 -11 -27 -9 -43 4 -39 48 -40 62 -1 16 44 -25 77
-53 44z"/>
<path d="M1637 624 c-4 -4 -7 -11 -7 -16 0 -13 50 -6 53 7 2 12 -36 19 -46 9z"/>
<path d="M532 809 c-47 -34 -83 -34 -102 1 -19 35 -48 23 -112 -45 -92 -97
-172 -208 -227 -315 -46 -89 -86 -198 -77 -208 3 -2 44 26 92 62 48 36 91 66
95 66 5 0 11 -10 14 -22 3 -13 16 -66 28 -118 l23 -95 60 117 61 118 -73 57
c-56 44 -71 60 -64 72 33 62 186 216 310 313 49 38 23 35 -28 -3z"/>
<path d="M2589 804 l-26 -26 92 -91 c90 -90 199 -232 190 -247 -3 -4 -50 -27
-105 -51 -55 -23 -97 -45 -92 -48 5 -3 32 -51 60 -106 l50 -100 10 40 c6 22
18 75 28 117 10 43 21 78 26 78 5 0 48 -29 95 -65 47 -36 88 -63 90 -61 18 17
-71 219 -144 327 -67 99 -204 253 -229 257 -10 1 -31 -9 -45 -24z"/>
<path d="M1481 248 c1 -16 3 -18 6 -6 2 9 12 19 21 21 12 3 10 5 -5 6 -18 1
-23 -4 -22 -21z"/>
<path d="M1847 263 c-4 -3 -7 -19 -7 -35 l0 -29 -172 1 c-257 1 -435 -2 -415
-7 18 -5 25 -53 7 -53 -5 0 -10 -4 -10 -10 0 -14 59 -77 60 -63 0 7 -9 17 -21
23 -17 10 -18 14 -7 27 7 9 11 28 10 44 -3 26 -1 29 27 29 24 0 31 -4 31 -19
0 -11 -10 -27 -22 -36 l-23 -17 23 7 c19 6 22 3 22 -24 0 -17 5 -31 10 -31 6
0 10 27 10 60 l0 60 60 0 60 0 -2 -31 c-1 -18 -10 -37 -20 -43 -24 -15 -23
-25 2 -19 14 4 20 0 22 -13 1 -11 4 8 7 41 l6 60 73 3 c59 2 72 0 72 -13 0
-10 -10 -15 -31 -15 -18 0 -28 -4 -24 -10 3 -6 17 -7 31 -4 22 6 24 4 24 -35
0 -23 5 -41 10 -41 6 0 10 27 10 60 l0 60 55 0 c52 0 55 -1 55 -24 0 -22 -5
-25 -40 -28 -33 -2 -38 -6 -29 -18 8 -11 12 -12 16 -2 2 6 15 12 28 12 19 0
25 -6 28 -32 2 -18 5 -5 5 30 2 63 2 63 30 60 25 -3 27 -7 33 -63 l6 -60 1 63
2 62 55 0 c30 0 55 -4 55 -10 0 -5 -13 -10 -29 -10 -31 0 -49 -14 -31 -25 5
-3 10 -1 10 4 0 6 16 11 35 11 24 0 35 5 35 15 0 12 13 15 55 15 42 0 55 -3
55 -15 0 -10 -10 -15 -29 -15 -34 0 -54 -20 -44 -46 6 -17 8 -16 13 6 4 18 14
26 33 28 25 3 27 1 27 -37 0 -23 5 -41 10 -41 6 0 10 27 10 60 0 57 1 60 25
60 23 0 24 -4 28 -62 l3 -63 2 62 2 62 65 0 c60 -1 65 -2 65 -22 0 -29 -11
-44 -40 -57 -25 -10 -25 -10 3 -6 22 3 30 -1 37 -18 5 -15 9 -2 11 46 l4 68
-235 2 -235 3 0 25 c0 21 5 25 32 25 17 0 29 3 26 7 -5 10 -57 10 -66 1z"/>
<path d="M533 130 c0 -41 2 -58 4 -37 2 20 2 54 0 75 -2 20 -4 3 -4 -38z"/>
<path d="M593 130 c0 -41 2 -58 4 -37 2 20 2 54 0 75 -2 20 -4 3 -4 -38z"/>
<path d="M748 193 c37 -3 52 -8 52 -19 0 -9 -11 -14 -36 -14 -19 0 -33 -4 -30
-8 3 -5 19 -7 36 -4 29 4 30 3 30 -37 0 -22 5 -41 10 -41 6 0 10 27 10 60 0
57 1 60 25 60 23 0 24 -4 28 -62 l3 -63 2 63 2 62 55 0 c52 0 55 -1 55 -25 0
-22 -4 -25 -35 -25 -35 0 -46 -12 -23 -26 6 -4 14 -2 16 4 2 7 12 12 23 12 13
0 19 -7 19 -24 0 -14 5 -28 10 -31 6 -4 10 17 10 54 0 59 1 61 26 61 25 0 26
-2 21 -40 -5 -37 11 -70 21 -42 2 7 15 12 28 12 19 0 24 -5 24 -25 0 -14 4
-25 9 -25 5 0 11 29 13 65 l3 65 -230 -2 c-126 -1 -206 -3 -177 -5z m382 -33
c0 -25 -4 -30 -25 -30 -21 0 -25 5 -25 30 0 25 4 30 25 30 21 0 25 -5 25 -30z"/>
<path d="M2460 130 c0 -40 4 -70 10 -70 6 0 10 30 10 70 0 40 -4 70 -10 70 -6
0 -10 -30 -10 -70z"/>
<path d="M2523 130 c0 -41 2 -58 4 -37 2 20 2 54 0 75 -2 20 -4 3 -4 -38z"/>
<path d="M2243 156 c-22 -10 -31 -26 -15 -26 12 0 48 28 42 32 -3 2 -15 -1
-27 -6z"/>
<path d="M1410 145 c-13 -16 0 -21 16 -6 5 5 18 11 29 14 16 4 14 5 -6 6 -15
0 -32 -6 -39 -14z"/>
<path d="M760 118 c0 -13 -8 -18 -26 -18 -14 0 -23 -4 -19 -10 9 -14 41 -12
53 3 7 8 7 18 2 27 -8 13 -10 12 -10 -2z"/>
<path d="M1606 115 c-5 -13 -9 -14 -28 -4 -21 11 -22 11 -9 -4 15 -19 46 -22
57 -6 3 6 2 15 -4 21 -6 6 -11 4 -16 -7z"/>
<path d="M1917 123 c-12 -12 -7 -40 10 -54 15 -13 15 -12 2 9 -13 21 -12 25 5
38 15 11 16 14 5 14 -9 0 -19 -3 -22 -7z"/>
<path d="M1981 94 c0 -11 3 -14 6 -6 3 7 2 16 -1 19 -3 4 -6 -2 -5 -13z"/>
<path d="M1125 51 c-3 -6 3 -9 14 -8 11 0 17 5 15 9 -7 11 -22 10 -29 -1z"/>
</g>
</svg>
